<?xml version="1.0" standalone="no"?>
<!DOCTYPE svg PUBLIC "-//W3C//DTD SVG 1.1//EN" "http://www.w3.org/Graphics/SVG/1.1/DTD/svg11.dtd" >
<svg>
<metadata>
Created by FontForge 20090914 at Tue Nov 15 13:49:58 2016
 By www-data
Copyright 1990-1993 Bitstream Inc.  All rights reserved.
</metadata>
<defs>
<font id="ClarendonBT-Black" horiz-adv-x="1024" >
  <font-face 
    font-family="Clarendon Blk BT"
    font-weight="400"
    font-stretch="normal"
    units-per-em="2048"
    panose-1="2 4 9 5 5 5 5 2 2 4"
    ascent="1638"
    descent="-410"
    x-height="966.999"
    cap-height="1374"
    bbox="-342 -483.001 2793 1972"
    underline-thickness="256"
    underline-position="-97"
    unicode-range="U+0020-U+F002"
  />
<missing-glyph horiz-adv-x="1229" 
d="M102 -362v1806h1024v-1806h-1024zM217 -248h795v1577h-795v-1577z" />
    <glyph glyph-name=".notdef" horiz-adv-x="1229" 
d="M102 -362v1806h1024v-1806h-1024zM217 -248h795v1577h-795v-1577z" />
    <glyph glyph-name="space" unicode=" " horiz-adv-x="664" 
 />
    <glyph glyph-name="exclam" unicode="!" horiz-adv-x="711" 
d="M170 154c0 52.667 18.167 97.167 54.5 133.5s80.833 54.5 133.5 54.5c53.333 0 98.166 -18.167 134.499 -54.5s54.5 -80.833 54.5 -133.5c0 -53.333 -18.167 -98.166 -54.5 -134.499s-81.166 -54.5 -134.499 -54.5c-52.667 0 -97.167 18.167 -133.5 54.5
s-54.5 81.166 -54.5 134.499zM244 426c-10.667 122 -30.167 263.166 -58.5 423.499s-42.5 260.833 -42.5 301.5c0 82 19 146.5 57 193.5s90 70.5 156 70.5c66.667 0 118.5 -23.167 155.5 -69.5s55.5 -111.166 55.5 -194.499c0 -40.667 -14 -141.167 -42 -301.5
s-47.333 -301.5 -58 -423.5h-223z" />
    <glyph glyph-name="quotedbl" unicode="&#x22;" horiz-adv-x="729" 
d="M565 838l-49 0.000976562l-92 467c-2 10 -3.16699 17.333 -3.5 22s-0.5 9.33398 -0.5 14.001c0 36.667 11.167 66.334 33.5 89.001s51.5 34 87.5 34s65.167 -11.333 87.5 -34s33.5 -52.334 33.5 -89.001c-0.666992 -4.66699 -1.16699 -9.33398 -1.5 -14.001
s-1.5 -12.334 -3.5 -23.001zM213 838.001h-49l-92 466c-2 10.667 -3.16699 18.334 -3.5 23.001s-0.5 9.33398 -0.5 14.001c0 36.667 11 66.334 33 89.001s51 34 87 34s65.167 -11.333 87.5 -34s33.5 -52.334 33.5 -89.001c0 -4.66699 -0.166992 -9.33398 -0.5 -14.001
s-1.5 -12.334 -3.5 -23.001z" />
    <glyph glyph-name="numbersign" unicode="#" horiz-adv-x="1575" 
d="M707 836l-78 -220h239l78 220h-239zM649 1470h289l-129 -366h227l129 366h289l-129 -366h256l-100 -270h-252l-76 -213h258l-100 -271h-254l-131 -366h-289l131 366h-227l-131 -366h-289l131 366h-258l100 271h254l74 213h-258l98 270h258z" />
    <glyph glyph-name="dollar" unicode="$" horiz-adv-x="1327" 
d="M745 422l1 -269.999c52 2.66699 92.5 15.667 121.5 39s43.5 54.666 43.5 93.999c0 34 -14.167 62.833 -42.5 86.5s-69.5 40.5 -123.5 50.5zM588 1085c-47.333 -4 -83.5 -17.5 -108.5 -40.5s-37.5 -54.5 -37.5 -94.5c0 -37.333 11.333 -66.5 34 -87.5
s60 -36.167 112 -45.5v268zM588 -230.999l-0.000976562 231h-8c-158.667 0 -279.667 24.667 -363 74s-125 121 -125 215c0 52.667 17.333 96.167 52 130.5s78.667 51.5 132 51.5c50 0 91.667 -14.333 125 -43s50 -64 50 -106c0 -32 -8.83301 -58.5 -26.5 -79.5
s-43.167 -35.5 -76.5 -43.5c27.333 -18 58 -31.167 92 -39.5s73 -12.5 117 -12.5h31v310c-176.667 38 -301.834 85.833 -375.501 143.5s-110.5 135.5 -110.5 233.5c0 114 43.333 208.167 130 282.5s205.334 117.833 356.001 130.5v148h157l1 -146
c143.333 -5.33301 253.166 -32.166 329.499 -80.499s114.5 -115.5 114.5 -201.5c0 -52.667 -16.333 -95.667 -49 -129s-75 -50 -127 -50c-49.333 0 -90 13.333 -122 40s-48 60 -48 100c0 23.333 6 45.166 18 65.499s29.667 38.833 53 55.5
c-21.333 12.667 -46.166 22.167 -74.499 28.5s-60.166 9.5 -95.499 9.5v-303c173.333 -32.667 299.333 -80.167 378 -142.5s118 -145.833 118 -250.5c0 -119.333 -43.333 -213.333 -130 -282s-208.667 -105 -366 -109v-231h-157z" />
    <glyph glyph-name="percent" unicode="%" horiz-adv-x="1976" 
d="M1380 356c0 -83.333 10.334 -143.668 31.001 -181.001s54 -56 100 -56c47.333 0 81.5 18.333 102.5 55s31.5 97.334 31.5 182.001s-10.333 145.834 -31 183.501s-54.334 56.5 -101.001 56.5c-45.333 0 -78.833 -19.333 -100.5 -58s-32.5 -99.334 -32.5 -182.001z
M1120 357.998c0 118.667 36.001 213.999 108.001 285.999s167 108 285 108s213.167 -36 285.5 -108s108.5 -167.333 108.5 -286c0 -118 -36 -213 -108 -285s-167.333 -108 -286 -108s-213.834 35.833 -285.501 107.5s-107.5 166.834 -107.5 285.501zM324.002 888.997
c0 -83.333 10.5 -144.167 31.5 -182.5s54.833 -57.5 101.5 -57.5s80.167 18.5 100.5 55.5s30.5 98.5 30.5 184.5c0 84.667 -10.333 145.667 -31 183s-54 56 -100 56s-79.667 -19.167 -101 -57.5s-32 -98.833 -32 -181.5zM63.002 888.996
c0 118 35.999 213.001 107.999 285.001s167.333 108 286 108c118 0 213 -35.833 285 -107.5s108 -166.834 108 -285.501s-36.167 -214.167 -108.5 -286.5s-167.166 -108.5 -284.499 -108.5c-118.667 0 -214 36 -286 108s-108 167.667 -108 287zM494.001 -37.0029l784 1321
h195l-783 -1321h-196z" />
    <glyph glyph-name="ampersand" unicode="&#x26;" horiz-adv-x="1788" 
d="M530 621c-33.333 -30 -58.001 -60.167 -74.001 -90.5s-24 -63.166 -24 -98.499c0 -68.667 23 -127.167 69 -175.5s101.667 -72.5 167 -72.5c22.667 0 46.334 4 71.001 12s50.667 19.667 78 35c-38 35.333 -79.667 83.666 -125 144.999s-99.333 143 -162 245zM720.999 975
c43.333 16 76 36.667 98 62s33 55 33 89c0 30.667 -9.16699 55.5 -27.5 74.5s-41.833 28.5 -70.5 28.5c-32.667 0 -58 -9.33301 -76 -28s-27 -45 -27 -79c0 -21.333 5.83301 -44.333 17.5 -69s29.167 -50.667 52.5 -78zM1536 473l211 0.000976562v-37
c0 -158 -33 -277 -99 -357s-164 -120 -294 -120c-68 0 -133.167 9.83301 -195.5 29.5s-119.5 48.167 -171.5 85.5c-65.333 -39.333 -133.5 -68.333 -204.5 -87s-146.833 -28 -227.5 -28c-154.667 0 -276.334 37 -365.001 111s-133 175 -133 303c0 111.333 29.5 204 88.5 278
s153.167 136.333 282.5 187c-28 48.667 -49 95.167 -63 139.5s-21 87.166 -21 128.499c0 92 34 166.5 102 223.5s157.667 85.5 269 85.5c108.667 0 195.167 -27.167 259.5 -81.5s96.5 -126.833 96.5 -217.5c0 -66 -18 -126 -54 -180s-92.333 -105.333 -169 -154
c38.667 -68 79.334 -131 122.001 -189s86.667 -110.333 132 -157c39.333 45.333 67.5 82.666 84.5 111.999s25.5 55 25.5 77c0 16.667 -8.16699 28.667 -24.5 36s-57.833 13 -124.5 17v178h586v-178c-60 -5.33301 -106.333 -16.666 -139 -33.999
s-60.334 -44.333 -83.001 -81l-21 -39c-47.333 -90 -99.666 -169.667 -156.999 -239c28 -28 53.333 -48.667 76 -62s44 -20 64 -20c46 0 82 22.333 108 67s39 107 39 187v16z" />
    <glyph glyph-name="quotesingle" unicode="'" horiz-adv-x="379" 
d="M213 838h-47l-92 466c-2 10.667 -3.16699 18.334 -3.5 23.001s-0.5 9.33398 -0.5 14.001c0 36.667 11 66.334 33 89.001s50.333 34 85 34c36 0 65.167 -11.333 87.5 -34s33.5 -52.334 33.5 -89.001c0 -4.66699 -0.166992 -9.33398 -0.5 -14.001
s-1.5 -12.334 -3.5 -23.001z" />
    <glyph glyph-name="parenleft" unicode="(" horiz-adv-x="883" 
d="M834 1239c-99.333 -18 -172.668 -86.6689 -220.001 -206.002s-71 -295.666 -71 -528.999c0 -230.667 23.5 -405.5 70.5 -524.5s120.5 -188.5 220.5 -208.5l-1 -174c-229.333 2 -403.666 80.333 -522.999 235s-179 379.334 -179 674.001c0 281.333 59.5 499 178.5 653
s293.833 239.333 524.5 256v-176z" />
    <glyph glyph-name="parenright" unicode=")" horiz-adv-x="883" 
d="M45 -227c99.333 18 172.666 86.668 219.999 206.001s71 295.666 71 528.999c0 230.667 -23.667 405.5 -71 524.5s-120.666 188.5 -219.999 208.5v174c229.333 -2 403.833 -80.333 523.5 -235s179.5 -379.334 179.5 -674.001c0 -281.333 -59.667 -499.166 -179 -653.499
s-294 -239.5 -524 -255.5v176z" />
    <glyph glyph-name="asterisk" unicode="*" horiz-adv-x="1053" 
d="M505 996c-2.66699 57.333 -19.8359 118.662 -51.5029 183.995s-47.5 107.666 -47.5 126.999c0 32 11 58 33 78s51 30 87 30c34 0 62.667 -10.667 86 -32s35 -46.666 35 -75.999c0 -18.667 -15.5 -60.5 -46.5 -125.5s-48.833 -126.833 -53.5 -185.5
c24.667 12.667 48.167 30.334 70.5 53.001s45.833 52.667 70.5 90c2.66699 3.33301 6.33398 8.66602 11.001 15.999c42 64 83.333 96 124 96c31.333 0 59 -12.667 83 -38s36 -54.333 36 -87c0 -40 -12 -69.167 -36 -87.5s-65 -29.166 -123 -32.499
c-58 -4 -102.333 -9.66699 -133 -17s-57.667 -17.666 -81 -30.999c56 -30 135 -47.333 237 -52c8.66699 0 15.334 -0.333008 20.001 -1c36 -2 64.667 -12.833 86 -32.5s32 -45.5 32 -77.5c0 -37.333 -11.833 -68.833 -35.5 -94.5s-52.834 -38.5 -87.501 -38.5
c-38 0 -77.333 30 -118 90c-7.33301 10.667 -13 18.667 -17 24c-28.667 42 -53.667 74.333 -75 97s-42 38.667 -62 48c2 -56 19.167 -117.167 51.5 -183.5s48.5 -109.5 48.5 -129.5c0 -31.333 -11.333 -57.166 -34 -77.499s-51.667 -30.5 -87 -30.5
s-64.166 9.83301 -86.499 29.5s-33.5 45.167 -33.5 76.5c0 19.333 15.667 62.333 47 129s49.666 127.667 54.999 183c-24.667 -12 -48.667 -29.5 -72 -52.5s-47 -53.167 -71 -90.5c-2 -3.33301 -5 -8 -9 -14c-41.333 -64.667 -83.666 -97 -126.999 -97
c-33.333 0 -61.666 12.667 -84.999 38s-35 55.666 -35 90.999c0 34 10.667 60.167 32 78.5s55 29.5 101 33.5c6.66699 0.666992 16.334 1.33398 29.001 2.00098c91.333 6.66699 161.333 22.334 210 47.001c-29.333 18 -65.833 31.5 -109.5 40.5s-95.167 13.5 -154.5 13.5
c-28.667 0 -53.834 10.833 -75.501 32.5s-32.5 47.5 -32.5 77.5c0 36.667 11.5 67.334 34.5 92.001s51.5 37 85.5 37c43.333 0 87.333 -33.333 132 -100l6 -9l1 -1c42 -63.333 87 -110.333 135 -141z" />
    <glyph glyph-name="plus" unicode="+" horiz-adv-x="1706" 
d="M713 1221h280v-473h459v-273h-459v-475h-280v475h-459v273h459v473z" />
    <glyph glyph-name="comma" unicode="," horiz-adv-x="664" 
d="M326 -12c-1.33301 -0.666992 -3.33301 -1.00195 -6 -1.00195c-14.667 -2 -25.667 -3 -33 -3c-48.667 0 -87.834 15.333 -117.501 46s-44.5 71.334 -44.5 122.001c0 54.667 18.333 100 55 136s83 54 139 54c64.667 0 117.167 -21.5 157.5 -64.5s60.5 -99.167 60.5 -168.5
c0 -96.667 -37.167 -181.167 -111.5 -253.5s-169.166 -114.166 -284.499 -125.499l1 129c50 5.33301 89.833 18.333 119.5 39s51.167 50.667 64.5 90z" />
    <glyph glyph-name="hyphen" unicode="-" horiz-adv-x="735" 
d="M63 317v326h599v-326h-599z" />
    <glyph glyph-name="period" unicode="." horiz-adv-x="664" 
d="M143 154c0 52.667 18.167 97.167 54.5 133.5s81.166 54.5 134.499 54.5s98 -18.167 134 -54.5s54 -80.833 54 -133.5c0 -53.333 -18 -98.166 -54 -134.499s-80.667 -54.5 -134 -54.5s-98.166 18.167 -134.499 54.5s-54.5 81.166 -54.5 134.499z" />
    <glyph glyph-name="slash" unicode="/" horiz-adv-x="592" 
d="M86 -190h-186l528 1605h188z" />
    <glyph glyph-name="zero" unicode="0" horiz-adv-x="1327" 
d="M831 623c0 162 -12.999 279.168 -38.999 351.501s-68 108.5 -126 108.5c-60 0 -103.333 -36 -130 -108s-40 -189.333 -40 -352s13.167 -279.834 39.5 -351.501s69.166 -107.5 128.499 -107.5s102 35.5 128 106.5s39 188.5 39 352.5zM55.001 623.001
c0 198 56.166 357.333 168.499 478s259.833 181 442.5 181c180.667 0 327.167 -60.5 439.5 -181.5s168.5 -280.167 168.5 -477.5s-56.167 -356.333 -168.5 -477s-260.166 -181 -443.499 -181c-180.667 0 -327 60.333 -439 181s-168 279.667 -168 477z" />
    <glyph glyph-name="one" unicode="1" horiz-adv-x="1327" 
d="M268 905v182.002c83.333 6.66699 149.333 23.167 198 49.5s81.667 63.166 99 110.499h324v-983c0 -34 9 -56.5 27 -67.5s57.333 -16.5 118 -16.5h47v-180h-813v180h56c64.667 0 107 5.66699 127 17s30 44.666 30 99.999v8v600h-213z" />
    <glyph glyph-name="two" unicode="2" horiz-adv-x="1327" 
d="M94 -2c0 5.33301 -0.333984 12.998 -1.00098 22.998s-1 17.333 -1 22c0 94 18.833 176.333 56.5 247s100.167 140 187.5 208c35.333 28 90.666 64.833 165.999 110.5s130 81.167 164 106.5c26.667 20 47.667 45.333 63 76s23 63.334 23 98.001
c0 53.333 -19.167 95.333 -57.5 126s-90.833 46 -157.5 46c-42.667 0 -80.834 -6.83301 -114.501 -20.5s-63.167 -34.167 -88.5 -61.5h10c48.667 0 86.5 -12.667 113.5 -38s40.5 -61 40.5 -107c0 -60 -18.167 -107.167 -54.5 -141.5s-85.833 -51.5 -148.5 -51.5
c-63.333 0 -113.666 19.833 -150.999 59.5s-56 92.834 -56 159.501c0 122.667 51.5 223.667 154.5 303s235.167 119 396.5 119c163.333 0 296 -39.167 398 -117.5s153 -179.833 153 -304.5c0 -102 -33.667 -184.667 -101 -248s-184.666 -120 -351.999 -170l-83 -23
c-164 -46 -256.333 -99.667 -277 -161c45.333 24 89.666 42 132.999 54s87 18 131 18c44.667 0 100.334 -8.16699 167.001 -24.5s110.667 -24.5 132 -24.5c28.667 0 50.167 11.5 64.5 34.5s21.5 57.833 21.5 104.5v18h209c0.666992 -8.66699 1.16699 -18 1.5 -28
s0.5 -24.333 0.5 -43c0 -140.667 -28.333 -243.167 -85 -307.5s-146.334 -96.5 -269.001 -96.5c-74 0 -164 16 -270 48s-173.667 48 -203 48c-27.333 0 -49.166 -4.83301 -65.499 -14.5s-28.166 -25.167 -35.499 -46.5h-215z" />
    <glyph glyph-name="three" unicode="3" horiz-adv-x="1327" 
d="M555 561v172.001c72.667 3.33301 126.334 17.666 161.001 42.999s52 63.666 52 114.999c0 60 -20.333 108.167 -61 144.5s-95.334 54.5 -164.001 54.5c-41.333 0 -76.166 -5.83301 -104.499 -17.5s-52.166 -29.834 -71.499 -54.501c38 0 69 -12.333 93 -37
s36 -56.667 36 -96c0 -53.333 -16.333 -94 -49 -122s-79.334 -42 -140.001 -42c-58.667 0 -106.334 17.5 -143.001 52.5s-55 80.833 -55 137.5c0 112.667 51.667 202.667 155 270s243.333 101 420 101c156 0 277.667 -30.167 365 -90.5s131 -144.166 131 -251.499
c0 -66.667 -19 -122.5 -57 -167.5s-95 -79.167 -171 -102.5c92.667 -30 161.667 -71.833 207 -125.5s68 -120.5 68 -200.5c0 -118 -49.333 -210.667 -148 -278s-234.334 -101 -407.001 -101c-195.333 0 -343.5 28.667 -444.5 86s-151.5 141.333 -151.5 252
c0 66 21.667 120.333 65 163s98 64 164 64c58.667 0 105.834 -16 141.501 -48s53.5 -74.667 53.5 -128c0 -47.333 -13.167 -83.166 -39.5 -107.499s-67.833 -39.5 -124.5 -45.5c26.667 -16 56.667 -27.833 90 -35.5s70.333 -11.5 111 -11.5
c79.333 0 140.666 18.167 183.999 54.5s65 88.5 65 156.5c0 63.333 -19.667 111.833 -59 145.5s-96.666 50.5 -171.999 50.5z" />
    <glyph glyph-name="four" unicode="4" horiz-adv-x="1327" 
d="M1067 356v-92c0 -34 9 -56.5 27 -67.5s57.333 -16.5 118 -16.5h50v-180h-795v180h55c64 0 106.333 5.83301 127 17.5s31 45.5 31 101.5v8v49h-617v219l619 672h385v-717h195v-174h-195zM287 530h393l4 437z" />
    <glyph glyph-name="five" unicode="5" horiz-adv-x="1327" 
d="M172 633l36.9971 643.001c118 -10 212.5 -17 283.5 -21s130.167 -6 177.5 -6c124.667 0 249.667 13 375 39c28.667 5.33301 46.334 8 53.001 8c10.667 0 19.834 -4.83301 27.501 -14.5s11.5 -21.834 11.5 -36.501c0 -61.333 -48.167 -119.333 -144.5 -174
s-209.5 -82 -339.5 -82c-25.333 0 -57.166 1.33301 -95.499 4s-87.5 6.66699 -147.5 12l-9 -161c36.667 21.333 76.834 37.166 120.501 47.499s92.5 15.5 146.5 15.5c166 0 296.833 -42 392.5 -126s143.5 -198.333 143.5 -343c0 -140.667 -55.5 -255 -166.5 -343
s-256.833 -132 -437.5 -132c-158.667 0 -284 33 -376 99s-138 155.333 -138 268c0 63.333 20.167 114.333 60.5 153s93.833 58 160.5 58c58 0 105.333 -16.5 142 -49.5s55 -74.5 55 -124.5c0 -48.667 -11 -85.167 -33 -109.5s-59 -41.166 -111 -50.499
c25.333 -20.667 51 -36.167 77 -46.5s53.667 -15.5 83 -15.5c73.333 0 133 27.5 179 82.5s69 126.5 69 214.5c0 80 -19 143 -57 189s-89.333 69 -154 69c-30.667 0 -59.334 -5.33301 -86.001 -16s-52.667 -27.667 -78 -51h-221z" />
    <glyph glyph-name="six" unicode="6" horiz-adv-x="1327" 
d="M524 711c47.333 26 94.332 45.3281 140.999 57.9951s94 19 142 19c127.333 0 230.166 -36.833 308.499 -110.5s117.5 -170.5 117.5 -290.5c0 -132 -45.667 -235.333 -137 -310s-217.666 -112 -378.999 -112c-193.333 0 -343.5 54.333 -450.5 163
s-160.5 261.334 -160.5 458.001c0 214.667 58.5 384.334 175.5 509.001s275.833 187 476.5 187c128.667 0 232.834 -26.833 312.501 -80.5s119.5 -123.167 119.5 -208.5c0 -53.333 -17.667 -95.666 -53 -126.999s-83.333 -47 -144 -47c-54.667 0 -99.667 14.5 -135 43.5
s-53 65.167 -53 108.5c0 26.667 5.83301 49.834 17.5 69.501s29.5 36.834 53.5 51.501c-14 4.66699 -28.167 8.16699 -42.5 10.5s-27.833 3.5 -40.5 3.5c-81.333 0 -146.5 -35 -195.5 -105s-73.5 -164.667 -73.5 -284v-6zM685.999 136.995
c42.667 0 76.834 20.499 102.501 61.499s38.5 95.5 38.5 163.5c0 68.667 -12.833 123.5 -38.5 164.5s-59.834 61.5 -102.501 61.5c-43.333 0 -77.666 -20.167 -102.999 -60.5s-38 -95.5 -38 -165.5c0 -69.333 12.667 -124.166 38 -164.499s59.666 -60.5 102.999 -60.5z" />
    <glyph glyph-name="seven" unicode="7" horiz-adv-x="1327" 
d="M420 0c-0.666992 7.33301 -1.16895 15.8311 -1.50195 25.498s-0.5 23.834 -0.5 42.501c0 102.667 14.167 194.834 42.5 276.501s73.5 160.834 135.5 237.501c31.333 38 91 96.333 179 175s154 143 198 193c-31.333 -14 -62 -24.667 -92 -32s-60 -11 -90 -11
c-44.667 0 -96.667 5.83301 -156 17.5s-97 17.5 -113 17.5c-52.667 0 -90.667 -15.833 -114 -47.5s-35 -83.5 -35 -155.5c0 -18.667 0.166992 -33.167 0.5 -43.5s0.833008 -19.5 1.5 -27.5h-232v579h234l-2 -127c28.667 50.667 64.834 88.667 108.501 114
s94.834 38 153.501 38c68 0 144.5 -16.833 229.5 -50.5s137.5 -50.5 157.5 -50.5c22 0 38.833 5.33301 50.5 16s17.5 26 17.5 46v14h178c0.666992 -4.66699 1.16699 -9.66699 1.5 -15s0.5 -13.333 0.5 -24c0 -82.667 -59 -217.334 -177 -404.001
c-16 -25.333 -28 -45 -36 -59c-84 -138 -140.833 -258.333 -170.5 -361s-44.5 -215 -44.5 -337v-47h-424z" />
    <glyph glyph-name="eight" unicode="8" horiz-adv-x="1327" 
d="M299 616c-60 40 -104.333 83.1631 -133 129.496s-43 98.833 -43 157.5c0 116 49.333 208.167 148 276.5s233 102.5 403 102.5c159.333 0 284.5 -28.167 375.5 -84.5s136.5 -133.166 136.5 -230.499c0 -57.333 -16.333 -105.666 -49 -144.999
s-81.334 -70.333 -146.001 -93c94.667 -42.667 163.834 -92.667 207.501 -150s65.5 -127.333 65.5 -210c0 -127.333 -54.667 -226.5 -164 -297.5s-262.333 -106.5 -459 -106.5c-185.333 0 -327.5 30.833 -426.5 92.5s-148.5 149.834 -148.5 264.501
c0 68 18.833 125.833 56.5 173.5s96.5 87.834 176.5 120.501zM492 513.996c-46.667 -24.667 -81.667 -52.334 -105 -83.001s-35 -63.667 -35 -99c0 -58.667 27 -106.5 81 -143.5s125.333 -55.5 214 -55.5c73.333 0 129.5 11.5 168.5 34.5s58.5 55.833 58.5 98.5
c0 34.667 -14 64.834 -42 90.501s-76.667 52.167 -146 79.5zM786 818.996c38 18.667 66.333 39.667 85 63s28 49.666 28 78.999c0 40.667 -19.333 74.334 -58 101.001s-89 40 -151 40c-60.667 0 -108.834 -10.333 -144.501 -31s-53.5 -48 -53.5 -82
c0 -27.333 12.833 -50.833 38.5 -70.5s72.834 -40.5 141.501 -62.5z" />
    <glyph glyph-name="nine" unicode="9" horiz-adv-x="1327" 
d="M799 537c-47.333 -26 -94.502 -45.499 -141.502 -58.499s-94.833 -19.5 -143.5 -19.5c-127.333 0 -230.166 36.5 -308.499 109.5s-117.5 168.833 -117.5 287.5c0 129.333 46.833 232.666 140.5 309.999s219.5 116 377.5 116c189.333 0 338 -56.167 446 -168.5
s162 -266.5 162 -462.5c0 -210.667 -58.667 -378 -176 -502s-275.666 -186 -474.999 -186c-128.667 0 -232.5 27.167 -311.5 81.5s-118.5 124.833 -118.5 211.5c0 52.667 17.833 94.5 53.5 125.5s83.5 46.5 143.5 46.5c54.667 0 99.667 -14.5 135 -43.5
s53 -65.167 53 -108.5c0 -26.667 -5.83301 -49.834 -17.5 -69.501s-29.5 -36.5 -53.5 -50.5c14.667 -5.33301 28.667 -9.16602 42 -11.499s26.333 -3.5 39 -3.5c82 0 147.667 35.167 197 105.5s74 164.833 74 283.5v7zM634.998 1110
c-42.667 0 -76.834 -20.499 -102.501 -61.499s-38.5 -95.5 -38.5 -163.5c0 -68.667 12.833 -123.5 38.5 -164.5s59.834 -61.5 102.501 -61.5c43.333 0 78 20.333 104 61s39 95.667 39 165s-13 124.166 -39 164.499s-60.667 60.5 -104 60.5z" />
    <glyph glyph-name="colon" unicode=":" horiz-adv-x="711" 
d="M162 154c0 52.667 18.333 97.167 55 133.5s81.667 54.5 135 54.5s98.166 -18.167 134.499 -54.5s54.5 -80.833 54.5 -133.5c0 -53.333 -18.167 -98.166 -54.5 -134.499s-81.166 -54.5 -134.499 -54.5s-98.333 18.167 -135 54.5s-55 81.166 -55 134.499zM162 735
c0 53.333 18.333 98.166 55 134.499s81.667 54.5 135 54.5s98.166 -18.167 134.499 -54.5s54.5 -81.166 54.5 -134.499s-18.167 -98 -54.5 -134s-81.166 -54 -134.499 -54s-98.333 18.167 -135 54.5s-55 80.833 -55 133.5z" />
    <glyph glyph-name="semicolon" unicode=";" horiz-adv-x="711" 
d="M162 735c0 53.333 18.333 98.166 55 134.499s81.667 54.5 135 54.5s98.166 -18.167 134.499 -54.5s54.5 -81.166 54.5 -134.499s-18.167 -98 -54.5 -134s-81.166 -54 -134.499 -54s-98.333 18.167 -135 54.5s-55 80.833 -55 133.5zM350 -12
c-1.33301 -0.666992 -3 -1.00195 -5 -1.00195c-14.667 -2 -26 -3 -34 -3c-48.667 0 -88.167 15.333 -118.5 46s-45.5 71.334 -45.5 122.001c0 54.667 18.333 100 55 136s83.334 54 140.001 54c64.667 0 117 -21.5 157 -64.5s60 -99.167 60 -168.5
c0 -96.667 -37.167 -181.167 -111.5 -253.5s-168.833 -114.166 -283.5 -125.499v129c50 4.66699 90.167 17.5 120.5 38.5s52.166 51.167 65.499 90.5z" />
    <glyph glyph-name="less" unicode="&#x3c;" horiz-adv-x="1706" 
d="M1442 1239v-301l-801 -328l801 -327v-299l-1178 487v281z" />
    <glyph glyph-name="equal" unicode="=" horiz-adv-x="1706" 
d="M254 512h1198v-272h-1198v272zM254 983h1198v-272h-1198v272z" />
    <glyph glyph-name="greater" unicode="&#x3e;" horiz-adv-x="1706" 
d="M264 1239l1178 -487v-281l-1178 -487v299l801 327l-801 328v301z" />
    <glyph glyph-name="question" unicode="?" horiz-adv-x="1223" 
d="M449 432c-2 14 -3.33301 24.3359 -4 31.0029s-1 12.667 -1 18c0 28.667 4.33301 56.667 13 84s22.334 55.666 41.001 84.999l28 43c98.667 155.333 148 265.666 148 330.999c0 54.667 -17.333 98.667 -52 132s-81 50 -139 50c-50 0 -91.5 -12.667 -124.5 -38
s-54.167 -61 -63.5 -107c14.667 4 28.667 7 42 9s26.666 3 39.999 3c46 0 82 -13.5 108 -40.5s39 -64.5 39 -112.5c0 -58.667 -18.333 -105.834 -55 -141.501s-85 -53.5 -145 -53.5c-69.333 0 -124 23.167 -164 69.5s-60 109.166 -60 188.499
c0 128.667 47.5 232.834 142.5 312.501s221.167 119.5 378.5 119.5c145.333 0 262.833 -34.5 352.5 -103.5s134.5 -158.833 134.5 -269.5c0 -52.667 -9.16699 -101.5 -27.5 -146.5s-45.5 -84.833 -81.5 -119.5c-37.333 -36.667 -89.333 -79 -156 -127
c-20 -14 -34.333 -24.333 -43 -31l-4 -3c-73.333 -55.333 -110 -116.333 -110 -183h-237zM375 154.003c0 53.333 17.833 97.999 53.5 133.999s79.834 54 132.501 54c53.333 0 98.166 -18.167 134.499 -54.5s54.5 -80.833 54.5 -133.5
c0 -53.333 -18.167 -98.166 -54.5 -134.499s-81.166 -54.5 -134.499 -54.5c-52.667 0 -96.834 18 -132.501 54s-53.5 81 -53.5 135z" />
    <glyph glyph-name="at" unicode="@" horiz-adv-x="2019" 
d="M1163 305c-38.667 -62.667 -81.502 -109.665 -128.502 -140.998s-97.5 -47 -151.5 -47c-101.333 0 -181.666 31 -240.999 93s-89 146.333 -89 253c0 77.333 14.667 150.333 44 219s72 130 128 184c50.667 50 106.5 88.5 167.5 115.5s121.833 40.5 182.5 40.5
c66 0 117.333 -14.333 154 -43s58.334 -71.667 65.001 -129l45 149h234l-176 -628c-4.66699 -16 -8.33398 -31.333 -11.001 -46s-4 -28 -4 -40c0 -29.333 6.16699 -52.5 18.5 -69.5s28.833 -25.5 49.5 -25.5c18 0 45.833 10.833 83.5 32.5s71.834 47.834 102.501 78.501
c60 59.333 105.167 128.166 135.5 206.499s45.5 164.5 45.5 258.5c0 72 -9.33301 139.5 -28 202.5s-45.667 116.833 -81 161.5c-56.667 75.333 -135.334 135.166 -236.001 179.499s-207.667 66.5 -321 66.5c-97.333 0 -191.166 -16.167 -281.499 -48.5
s-171.833 -78.833 -244.5 -139.5c-98 -82 -172.333 -180.667 -223 -296s-76 -244 -76 -386c0 -218.667 66.333 -391.167 199 -517.5s314 -189.5 544 -189.5c107.333 0 210.333 16 309 48s207.334 85 326.001 159l45 -65c-100 -76 -207 -133.333 -321 -172
s-232.333 -58 -355 -58c-290 0 -520.5 74.167 -691.5 222.5s-256.5 347.833 -256.5 598.5c0 120 22 234 66 342s108 204.333 192 289c95.333 96 207.666 170.167 336.999 222.5s265.333 78.5 408 78.5c230.667 0 416.667 -63.833 558 -191.5s212 -295.834 212 -504.501
c0 -104.667 -16 -199 -48 -283s-81.333 -160.333 -148 -229c-44 -46 -92.5 -81 -145.5 -105s-108.167 -36 -165.5 -36c-67.333 0 -121.833 17.5 -163.5 52.5s-63.167 80.833 -64.5 137.5zM1139 934.002c-34.667 0 -66.168 -10.8311 -94.501 -32.498
s-56.166 -56.5 -83.499 -104.5c-42.667 -72.667 -77 -151.5 -103 -236.5s-39 -155.833 -39 -212.5c0 -46 9.5 -81 28.5 -105s46.5 -36 82.5 -36c29.333 0 57.666 13.667 84.999 41s56.333 71.666 87 132.999c37.333 75.333 67.833 156.666 91.5 243.999s35.5 157 35.5 209
c0 32.667 -7.66699 57.5 -23 74.5s-37.666 25.5 -66.999 25.5z" />
    <glyph glyph-name="A" unicode="A" horiz-adv-x="1446" 
d="M754 639l-125 416l-117 -416h242zM702 0l-0.000976562 194.998h62c52 0 83.833 2.83301 95.5 8.5s17.5 16.5 17.5 32.5c0 10.667 -0.833008 20.834 -2.5 30.501s-3.83398 19.167 -6.50098 28.5l-49 147h-370l-43 -131c-7.33301 -20 -12.333 -35.667 -15 -47
s-4 -21.666 -4 -30.999c0 -12 8.33301 -21.333 25 -28s40.334 -10 71.001 -10h68v-195h-614v195h51c34.667 0 63.834 11 87.501 33s44.167 58 61.5 108l361 1038h497l322 -1034c22 -68 42 -109.167 60 -123.5s47 -21.5 87 -21.5h72v-195h-834z" />
    <glyph glyph-name="B" unicode="B" horiz-adv-x="1532" 
d="M33 0l0.00292969 194.999h69c45.333 0 75.166 5.33301 89.499 16s21.5 41.334 21.5 92.001v10v750c0 53.333 -6.66699 86.166 -20 98.499s-44.333 18.5 -93 18.5h-67v194h827c179.333 0 310.833 -26 394.5 -78s125.5 -133.667 125.5 -245
c0 -76 -24.333 -141.667 -73 -197s-119 -97.666 -211 -126.999c119.333 -26 208.166 -67.667 266.499 -125s87.5 -132.333 87.5 -225c0 -134.667 -46.833 -231.167 -140.5 -289.5s-250.834 -87.5 -471.501 -87.5h-805zM666.003 192.999l88 -0.000976562
c83.333 0 143 17.333 179 52s54 91.667 54 171c0 72.667 -19 126.334 -57 161.001s-97.333 52 -178 52h-86v-436zM666.003 808.998h75c72.667 0 125.667 15.167 159 45.5s50 77.833 50 142.5c0 64 -15.5 109.833 -46.5 137.5s-82.833 41.5 -155.5 41.5h-82v-367z" />
    <glyph glyph-name="C" unicode="C" horiz-adv-x="1518" 
d="M1450 532c-5.33301 -184 -63.499 -325.499 -174.499 -424.499s-267.833 -148.5 -470.5 -148.5c-237.333 0 -419.833 62.833 -547.5 188.5s-191.5 305.167 -191.5 538.5c0 220.667 66.167 397.334 198.5 530.001s309.166 199 530.499 199
c74 0 143.167 -7.83301 207.5 -23.5s125.5 -39.834 183.5 -72.501l35 76h223v-566h-246c-24 132 -60.667 227.833 -110 287.5s-115.666 89.5 -198.999 89.5c-96.667 0 -167 -40.833 -211 -122.5s-66 -212.834 -66 -393.501c0 -186.667 22.667 -321 68 -403
s119 -123 221 -123c92.667 0 168.667 33.167 228 99.5s92.666 155.833 99.999 268.5h221z" />
    <glyph glyph-name="D" unicode="D" horiz-adv-x="1657" 
d="M780 1374c274.667 0 478.501 -56.333 611.501 -169s199.5 -285 199.5 -517c0 -232.667 -66.667 -405.5 -200 -518.5s-337 -169.5 -611 -169.5h-747v195h69c45.333 0 75.166 5.33301 89.499 16s21.5 41.334 21.5 92.001v10v750c0 53.333 -6.66699 86.166 -20 98.499
s-44.333 18.5 -93 18.5h-67v194h747zM672.001 201h108c99.333 0 170.666 37.333 213.999 112s65 199.667 65 375s-21.667 300.5 -65 375.5s-114.666 112.5 -213.999 112.5h-108v-975z" />
    <glyph glyph-name="E" unicode="E" horiz-adv-x="1595" 
d="M1475 1374l0.000976562 -511.999h-218c-14 66.667 -28.833 118.667 -44.5 156s-34.834 67.333 -57.501 90c-26 26 -57.667 44.5 -95 55.5s-97.666 16.5 -180.999 16.5h-41h-176v-377h53c62 0 105.5 15 130.5 45s37.5 83.333 37.5 160v12h172v-627h-172
c-2.66699 96 -15.167 158.333 -37.5 187s-65.166 43 -128.499 43h-55v-428h243c94 0 158.833 5.66699 194.5 17s63.167 30.666 82.5 57.999c21.333 32.667 38.166 72.5 50.499 119.5s20.5 106.167 24.5 177.5h226v-567h-1450v195h69c45.333 0 75.166 5.33301 89.499 16
s21.5 41.334 21.5 92.001v10v750c0 53.333 -6.66699 86.166 -20 98.499s-44.333 18.5 -93 18.5h-67v194h1442z" />
    <glyph glyph-name="F" unicode="F" horiz-adv-x="1479" 
d="M1430 1374l-0.000976562 -563h-223c-4 67.333 -11.167 122.5 -21.5 165.5s-25.166 79.167 -44.499 108.5c-23.333 34.667 -53.5 59.167 -90.5 73.5s-107.833 21.5 -212.5 21.5h-176v-377h53c62 0 105.5 15 130.5 45s37.5 83.333 37.5 160v12h172v-627h-172
c-2.66699 96 -15.167 158.333 -37.5 187s-65.166 43 -128.499 43h-55v-310c0 -56.667 7.16699 -90.5 21.5 -101.5s44.5 -16.5 90.5 -16.5h76v-195h-817v195h69c45.333 0 75.166 5.33301 89.499 16s21.5 41.334 21.5 92.001v10v750c0 53.333 -6.66699 86.166 -20 98.499
s-44.333 18.5 -93 18.5h-67v194h1397z" />
    <glyph glyph-name="G" unicode="G" horiz-adv-x="1686" 
d="M856 537v194h760v-194h-49c-47.333 0 -78 -5.66699 -92 -17s-21 -44.666 -21 -99.999v-434h-250l-45 84c-68 -38.667 -136 -67.5 -204 -86.5s-135.667 -28.5 -203 -28.5c-212.667 0 -380.167 65 -502.5 195s-183.5 308.667 -183.5 536c0 219.333 65.667 396 197 530
s305 201 521 201c74.667 0 142.167 -8 202.5 -24s115.833 -40.667 166.5 -74l33 76h219v-566h-240c-22.667 132 -58 227.833 -106 287.5s-113 89.5 -195 89.5c-93.333 0 -161 -40.5 -203 -121.5s-63 -212.5 -63 -394.5c0 -184 21 -317 63 -399s109 -123 201 -123
c60 0 100.667 9.16699 122 27.5s32 58.166 32 119.499v105c0 52 -6.83301 84.5 -20.5 97.5s-45.167 19.5 -94.5 19.5h-45z" />
    <glyph glyph-name="H" unicode="H" horiz-adv-x="1726" 
d="M795 1374v-194.001h-23c-41.333 0 -68.333 -6.5 -81 -19.5s-19 -45.5 -19 -97.5v-248h381v248c0 52 -6.5 84.5 -19.5 97.5s-40.167 19.5 -81.5 19.5h-22v194h762v-194h-70c-48 0 -78.833 -6.16699 -92.5 -18.5s-20.5 -45.166 -20.5 -98.499v-750
c0 -53.333 6.83301 -86.333 20.5 -99s44.5 -19 92.5 -19h70v-195h-762v195h22c40.667 0 67.667 6.66699 81 20s20 46 20 98v308h-381v-308c0 -52 6.5 -84.667 19.5 -98s39.833 -20 80.5 -20h23v-195h-762v195h69c46 0 76.333 5.5 91 16.5s22 44.833 22 101.5v750
c0 54 -6.66699 87 -20 99s-44.333 18 -93 18h-69v194h762z" />
    <glyph glyph-name="I" unicode="I" horiz-adv-x="899" 
d="M858 1374l0.000976562 -194h-67c-49.333 0 -80.833 -6.5 -94.5 -19.5s-20.5 -45.5 -20.5 -97.5v-750c0 -52.667 7 -85.5 21 -98.5s45.333 -19.5 94 -19.5h67v-195h-817v195h68c48 0 79 6.5 93 19.5s21 45.833 21 98.5v750c0 52 -6.83301 84.5 -20.5 97.5
s-44.834 19.5 -93.501 19.5h-68v194h817z" />
    <glyph glyph-name="J" unicode="J" horiz-adv-x="1309" 
d="M645 1063c0 53.333 -6.66406 86.167 -19.9971 98.5s-44.333 18.5 -93 18.5h-77v194h821v-194h-64c-45.333 0 -75 -5.33301 -89 -16s-21 -41 -21 -91v-10v-602c0 -101.333 -9 -179 -27 -233s-48 -100 -90 -138c-48 -44 -107.833 -76.833 -179.5 -98.5
s-155.834 -32.5 -252.501 -32.5c-152 0 -275.333 36.333 -370 109s-142 166 -142 280c0 86.667 25.333 156.834 76 210.501s116.667 80.5 198 80.5c60.667 0 108.667 -17.167 144 -51.5s53 -80.5 53 -138.5c0 -54.667 -16 -98.834 -48 -132.501s-74 -50.5 -126 -50.5
c-8.66699 0 -17.667 0.5 -27 1.5s-19.333 2.5 -30 4.5c16.667 -33.333 38.667 -58.333 66 -75s59.666 -25 96.999 -25c75.333 0 127.666 20.5 156.999 61.5s44 123.5 44 247.5v582z" />
    <glyph glyph-name="K" unicode="K" horiz-adv-x="1745" 
d="M784 1374l-0.000976562 -193.996h-12c-44 0 -73 -5.66699 -87 -17s-21 -44.666 -21 -99.999v-340l443 366c11.333 9.33301 19.833 18.666 25.5 27.999s8.5 18.666 8.5 27.999c0 12 -6.5 20.833 -19.5 26.5s-33.167 8.5 -60.5 8.5h-115v194h766v-194h-70
c-24 0 -52.667 -8.66699 -86 -26s-69.333 -42.333 -108 -75l-277 -237l371 -555c22 -33.333 44.333 -57 67 -71s49.667 -21 81 -21h84v-195h-850v195h65c34.667 0 59.334 3 74.001 9s22 15.667 22 29c0 9.33301 -1.33301 18.166 -4 26.499s-6.66699 16.166 -12 23.499
l-201 305l-206 -160v-115c0 -52.667 6.83301 -85.5 20.5 -98.5s43.5 -19.5 89.5 -19.5h45v-195h-784v195h69c48 0 78.833 6.33301 92.5 19s20.5 45.667 20.5 99v750c0 53.333 -6.66699 86.166 -20 98.499s-44.333 18.5 -93 18.5h-69v194h751z" />
    <glyph glyph-name="L" unicode="L" horiz-adv-x="1413" 
d="M860 1374v-193.999h-78c-45.333 0 -75 -5.33301 -89 -16s-21 -41 -21 -91v-10v-864h92c85.333 0 145.5 4.5 180.5 13.5s62.833 24.833 83.5 47.5c26 28 45.667 66 59 114s22.333 114.333 27 199h213v-573h-1294v195h69c48 0 78.833 6.33301 92.5 19s20.5 45.667 20.5 99
v750c0 53.333 -6.66699 86.166 -20 98.499s-44.333 18.5 -93 18.5h-69v194h827z" />
    <glyph glyph-name="M" unicode="M" horiz-adv-x="2118" 
d="M2083 1374v-193.998h-68c-47.333 0 -77.833 -5.83301 -91.5 -17.5s-20.5 -44.834 -20.5 -99.501v-750c0 -55.333 7 -88.833 21 -100.5s44.333 -17.5 91 -17.5h68v-195h-754v195h51c46 0 76.333 5.5 91 16.5s22 44.833 22 101.5v836l-352 -1149h-322l-334 1147v-834
c0 -53.333 6.83301 -86.333 20.5 -99s44.5 -19 92.5 -19h51v-195h-616v195h63c48 0 78.833 6.33301 92.5 19s20.5 45.667 20.5 99v750c0 53.333 -6.66699 86.166 -20 98.499s-44.333 18.5 -93 18.5h-63v194h770l233 -819l252 819h795z" />
    <glyph glyph-name="N" unicode="N" horiz-adv-x="1667" 
d="M713 1374l506 -925v614c0 55.333 -7.16699 88.666 -21.5 99.999s-44.833 17 -91.5 17h-78v194h604v-194h-49c-48 0 -78.833 -6.16699 -92.5 -18.5s-20.5 -45.166 -20.5 -98.499v-1063h-471l-534 985v-672c0 -53.333 6.83301 -86.333 20.5 -99s44.5 -19 92.5 -19h61v-195
h-606v195h67c48.667 0 80 6.5 94 19.5s21 45.833 21 98.5v750c0 52 -6.83301 84.5 -20.5 97.5s-45.167 19.5 -94.5 19.5h-67v194h680z" />
    <glyph glyph-name="O" unicode="O" horiz-adv-x="1726" 
d="M864 1206c-92.667 0 -160.167 -40.832 -202.5 -122.499s-63.5 -212.834 -63.5 -393.501c0 -184 21 -317 63 -399s109 -123 201 -123c93.333 0 161 40.667 203 122s63 212.666 63 393.999c0 182.667 -21 315.334 -63 398.001s-109 124 -201 124zM66 686.001
c0 227.333 70.668 405.666 212.001 534.999s336.666 194 585.999 194c248 0 442.5 -64.667 583.5 -194s211.5 -307.666 211.5 -534.999s-70.667 -405.333 -212 -534s-337 -193 -587 -193c-247.333 0 -441.5 64.667 -582.5 194s-211.5 307 -211.5 533z" />
    <glyph glyph-name="P" unicode="P" horiz-adv-x="1538" 
d="M672 778h89.999c94.667 0 161.667 15.5 201 46.5s59 83.167 59 156.5c0 69.333 -18.667 118.333 -56 147s-102.666 43 -195.999 43h-98v-393zM933.999 1374c192.667 0 334 -30.999 424 -92.999s135 -158.667 135 -290c0 -132 -44.833 -228.833 -134.5 -290.5
s-231.167 -92.5 -424.5 -92.5h-264v-295c0 -53.333 6.83301 -86.333 20.5 -99s44.167 -19 91.5 -19h78v-195h-827v195h69c48 0 78.833 6.33301 92.5 19s20.5 45.667 20.5 99v750c0 53.333 -6.66699 86.166 -20 98.499s-44.333 18.5 -93 18.5h-69v194h901z" />
    <glyph glyph-name="Q" unicode="Q" horiz-adv-x="1778" 
d="M1479 186c21.333 -16.667 40.502 -29 57.502 -37s33.167 -12 48.5 -12c29.333 0 50.666 12.667 63.999 38s20 65.333 20 120v12h151c-2.66699 -148.667 -31.5 -260.167 -86.5 -334.5s-135.833 -111.5 -242.5 -111.5c-60 0 -115.667 12.833 -167 38.5
s-101.333 65.167 -150 118.5c-56.667 -20 -113.334 -34.833 -170.001 -44.5s-115 -14.5 -175 -14.5c-231.333 0 -416.333 66 -555 198s-208 308.333 -208 529c0 227.333 70.667 405.666 212 534.999s336.666 194 585.999 194c248 0 442.5 -64.667 583.5 -194
s211.5 -307.666 211.5 -534.999c0 -107.333 -14.667 -201.5 -44 -282.5s-74.666 -153.5 -135.999 -217.5zM608.002 461c14.667 64.667 41.5 113.168 80.5 145.501s90.167 48.5 153.5 48.5c51.333 0 101.833 -13.833 151.5 -41.5s100.167 -70.5 151.5 -128.5
c1.33301 20.667 2.33301 43 3 67s1 61.333 1 112c0 193.333 -21.333 332 -64 416s-112 126 -208 126c-99.333 0 -172.333 -38.167 -219 -114.5s-70 -196.5 -70 -360.5c0 -30 1.5 -65.833 4.5 -107.5s8.16699 -95.834 15.5 -162.501zM1059 199.001
c-43.333 58 -86.499 102.168 -129.499 132.501s-83.833 45.5 -122.5 45.5c-32 0 -58.167 -10.333 -78.5 -31s-30.5 -47.334 -30.5 -80.001c0 -40.667 14.667 -73 44 -97s68.666 -36 117.999 -36c33.333 0 66.5 5.5 99.5 16.5s66.167 27.5 99.5 49.5z" />
    <glyph glyph-name="R" unicode="R" horiz-adv-x="1677" 
d="M215 313l0.00292969 750.002c0 53.333 -6.66699 86.166 -20 98.499s-44.333 18.5 -93 18.5h-69v194h946c167.333 0 292.166 -28.333 374.499 -85s123.5 -142.334 123.5 -257.001c0 -77.333 -25.333 -142.333 -76 -195s-122.334 -88.667 -215.001 -108
c93.333 -11.333 156.5 -39.833 189.5 -85.5s49.5 -150.167 49.5 -313.5c0 -49.333 4.16699 -83.5 12.5 -102.5s22.166 -28.5 41.499 -28.5c18.667 0 32.5 11.667 41.5 35s13.5 58.666 13.5 105.999c0 4.66699 -0.333008 12.334 -1 23.001s-1 18.667 -1 24h139
c0 -6 0.333008 -15.167 1 -27.5s1 -21.5 1 -27.5c0 -128 -26.333 -220.833 -79 -278.5s-137.667 -86.5 -255 -86.5c-124.667 0 -215.5 26 -272.5 78s-85.5 134.667 -85.5 248v115c0 92 -12.167 150.5 -36.5 175.5s-74.833 37.5 -151.5 37.5h-123v-308
c0 -53.333 6.83301 -86.333 20.5 -99s44.167 -19 91.5 -19h78v-195h-827v195h69c48 0 78.833 6.33301 92.5 19s20.5 45.667 20.5 99zM666.003 807.002h120c84.667 0 144.167 13.5 178.5 40.5s51.5 72.167 51.5 135.5c0 69.333 -15.833 118 -47.5 146s-87.5 42 -167.5 42
h-135v-364z" />
    <glyph glyph-name="S" unicode="S" horiz-adv-x="1442" 
d="M109 506l197.998 0.00195312c32.667 -106 86.834 -188.833 162.501 -248.5s164.834 -89.5 267.501 -89.5c62 0 111.667 13.167 149 39.5s56 60.833 56 103.5c0 66 -81 121.333 -243 166c-52.667 14 -94 25.667 -124 35c-97.333 29.333 -172.333 54.333 -225 75
s-90.667 40 -114 58c-55.333 41.333 -96.166 87.166 -122.499 137.499s-39.5 107.5 -39.5 171.5c0 138 51.167 249.333 153.5 334s237.5 127 405.5 127c85.333 0 165 -8.33301 239 -25s145.667 -42.334 215 -77.001l37 69h197v-477h-231
c-22.667 97.333 -65.334 169.833 -128.001 217.5s-146.334 71.5 -251.001 71.5c-61.333 0 -111.833 -14 -151.5 -42s-59.5 -62.333 -59.5 -103c0 -61.333 76 -107.666 228 -138.999l87 -19c212 -48.667 360.667 -109.167 446 -181.5s128 -170.833 128 -295.5
c0 -138.667 -52.5 -249.167 -157.5 -331.5s-246.5 -123.5 -424.5 -123.5c-81.333 0 -159.666 9.16699 -234.999 27.5s-150 46.166 -224 83.499l-51 -76h-188v512z" />
    <glyph glyph-name="T" unicode="T" horiz-adv-x="1526" 
d="M475 1159c-75.333 0 -133 -25.5 -173 -76.5s-60 -125.167 -60 -222.5v-6h-203v520h1446v-520h-201v6c0 96.667 -20.167 170.667 -60.5 222s-98.5 77 -174.5 77h-60v-846c0 -52.667 7 -85.5 21 -98.5s45.333 -19.5 94 -19.5h115v-195h-904v195h107
c46 0 76.333 5.5 91 16.5s22 44.833 22 101.5v846h-60z" />
    <glyph glyph-name="U" unicode="U" horiz-adv-x="1602" 
d="M649 457c0 -106 16.5 -180.333 49.5 -223s88.833 -64 167.5 -64c93.333 0 160.333 21 201 63s61 111 61 207v623c0 54 -6.66699 87 -20 99s-44 18 -92 18h-70v194h637v-194h-63c-48 0 -78.833 -6.16699 -92.5 -18.5s-20.5 -43.166 -20.5 -92.499v-663
c0 -146.667 -53 -258.167 -159 -334.5s-261.333 -114.5 -466 -114.5c-186 0 -330 37.667 -432 113s-153 181.666 -153 318.999v674c0 52 -7 84.5 -21 97.5s-45.333 19.5 -94 19.5h-70v194h828v-194h-76c-49.333 0 -80.833 -6.5 -94.5 -19.5s-20.5 -45.5 -20.5 -97.5v-606z
" />
    <glyph glyph-name="V" unicode="V" horiz-adv-x="1473" 
d="M180 1012c-18.667 58 -41.498 100.502 -68.498 127.502s-60.833 40.5 -101.5 40.5h-65v194h823v-194h-76c-39.333 0 -65.833 -3.83301 -79.5 -11.5s-20.5 -21.167 -20.5 -40.5c0 -14.667 2 -31.667 6 -51v-2l217 -702l228 705c3.33301 11.333 5.83301 21.166 7.5 29.499
s2.5 15.166 2.5 20.499c0 20 -6.83301 33.667 -20.5 41s-41.167 11 -82.5 11h-69v194h639v-194h-50c-42.667 0 -75.334 -9.16699 -98.001 -27.5s-42.334 -53.5 -59.001 -105.5l-346 -1047h-469z" />
    <glyph glyph-name="W" unicode="W" horiz-adv-x="2036" 
d="M633 1374v-193.998c-31.333 0 -53.5 -4 -66.5 -12s-19.5 -21.333 -19.5 -40c0 -9.33301 0.666992 -18.5 2 -27.5s3.33301 -17.5 6 -25.5l195 -696l159 649c-10 59.333 -26.667 99.166 -50 119.499s-63.333 31.166 -120 32.499v194h678v-194h-45
c-40.667 0 -67.834 -3.83301 -81.501 -11.5s-20.5 -21.167 -20.5 -40.5c0 -7.33301 0.5 -14.833 1.5 -22.5s3.16699 -17.834 6.5 -30.501l170 -696l176 698c2.66699 10 4.66699 19.333 6 28s2 16.334 2 23.001c0 20 -7.16699 33.667 -21.5 41s-45.166 11 -92.499 11v194h524
v-194c-43.333 0 -76.333 -9.83301 -99 -29.5s-41 -54.167 -55 -103.5l-286 -1047h-437l-135 559l-139 -559h-440l-283 1010c-17.333 60 -39.333 103 -66 129s-62 39.667 -106 41v194h637z" />
    <glyph glyph-name="X" unicode="X" horiz-adv-x="1518" 
d="M176 1092c-30 36.667 -53.8359 60.502 -71.5029 71.502s-37.5 16.5 -59.5 16.5h-47v194h770v-194h-35c-19.333 0 -34.333 -3.66699 -45 -11s-16 -17.333 -16 -30c0 -8 3 -17.833 9 -29.5s15.333 -25.834 28 -42.501l104 -143l164 188
c6.66699 7.33301 11.334 13.666 14.001 18.999s4 10 4 14c0 10.667 -5.66699 19.167 -17 25.5s-27.333 9.5 -48 9.5h-60v194h629v-194h-39c-32 0 -60.167 -5.16699 -84.5 -15.5s-45.166 -25.833 -62.499 -46.5l-307 -358l348 -486c18.667 -25.333 40 -44.833 64 -58.5
s49 -20.5 75 -20.5h55v-195h-782v195h43c20 0 35.167 3.33301 45.5 10s15.5 17 15.5 31c0 6.66699 -2.83301 15.5 -8.5 26.5s-15.167 26.167 -28.5 45.5l-122 167l-180 -212c-5.33301 -6.66699 -9.5 -13 -12.5 -19s-4.5 -11 -4.5 -15c0 -10.667 5.83301 -19 17.5 -25
s27.834 -9 48.501 -9h75v-195h-684v195h68c36 0 67.5 6.83301 94.5 20.5s59.5 43.5 97.5 89.5l289 344z" />
    <glyph glyph-name="Y" unicode="Y" horiz-adv-x="1413" 
d="M178 1051c-26.667 44 -55.333 76.502 -86 97.502s-64.667 31.5 -102 31.5h-39v194h801v-194h-47c-32 0 -55.5 -4 -70.5 -12s-22.5 -20.667 -22.5 -38c0 -7.33301 1.5 -15 4.5 -23s8.5 -18.667 16.5 -32l162 -264l162 267c6 9.33301 10.833 20.166 14.5 32.499
s5.5 23.833 5.5 34.5s-7.5 19.167 -22.5 25.5s-35.5 9.5 -61.5 9.5h-51v194h616v-194h-43c-31.333 0 -59.5 -9.33301 -84.5 -28s-54.833 -55.334 -89.5 -110.001l-307 -491v-238c0 -52.667 7 -85.5 21 -98.5s45.333 -19.5 94 -19.5h75v-195h-835v195h78
c45.333 0 75.333 5.5 90 16.5s22 44.833 22 101.5v238z" />
    <glyph glyph-name="Z" unicode="Z" horiz-adv-x="1384" 
d="M35 0l-0.000976562 195.001l762 985h-183c-110.667 0 -187.667 -22.333 -231 -67s-69.333 -128.334 -78 -251.001h-235v512h1259v-194l-758 -985h187c118.667 0 200.834 25.167 246.501 75.5s72.5 143.833 80.5 280.5h244v-551h-1294z" />
    <glyph glyph-name="bracketleft" unicode="[" horiz-adv-x="883" 
d="M848 -375h-608v1749h608v-200h-225v-1342h225v-207z" />
    <glyph glyph-name="backslash" unicode="\" horiz-adv-x="592" 
d="M506 -190l-529 1605h189l526 -1605h-186z" />
    <glyph glyph-name="bracketright" unicode="]" horiz-adv-x="883" 
d="M31 -375v207h225v1342h-225v200h608v-1749h-608z" />
    <glyph glyph-name="asciicircum" unicode="^" horiz-adv-x="2048" 
d="M879 1462h288l465 -565h-131l-479 315l-477 -315h-133z" />
    <glyph glyph-name="underscore" unicode="_" 
d="M0 -201h1024v-282h-1024v282z" />
    <glyph glyph-name="grave" unicode="`" 
d="M737 1102h-121.002l-346 172c-39.333 19.333 -67.166 38.833 -83.499 58.5s-24.5 42.5 -24.5 68.5c0 32.667 10.833 60 32.5 82s48.834 33 81.501 33c26 0 51.5 -7.5 76.5 -22.5s54.833 -41.167 89.5 -78.5z" />
    <glyph glyph-name="a" unicode="a" horiz-adv-x="1300" 
d="M662 449c-24 -13.333 -56 -29.667 -96 -49c-90.667 -44 -136 -86 -136 -126c0 -28 10 -51 30 -69s45.667 -27 77 -27c38.667 0 69.5 12.5 92.5 37.5s34.5 58.833 34.5 101.5v7zM705 101.999c-35.333 -44 -83.332 -77.832 -143.999 -101.499
s-130.334 -35.5 -209.001 -35.5c-102 0 -180.667 23.667 -236 71s-83 114.666 -83 201.999c0 85.333 24.667 149.333 74 192s144 76 284 100c116.667 20 190.167 42 220.5 66s45.5 61 45.5 111c0 49.333 -17 88.5 -51 117.5s-80.333 43.5 -139 43.5
c-19.333 0 -39 -2.83301 -59 -8.5s-40.667 -14.167 -62 -25.5c36 -10.667 62.833 -26.834 80.5 -48.501s26.5 -49.5 26.5 -83.5c0 -42 -16.333 -76 -49 -102s-76 -39 -130 -39c-64 0 -113.333 15 -148 45s-52 72.333 -52 127c0 84 43.333 149.667 130 197s207.667 71 363 71
c85.333 0 161.5 -6.66699 228.5 -20s117.833 -31.666 152.5 -54.999c42 -28 71.333 -61.167 88 -99.5s25 -98.833 25 -181.5v-373c0 -25.333 2.83301 -41.833 8.5 -49.5s16.5 -11.5 32.5 -11.5s27.167 4 33.5 12s9.5 24.333 9.5 49v117h135v-127c0 -106 -24 -182 -72 -228
s-126.333 -69 -235 -69c-61.333 0 -113.833 11.167 -157.5 33.5s-80.5 56.833 -110.5 103.5z" />
    <glyph glyph-name="b" unicode="b" horiz-adv-x="1323" 
d="M143 1098c0 38 -7.16699 63.501 -21.5 76.501s-43.833 19.5 -88.5 19.5h-33v180h547v-516c38 48.667 82.5 85.167 133.5 109.5s108.167 36.5 171.5 36.5c120 0 215.833 -47.333 287.5 -142s107.5 -222.334 107.5 -383.001c0 -168.667 -35 -296.167 -105 -382.5
s-173.667 -129.5 -311 -129.5c-64.667 0 -123.5 13.167 -176.5 39.5s-105.167 68.5 -156.5 126.5l-92 -133h-263v1098zM547 479.001c0 -102 11.168 -178.333 33.501 -229s56.166 -76 101.499 -76c44.667 0 78 25.167 100 75.5s33 126.833 33 229.5
c0 105.333 -10.833 182.833 -32.5 232.5s-55.167 74.5 -100.5 74.5c-46 0 -80 -25 -102 -75s-33 -127.333 -33 -232z" />
    <glyph glyph-name="c" unicode="c" horiz-adv-x="1087" 
d="M1034 336c-4 -121.333 -44.3291 -214.166 -120.996 -278.499s-185 -96.5 -325 -96.5c-166 0 -298 47.333 -396 142s-147 221.334 -147 380.001c0 160.667 49.667 287.667 149 381s234.666 140 405.999 140c132.667 0 238.5 -30.333 317.5 -91
s118.5 -140.334 118.5 -239.001c0 -66 -19 -117 -57 -153s-92 -54 -162 -54c-56.667 0 -101.5 14.333 -134.5 43s-49.5 67.667 -49.5 117c0 41.333 11.5 74.666 34.5 99.999s54.5 39 94.5 41c-10.667 17.333 -23.834 29.833 -39.501 37.5s-35.834 11.5 -60.501 11.5
c-65.333 0 -111.5 -24.333 -138.5 -73s-40.5 -135.667 -40.5 -261c0 -118.667 12.5 -203.167 37.5 -253.5s65.833 -75.5 122.5 -75.5c44 0 78.667 16 104 48s38.666 76.667 39.999 134h247z" />
    <glyph glyph-name="d" unicode="d" horiz-adv-x="1323" 
d="M748 1097c-1.33301 39.333 -9.66504 65.667 -24.998 79s-45.333 20 -90 20c-4.66699 0 -12.834 -0.333008 -24.501 -1s-20.5 -1 -26.5 -1v180h569v-1098c1.33301 -40.667 7.66602 -66.834 18.999 -78.501s35 -17.5 71 -17.5h49v-180h-516v133
c-48.667 -58 -98 -100.167 -148 -126.5s-106.333 -39.5 -169 -39.5c-135.333 0 -237.833 43.167 -307.5 129.5s-104.5 213.833 -104.5 382.5c0 160.667 35.833 288.334 107.5 383.001s167.5 142 287.5 142c63.333 0 120 -12 170 -36s96 -60.667 138 -110v239z
M745.001 479.001c0 106.667 -10.8311 184.5 -32.498 233.5s-55.834 73.5 -102.501 73.5c-45.333 0 -78.833 -24.833 -100.5 -74.5s-32.5 -127.167 -32.5 -232.5c0 -102.667 11 -179.167 33 -229.5s55.333 -75.5 100 -75.5c45.333 0 79.166 25.333 101.499 76
s33.5 127 33.5 229z" />
    <glyph glyph-name="e" unicode="e" horiz-adv-x="1163" 
d="M1108 336c-23.333 -125.333 -77.332 -218.833 -161.999 -280.5s-201.334 -92.5 -350.001 -92.5c-170 0 -304.333 46.667 -403 140s-148 220 -148 380c0 158.667 49.5 285.167 148.5 379.5s231.833 141.5 398.5 141.5c164.667 0 291.167 -46.833 379.5 -140.5
s132.5 -227.834 132.5 -402.501v-35h-643v-20c0 -81.333 17 -143.666 51 -186.999s82.333 -65 145 -65c53.333 0 97 15.667 131 47s56.667 76.333 68 135h252zM461.001 606h297.001v15c0 64 -13 113.333 -39 148s-63 52 -111 52c-46.667 0 -82.834 -18.667 -108.501 -56
s-38.5 -90.333 -38.5 -159z" />
    <glyph glyph-name="f" unicode="f" horiz-adv-x="825" 
d="M186 780l-142.998 0.000976562v187h143v55c0 137.333 36 236.5 108 297.5s187.667 91.5 347 91.5c110.667 0 199.167 -21.5 265.5 -64.5s99.5 -99.833 99.5 -170.5c0 -46 -16.5 -83.833 -49.5 -113.5s-75.5 -44.5 -127.5 -44.5c-46 0 -83.667 12.333 -113 37
s-44 56 -44 94c0 24.667 6.16699 46.667 18.5 66s30.5 36.333 54.5 51c-12 3.33301 -22.167 5.83301 -30.5 7.5s-15.833 2.5 -22.5 2.5c-36.667 0 -62.834 -13 -78.501 -39s-23.5 -72.333 -23.5 -139v-131h178v-187h-178v-501c0 -40.667 6.16699 -67.334 18.5 -80.001
s38.166 -19 77.499 -19h86v-180h-729v180h49c38.667 0 64 6 76 18s18 38 18 78v504z" />
    <glyph glyph-name="g" unicode="g" horiz-adv-x="1270" 
d="M305 -215c0 -26.667 23.001 -45.998 69.001 -57.998s120 -18 222 -18c99.333 0 170.5 6.16699 213.5 18.5s64.5 32.166 64.5 59.499c0 25.333 -19.833 43.333 -59.5 54s-111.834 16 -216.501 16c-113.333 0 -190.5 -5.33301 -231.5 -16s-61.5 -29.334 -61.5 -56.001z
M535.001 356.002c30.667 0 53 20 67 60s21 106 21 198c0 87.333 -6.83301 149.833 -20.5 187.5s-35.5 56.5 -65.5 56.5c-36 0 -61.5 -19.333 -76.5 -58s-22.5 -106 -22.5 -202c0 -85.333 7.66699 -147 23 -185s40 -57 74 -57zM176.001 344.002
c-38.667 32.667 -67.8301 71.3301 -87.4971 115.997s-29.5 94.667 -29.5 150c0 123.333 43.167 219 129.5 287s207.833 102 364.5 102c50.667 0 100 -5.66699 148 -17s100.333 -30 157 -56c34 25.333 68.5 43.833 103.5 55.5s72.833 17.5 113.5 17.5
c75.333 0 136.5 -18.333 183.5 -55s70.5 -85 70.5 -145c0 -44 -13 -79.667 -39 -107s-60 -41 -102 -41c-45.333 0 -82.666 10.833 -111.999 32.5s-44 49.167 -44 82.5c0 20 5 39 15 57s25.667 35 47 51c-11.333 9.33301 -21.333 15.833 -30 19.5s-17.334 5.5 -26.001 5.5
c-16 0 -33.667 -4.33301 -53 -13s-40.333 -22 -63 -40c27.333 -30.667 47.833 -66.167 61.5 -106.5s20.5 -86.833 20.5 -139.5c0 -115.333 -45.167 -208.666 -135.5 -279.999s-209.166 -107 -356.499 -107c-30.667 0 -61.834 2.5 -93.501 7.5s-63.834 12.833 -96.501 23.5
c-12 -6 -21.5 -13.5 -28.5 -22.5s-10.5 -17.833 -10.5 -26.5c0 -20.667 7.66699 -34.834 23 -42.501s52.666 -11.5 111.999 -11.5c50.667 0 117.167 1 199.5 3s139.166 3 170.499 3c131.333 0 226.666 -21 285.999 -63s89 -109 89 -201
c0 -108 -49.167 -188.833 -147.5 -242.5s-247.166 -80.5 -446.499 -80.5c-197.333 0 -342.5 18.333 -435.5 55s-139.5 94 -139.5 172c0 34.667 11.333 65.834 34 93.501s54.334 49.167 95.001 64.5c-36.667 26.667 -64.334 55.834 -83.001 87.501s-28 65.834 -28 102.501
c0 46.667 14.167 88.167 42.5 124.5s68.833 64.5 121.5 84.5z" />
    <glyph glyph-name="h" unicode="h" horiz-adv-x="1405" 
d="M1253 276c0 -39.333 6.33496 -65.1641 19.002 -77.4971s38.667 -18.5 78 -18.5h24v-180h-631v180h23c34 0 56.5 6 67.5 18s16.5 38 16.5 78v349c0 56 -10.833 97.667 -32.5 125s-54.5 41 -98.5 41c-47.333 0 -84.833 -17.833 -112.5 -53.5s-41.5 -83.5 -41.5 -143.5v-318
c0 -38.667 6 -64.334 18 -77.001s35.333 -19 70 -19h21v-180h-641v180h35c38.667 0 64.334 6.16699 77.001 18.5s19 38.166 19 77.499v822c0 39.333 -6.33301 65.166 -19 77.499s-38.334 18.5 -77.001 18.5h-35v180h532v-553c45.333 60 96.166 103.667 152.499 131
s122.166 41 197.499 41c123.333 0 210.5 -26.667 261.5 -80s76.5 -146 76.5 -278v-359z" />
    <glyph glyph-name="i" unicode="i" horiz-adv-x="750" 
d="M172 1229c0 52 17.833 95.999 53.5 131.999s79.167 54 130.5 54s95 -18.167 131 -54.5s54 -80.166 54 -131.499s-18 -95 -54 -131s-79.667 -54 -131 -54c-52 0 -95.667 17.667 -131 53s-53 79.333 -53 132zM586 275.999c0 -39.333 6.16797 -65.166 18.501 -77.499
s38.166 -18.5 77.499 -18.5h35v-180h-672v180h41c39.333 0 65.166 6.16699 77.499 18.5s18.5 38.166 18.5 77.499v414c0 40 -6.16699 66 -18.5 78s-38.166 18 -77.499 18h-41v181h541v-691z" />
    <glyph glyph-name="j" unicode="j" horiz-adv-x="725" 
d="M174 1229c0 52 17.833 95.999 53.5 131.999s79.167 54 130.5 54s95 -18.167 131 -54.5s54 -80.166 54 -131.499s-18 -95 -54 -131s-79.667 -54 -131 -54c-52 0 -95.667 17.667 -131 53s-53 79.333 -53 132zM588 -25.001l-0.000976562 -37.999
c0 -75.333 -5 -130.833 -15 -166.5s-26.333 -67.167 -49 -94.5c-34.667 -39.333 -83 -68.833 -145 -88.5s-138.333 -29.5 -229 -29.5c-121.333 0 -213.833 20.167 -277.5 60.5s-95.5 98.5 -95.5 174.5c0 51.333 16.167 92.5 48.5 123.5s75.5 46.5 129.5 46.5
c50 0 89.833 -12.333 119.5 -37s44.5 -57.334 44.5 -98.001c0 -19.333 -4.66699 -37.333 -14 -54s-23 -32 -41 -46c12.667 -6 23.167 -10.333 31.5 -13s15.5 -4 21.5 -4c23.333 0 40.333 7.16699 51 21.5s16 36.5 16 66.5v891c0 40 -6.16699 66 -18.5 78
s-38.166 18 -77.499 18h-49v181h549v-992z" />
    <glyph glyph-name="k" unicode="k" horiz-adv-x="1380" 
d="M170 1098c0 39.333 -6.16699 65.168 -18.5 77.501s-38.166 18.5 -77.499 18.5h-45v180h540v-821l205 162c10 6.66699 17.333 13.5 22 20.5s7 14.5 7 22.5c0 10 -4.33301 17.167 -13 21.5s-24.334 6.5 -47.001 6.5h-22v181h579v-181c-34.667 0 -66 -3.83301 -94 -11.5
s-51.667 -19.5 -71 -35.5l-136 -106l236 -377c16 -26 36 -44.833 60 -56.5s55.667 -18.167 95 -19.5l1 -180h-629v180h4c43.333 2 65 11 65 27c0 8.66699 -2.5 19 -7.5 31s-14.5 29.667 -28.5 53l-82 129l-143 -106c-1.33301 -6.66699 -2.16602 -13 -2.49902 -19
s-0.5 -15 -0.5 -27c0 -32.667 6.5 -55.5 19.5 -68.5s35.833 -19.5 68.5 -19.5h9v-180h-631v180h41c39.333 0 65.166 6.16699 77.499 18.5s18.5 38.166 18.5 77.499v822z" />
    <glyph glyph-name="l" unicode="l" horiz-adv-x="727" 
d="M166 1098c0 39.333 -6.33301 65.168 -19 77.501s-38.334 18.5 -77.001 18.5h-45v180h544v-1098c0 -40 6.16699 -66 18.5 -78s37.833 -18 76.5 -18h32v-180h-671v180h45c38.667 0 64.334 6.16699 77.001 18.5s19 38.166 19 77.499v822z" />
    <glyph glyph-name="m" unicode="m" horiz-adv-x="2001" 
d="M563 846c50.667 53.333 104.667 92.999 162 118.999s120.666 39 189.999 39c64 0 118.333 -10.667 163 -32s81.334 -54 110.001 -98c47.333 42.667 98.5 75 153.5 97s112.167 33 171.5 33c122 0 208.5 -26.833 259.5 -80.5s76.5 -146.5 76.5 -278.5v-369
c0 -39.333 6.33301 -65.166 19 -77.499s38.667 -18.5 78 -18.5h24v-180h-610v180c35.333 1.33301 58.5 7.83301 69.5 19.5s16.5 37.167 16.5 76.5v349c0 58.667 -8.16699 100.5 -24.5 125.5s-43.833 37.5 -82.5 37.5c-44 0 -76.5 -17.833 -97.5 -53.5
s-31.5 -91.5 -31.5 -167.5v-291c0 -40 4.5 -66 13.5 -78s26.5 -18 52.5 -18h22v-180h-575v180h20c26 0 43.5 6.33301 52.5 19s13.5 38.334 13.5 77.001v349c0 58.667 -8.33301 100.5 -25 125.5s-44.667 37.5 -84 37.5c-43.333 0 -75.333 -18 -96 -54s-31 -93 -31 -171v-287
c0 -38 5.83301 -63.5 17.5 -76.5s33.167 -19.5 64.5 -19.5h9v-180h-625v180h35c39.333 0 65.166 6.16699 77.499 18.5s18.5 38.166 18.5 77.499v414c0 40 -6.16699 66 -18.5 78s-38.166 18 -77.499 18h-35v181h524v-121z" />
    <glyph glyph-name="n" unicode="n" horiz-adv-x="1413" 
d="M1262 276c0 -40 6 -65.9971 18 -77.9971s37.333 -18 76 -18h41v-180h-647v180h22c34.667 0 57.667 6.16699 69 18.5s17 38.166 17 77.499v349c0 55.333 -11 96.833 -33 124.5s-55.333 41.5 -100 41.5c-46.667 0 -83.667 -17.667 -111 -53s-41 -83.333 -41 -144v-318
c0 -38.667 6 -64.334 18 -77.001s35.667 -19 71 -19h20v-180h-657v180h49c39.333 0 65.166 6.16699 77.499 18.5s18.5 38.166 18.5 77.499v414c0 40 -6.16699 66 -18.5 78s-38.166 18 -77.499 18h-49v181h538v-150c44 58 96.167 101.833 156.5 131.5
s127.833 44.5 202.5 44.5c123.333 0 210.833 -26.667 262.5 -80s77.5 -146 77.5 -278v-359z" />
    <glyph glyph-name="o" unicode="o" horiz-adv-x="1264" 
d="M629 1004c182 0 325.833 -46.667 431.5 -140s158.5 -220.333 158.5 -381c0 -160 -52.5 -286.333 -157.5 -379s-248.5 -139 -430.5 -139c-183.333 0 -326.833 46 -430.5 138s-155.5 218.667 -155.5 380c0 162 51.833 289.333 155.5 382s246.5 139 428.5 139zM782 483
c0 124.667 -11.499 210.834 -34.499 258.501s-62.5 71.5 -118.5 71.5c-54.667 0 -93.334 -23.833 -116.001 -71.5s-34 -133.834 -34 -258.501s11.5 -210.667 34.5 -258s62.833 -71 119.5 -71c54.667 0 93.167 23.5 115.5 70.5s33.5 133.167 33.5 258.5z" />
    <glyph glyph-name="p" unicode="p" horiz-adv-x="1323" 
d="M575 487c0 -104.667 11.167 -182 33.5 -232s56.5 -75 102.5 -75c45.333 0 78.833 25 100.5 75s32.5 127.333 32.5 232c0 103.333 -11 180.5 -33 231.5s-55.333 76.5 -100 76.5c-45.333 0 -79.333 -25.667 -102 -77s-34 -128.333 -34 -231zM547 834
c49.333 58 99.5 100.001 150.5 126.001s107.833 39 170.5 39c133.333 0 235 -43.667 305 -131s105 -214.333 105 -381c0 -159.333 -36 -286.166 -108 -380.499s-168.333 -141.5 -289 -141.5c-63.333 0 -120.5 12 -171.5 36s-96.5 60 -136.5 108v-273
c0 -38 7.16699 -63.5 21.5 -76.5s42.833 -19.5 85.5 -19.5h29v-180h-676v180h47c37.333 0 62 6.16699 74 18.5s18 38.166 18 77.499v854c0 39.333 -6 65.166 -18 77.499s-36.667 18.5 -74 18.5h-47v181h514v-133z" />
    <glyph glyph-name="q" unicode="q" horiz-adv-x="1323" 
d="M776 834l0.000976562 133h512v-181h-45c-37.333 0 -62 -6.16699 -74 -18.5s-18 -38.166 -18 -77.499v-854c0 -39.333 6 -65.166 18 -77.499s36.667 -18.5 74 -18.5h45v-180h-674v180h29c42 0 70 6.5 84 19.5s21 38.5 21 76.5v273
c-40 -48.667 -85.333 -84.834 -136 -108.501s-107.334 -35.5 -170.001 -35.5c-120.667 0 -217 47.167 -289 141.5s-108 221.166 -108 380.499c0 166.667 35 293.667 105 381s171.667 131 305 131c62.667 0 119.5 -13 170.5 -39s101.167 -68 150.5 -126zM748.001 487
c0 102.667 -11.333 179.667 -34 231s-56.667 77 -102 77c-44.667 0 -78 -25.5 -100 -76.5s-33 -128.167 -33 -231.5c0 -104.667 10.833 -182 32.5 -232s55.167 -75 100.5 -75c46 0 80.167 25 102.5 75s33.5 127.333 33.5 232z" />
    <glyph glyph-name="r" unicode="r" horiz-adv-x="1053" 
d="M563 872c34.667 43.333 73 75.666 115 96.999s87 32 135 32c73.333 0 132 -21.5 176 -64.5s66 -100.5 66 -172.5c0 -62 -17.5 -111.667 -52.5 -149s-81.167 -56 -138.5 -56c-45.333 0 -83.166 14.333 -113.499 43s-45.5 64.334 -45.5 107.001c0 29.333 7.33301 55 22 77
s37 40.667 67 56c-8 2 -15.667 3.5 -23 4.5s-14.333 1.5 -21 1.5c-54.667 0 -97.834 -25.5 -129.501 -76.5s-47.5 -121.167 -47.5 -210.5v-285c0 -39.333 6.33301 -65.166 19 -77.499s38.667 -18.5 78 -18.5h65v-180h-696v180h35c39.333 0 65.166 6.16699 77.499 18.5
s18.5 38.166 18.5 77.499v414c0 40 -6.16699 66 -18.5 78s-38.166 18 -77.499 18h-35v181h524v-95z" />
    <glyph glyph-name="s" unicode="s" horiz-adv-x="1163" 
d="M203 -14l-143.995 0.000976562v354h181c21.333 -62.667 55.166 -109.667 101.499 -141s105.166 -47 176.499 -47c47.333 0 81.666 6.5 102.999 19.5s32 33.5 32 61.5c0 37.333 -53.333 71.666 -160 102.999c-36 10.667 -64.333 19.334 -85 26.001
c-154.667 49.333 -254.834 95.666 -300.501 138.999s-68.5 102.333 -68.5 177c0 99.333 41.167 178.5 123.5 237.5s194.166 88.5 335.499 88.5c63.333 0 124 -6.33301 182 -19s114.667 -31.667 170 -57l29 57h151v-305h-160c-28 48 -65.667 84.833 -113 110.5
s-100.333 38.5 -159 38.5c-40.667 0 -72.667 -6.5 -96 -19.5s-35 -30.833 -35 -53.5c0 -41.333 51 -77.333 153 -108l61 -19l53 -16c110 -34 189 -67 237 -99c34 -22.667 60.167 -53 78.5 -91s27.5 -80.667 27.5 -128c0 -102.667 -40 -183.334 -120 -242.001
s-190 -88 -330 -88c-74.667 0 -145.167 8.33301 -211.5 25s-124.833 40.334 -175.5 71.001z" />
    <glyph glyph-name="t" unicode="t" horiz-adv-x="946" 
d="M147 788l-135.001 -0.00195312v179h8c81.333 0 144.5 29.333 189.5 88s78.167 154.667 99.5 288h242v-376h285v-179h-285v-524c0 -39.333 5.83301 -68.166 17.5 -86.499s29.834 -27.5 54.501 -27.5c30.667 0 52 14.5 64 43.5s18 86.833 18 173.5v90h176v-131
c0 -132.667 -27.833 -227 -83.5 -283s-148.167 -84 -277.5 -84c-70 0 -131.167 10.167 -183.5 30.5s-94.833 50.5 -127.5 90.5c-22 26.667 -37.833 56.834 -47.5 90.501s-14.5 91.5 -14.5 173.5v444z" />
    <glyph glyph-name="u" unicode="u" horiz-adv-x="1413" 
d="M850 141c-44 -58 -96.334 -102.169 -157.001 -132.502s-127.667 -45.5 -201 -45.5c-123.333 0 -210.5 26.667 -261.5 80s-76.5 146.333 -76.5 279v368c0 40 -6.33301 66 -19 78s-38.667 18 -78 18h-32v181h532v-625c0 -56 10.833 -97.667 32.5 -125s54.5 -41 98.5 -41
c46.667 0 83.667 17.667 111 53s41 83.333 41 144v317c0 40.667 -6.16699 66.834 -18.5 78.501s-37.833 17.5 -76.5 17.5h-40v181h538v-691c0 -39.333 6.33301 -65.166 19 -77.499s38.334 -18.5 77.001 -18.5h43v-180h-532v141z" />
    <glyph glyph-name="v" unicode="v" horiz-adv-x="1178" 
d="M823 690c2 6 3.5 11.666 4.5 16.999s1.5 10.666 1.5 15.999c0 20.667 -8 35.834 -24 45.501s-43.333 15.834 -82 18.501v180h473v-181h-8c-40.667 0 -72.334 -8.16699 -95.001 -24.5s-41 -44.166 -55 -83.499l-231 -678h-447l-219 690
c-12 41.333 -24.167 67.666 -36.5 78.999s-31.5 17 -57.5 17h-37v181h631v-181h-29c-30 0 -51.167 -4 -63.5 -12s-18.5 -22.333 -18.5 -43c0 -5.33301 0.833008 -11.5 2.5 -18.5s3.83398 -14.5 6.50098 -22.5l141 -434z" />
    <glyph glyph-name="w" unicode="w" horiz-adv-x="1751" 
d="M745 0l-416.997 -0.000976562l-164 639c-17.333 64.667 -32.5 105.334 -45.5 122.001s-32.833 25 -59.5 25h-47v181h576v-181h-19c-22.667 0 -38.834 -4.16699 -48.501 -12.5s-14.5 -22.5 -14.5 -42.5c0 -6.66699 0.5 -13.5 1.5 -20.5s2.5 -13.833 4.5 -20.5l111 -444
l131 445c2 6.66699 3.5 13 4.5 19s1.5 11 1.5 15c0 18 -6 31.667 -18 41s-33.333 16 -64 20v181h573v-181h-18c-21.333 0 -36.5 -4.16699 -45.5 -12.5s-13.5 -22.5 -13.5 -42.5c0 -6.66699 0.5 -13.5 1.5 -20.5s2.5 -13.833 4.5 -20.5l108 -434l125 434
c1.33301 4.66699 2.33301 9.66699 3 15s1 12 1 20c0 18 -6 31.667 -18 41s-32.667 16 -62 20v181h420v-181c-40.667 0 -71.834 -8 -93.501 -24s-38.834 -44 -51.501 -84l-209 -678h-402l-118 469z" />
    <glyph glyph-name="x" unicode="x" horiz-adv-x="1305" 
d="M1087 276c32 -34.667 62.666 -59.3311 91.999 -73.998s62.333 -22 99 -22h33v-180h-721v172h31c17.333 0 29.5 1.66699 36.5 5s10.5 9.33301 10.5 18c0 4 -2.83301 10.5 -8.5 19.5s-13.167 18.833 -22.5 29.5l-86 96l-107 -102c-5.33301 -6 -9.66602 -12.667 -12.999 -20
s-5 -14.333 -5 -21c0 -8.66699 4 -15 12 -19s21 -6 39 -6h17v-172h-492v180h10c32 0 60.5 4 85.5 12s45.833 19.667 62.5 35l258 246l-197 217c-33.333 37.333 -63.333 62.666 -90 75.999s-57.334 20 -92.001 20h-8v181h655v-170h-12c-12 0 -21.833 -2.33301 -29.5 -7
s-11.5 -10.667 -11.5 -18c0 -4 2.16699 -9.5 6.5 -16.5s12.5 -17.833 24.5 -32.5l63 -78l86 90c6 6 10.5 12 13.5 18s4.5 12.333 4.5 19c0 7.33301 -4.16699 13.333 -12.5 18s-19.833 7 -34.5 7h-8v170h504v-181c-4 0 -9.66699 0.333008 -17 1s-12.666 1 -15.999 1
c-36.667 0 -68 -4.83301 -94 -14.5s-53.333 -27.834 -82 -54.501l-213 -195z" />
    <glyph glyph-name="y" unicode="y" horiz-adv-x="1186" 
d="M821 696c1.33301 4 3.33691 9.67188 6.00391 17.0049c4.66699 11.333 7 18.666 7 21.999c0 18 -8.5 30.667 -25.5 38s-50.167 12 -99.5 14v180h493v-181c-42 0 -74.167 -6.83301 -96.5 -20.5s-42.833 -42.834 -61.5 -87.501l-309 -760
c-48.667 -120.667 -110.334 -210.5 -185.001 -269.5s-163 -88.5 -265 -88.5c-100 0 -179.667 24.5 -239 73.5s-89 114.5 -89 196.5c0 57.333 18.5 104.166 55.5 140.499s84.833 54.5 143.5 54.5c51.333 0 93.166 -13.833 125.499 -41.5s48.5 -63.167 48.5 -106.5
c0 -38.667 -10.833 -70.334 -32.5 -95.001s-53.834 -41.334 -96.501 -50.001c10 -12 21.167 -20.833 33.5 -26.5s26.166 -8.5 41.499 -8.5c40 0 78.833 17.167 116.5 51.5s71.5 83.5 101.5 147.5l-322 735c-1.33301 2.66699 -3.33301 7 -6 13
c-42 94.667 -86.333 142 -133 142h-37v181h631v-181c-40 -0.666992 -64.667 -3.66699 -74 -9s-14 -15 -14 -29c0 -10 3 -22.667 9 -38l5 -12l139 -340z" />
    <glyph glyph-name="z" unicode="z" horiz-adv-x="1059" 
d="M29 0l-0.000976562 199l520 587h-135c-63.333 0 -106.166 -13.333 -128.499 -40s-34.833 -82.667 -37.5 -168h-185v389h930v-199l-508 -588h136c71.333 0 120.5 14.833 147.5 44.5s40.5 84.5 40.5 164.5v35h184v-424h-964z" />
    <glyph glyph-name="braceleft" unicode="{" 
d="M856 1516v-72c-66.667 -2 -112.334 -19.833 -137.001 -53.5s-37 -103.167 -37 -208.5v-125c0 -151.333 -15.667 -254 -47 -308s-88 -92 -170 -114c82 -23.333 138.667 -61.666 170 -114.999s47 -155 47 -305v-127c0 -105.333 12.333 -174.833 37 -208.5
s70.334 -51.834 137.001 -54.501v-69c-162.667 0 -273.667 24.167 -333 72.5s-89 138.833 -89 271.5v176c0 114.667 -18 193.167 -54 235.5s-103.333 68.5 -202 78.5v90c98.667 9.33301 166 35.333 202 78s54 121 54 235v176c0 134 29.833 225.333 89.5 274
s170.5 73 332.5 73z" />
    <glyph glyph-name="bar" unicode="|" 
d="M373 1565h280v-2048h-280v2048z" />
    <glyph glyph-name="braceright" unicode="}" 
d="M168 1516c162 0 272.832 -24.499 332.499 -73.499s89.5 -140.167 89.5 -273.5v-176c0 -114 18 -192.333 54 -235s103.333 -68.667 202 -78v-90c-98.667 -10 -166 -36.167 -202 -78.5s-54 -120.833 -54 -235.5v-176c0 -132 -29.667 -222.333 -89 -271
s-170.333 -73 -333 -73v69c66.667 2.66699 112.334 21 137.001 55s37 103.333 37 208v127c0 150 15.667 251.667 47 305s88 91.666 170 114.999c-82 22 -138.667 60 -170 114s-47 156.667 -47 308v125c0 104 -12.5 173.167 -37.5 207.5s-70.5 52.5 -136.5 54.5v72z" />
    <glyph glyph-name="asciitilde" unicode="~" horiz-adv-x="1706" 
d="M1530 842l0.00195312 -299c-68 -46 -132 -79.667 -192 -101s-119.667 -32 -179 -32c-36 0 -73.167 3.83301 -111.5 11.5s-89.833 22.834 -154.5 45.501c-82.667 28 -147.5 46.667 -194.5 56s-92.833 14 -137.5 14c-56 0 -114.667 -12.667 -176 -38
s-130.333 -65.333 -207 -120v299c79.333 50 151.5 86.333 216.5 109s128.833 34 191.5 34c38.667 0 79.667 -4 123 -12s95 -21.667 155 -41c14.667 -4.66699 36 -12 64 -22c101.333 -36 179.666 -54 234.999 -54c57.333 0 115.666 12.167 174.999 36.5
s123.333 62.166 192 113.499z" />
    <glyph glyph-name="nonbreakingspace" unicode="&#xa0;" horiz-adv-x="1327" 
 />
    <glyph glyph-name="exclamdown" unicode="&#xa1;" horiz-adv-x="711" 
d="M541 1227c0 -53.333 -18.167 -98.166 -54.5 -134.499s-81.166 -54.5 -134.499 -54.5s-98 18.167 -134 54.5s-54 81.166 -54 134.499s18 98 54 134s80.667 54 134 54s98.166 -18 134.499 -54s54.5 -80.667 54.5 -134zM467 952
c10.667 -122 30.001 -262.834 58.001 -422.501s42 -259.834 42 -300.501c0 -82 -18.667 -146.5 -56 -193.5s-89 -70.5 -155 -70.5c-66.667 0 -118.834 23.333 -156.501 70s-56.5 111.334 -56.5 194.001c0 40.667 14.167 140.834 42.5 300.501s47.833 300.5 58.5 422.5h223z
" />
    <glyph glyph-name="cent" unicode="&#xa2;" horiz-adv-x="1327" 
d="M748 676c4 40.667 16.167 71.501 36.5 92.501s49.5 33.167 87.5 36.5c-14 17.333 -29.833 30.166 -47.5 38.499s-37.167 12.5 -58.5 12.5c-61.333 0 -107.333 -24 -138 -72s-46 -119.667 -46 -215c0 -17.333 0.833008 -39.5 2.5 -66.5s5.5 -68.833 11.5 -125.5z
M672 217.001c11.333 -10 23.335 -17.332 36.002 -21.999s26.667 -7 42 -7c45.333 0 81 16.333 107 49s39.333 77.667 40 135l248 1c-5.33301 -121.333 -45 -213.833 -119 -277.5s-179 -95.5 -315 -95.5c-28 0 -53.833 0.833008 -77.5 2.5s-46.167 4.16699 -67.5 7.5
l-117 -231h-158l139 274c-90.667 43.333 -159 104.166 -205 182.499s-69 172.5 -69 282.5c0 155.333 49.5 281.833 148.5 379.5s226.833 146.5 383.5 146.5c30 0 63.667 -3.16699 101 -9.5s78.666 -15.833 123.999 -28.5l82 157h158l-115 -223
c37.333 -36 65.166 -72.833 83.499 -110.5s27.5 -76.5 27.5 -116.5c0 -66.667 -19.167 -118.167 -57.5 -154.5s-92.833 -54.5 -163.5 -54.5c-11.333 0 -25 1.83301 -41 5.5s-36 9.16699 -60 16.5z" />
    <glyph glyph-name="sterling" unicode="&#xa3;" horiz-adv-x="1327" 
d="M182 -37l-106.001 218.999c70 38.667 122 80.5 156 125.5s51 95.5 51 151.5c0 14 -0.666992 27.5 -2 40.5s-3.66602 25.5 -6.99902 37.5h-213v186h158c-10.667 30 -18.834 58.833 -24.501 86.5s-8.5 54.834 -8.5 81.501c0 117.333 48.833 211.833 146.5 283.5
s227.834 107.5 390.501 107.5c155.333 0 280.166 -30.5 374.499 -91.5s141.5 -140.5 141.5 -238.5c0 -50.667 -17.333 -92.334 -52 -125.001s-78.667 -49 -132 -49c-52 0 -95.167 15 -129.5 45s-51.5 67.667 -51.5 113c0 29.333 6.66699 54.5 20 75.5s33.333 38.833 60 53.5
c-19.333 17.333 -40.833 30.166 -64.5 38.499s-50.5 12.5 -80.5 12.5c-68 0 -121.833 -18.5 -161.5 -55.5s-59.5 -86.833 -59.5 -149.5c0 -12 2.66699 -31 8 -57s15.666 -69.667 30.999 -131h282v-186l-264 -1c-1.33301 -56 -15.166 -104.667 -41.499 -146
s-68.5 -80.666 -126.5 -117.999l4 -6c40.667 24 79.334 42 116.001 54s71 18 103 18c42.667 0 94.834 -11.667 156.501 -35s102.5 -35 122.5 -35c30.667 0 54.667 12 72 36s26 57 26 99c0 12 -0.166992 21 -0.5 27s-0.833008 11.333 -1.5 16h193
c1.33301 -12 2.33301 -24.833 3 -38.5s1 -33.5 1 -59.5c0 -129.333 -27.167 -225.833 -81.5 -289.5s-136.5 -95.5 -246.5 -95.5c-29.333 0 -59.5 2.66699 -90.5 8s-61.5 13 -91.5 23c-16.667 5.33301 -40.334 13.333 -71.001 24c-117.333 41.333 -198 62 -242 62
c-37.333 0 -78 -9.66699 -122 -29s-92.333 -48.666 -145 -87.999z" />
    <glyph glyph-name="currency" unicode="&#xa4;" horiz-adv-x="1241" 
d="M623 1126c-66.667 0 -123.667 -23.667 -171 -71s-71 -104 -71 -170c0 -66.667 23.5 -123.667 70.5 -171s104.167 -71 171.5 -71c66 0 122.667 23.833 170 71.5s71 104.5 71 170.5c0 65.333 -23.833 121.833 -71.5 169.5s-104.167 71.5 -169.5 71.5zM186 1452
l201.001 -198.998c34 23.333 70 40.5 108 51.5s80 16.5 126 16.5s88.5 -5.5 127.5 -16.5s75.5 -28.167 109.5 -51.5l201 199l133 -133l-199 -205c22 -34.667 38.167 -70.834 48.5 -108.501s15.5 -77.834 15.5 -120.501s-5.33301 -83 -16 -121s-26.667 -74.333 -48 -109
l199 -202l-133 -136l-201 201c-34.667 -23.333 -71.5 -40.666 -110.5 -51.999s-80.5 -17 -124.5 -17c-45.333 0 -87.333 5.66699 -126 17s-75.334 28.666 -110.001 51.999l-201 -201l-135 136l199 202c-21.333 33.333 -37.333 69 -48 107s-16 79.667 -16 125
c0 42.667 5.33301 82.667 16 120s26.667 73 48 107l-199 205z" />
    <glyph glyph-name="yen" unicode="&#xa5;" horiz-adv-x="1352" 
d="M49 446l0.000976562 136.001h369l-82 135h-287v135h205l-57 94c-24.667 40 -50.667 69.5 -78 88.5s-57.333 28.5 -90 28.5h-37v174h708v-174h-43c-28 0 -48.667 -3.5 -62 -10.5s-20 -17.833 -20 -32.5c0 -7.33301 1.33301 -14.833 4 -22.5s7.66699 -17.834 15 -30.501
l143 -256l160 260c6 10 10.5 20 13.5 30s4.5 19.667 4.5 29c0 10 -6.83301 18 -20.5 24s-31.834 9 -54.501 9h-47v174h555v-174h-37c-29.333 0 -55.833 -9 -79.5 -27s-49.834 -50.667 -78.501 -98l-53 -86h203v-135h-289l-84 -135h373v-136h-426v-165
c0 -48 6.33301 -77.833 19 -89.5s40.334 -17.5 83.001 -17.5h70v-174h-752v174h70c40 0 66.667 5.16699 80 15.5s20 40.833 20 91.5v165h-418z" />
    <glyph glyph-name="brokenbar" unicode="&#xa6;" 
d="M373 408h280v-758h-280v758zM373 1432h280v-758h-280v758z" />
    <glyph glyph-name="section" unicode="&#xa7;" horiz-adv-x="1280" 
d="M461 -229c22 -14 45.832 -24.335 71.499 -31.002s54.167 -10 85.5 -10c70.667 0 126.334 13.5 167.001 40.5s61 63.167 61 108.5c0 76 -95 149.333 -285 220l-37 14c-180.667 69.333 -296.5 130 -347.5 182s-76.5 118.333 -76.5 199c0 66 18.667 124.5 56 175.5
s94.666 95.5 171.999 133.5c-52 38 -90 77.833 -114 119.5s-36 87.834 -36 138.501c0 110 41 196.5 123 259.5s194.667 94.5 338 94.5c134.667 0 242 -24.333 322 -73s120 -113 120 -193c0 -46.667 -15.167 -84.667 -45.5 -114s-69.5 -44 -117.5 -44
c-49.333 0 -90.5 14 -123.5 42s-49.5 62.667 -49.5 104c0 17.333 4.33301 33.833 13 49.5s21.667 30.5 39 44.5c-18.667 11.333 -39.334 19.666 -62.001 24.999s-48.667 8 -78 8c-58 0 -105.5 -12.833 -142.5 -38.5s-55.5 -58.167 -55.5 -97.5
c0 -53.333 66.667 -105.666 200 -156.999c34 -12.667 60.667 -23 80 -31c172 -68.667 285 -130.334 339 -185.001s81 -124 81 -208c0 -68 -17.667 -127.833 -53 -179.5s-86.666 -92.167 -153.999 -121.5c60 -39.333 104.333 -82.666 133 -129.999s43 -101 43 -161
c0 -114.667 -47.167 -208.167 -141.5 -280.5s-217.833 -108.5 -370.5 -108.5c-133.333 0 -240.333 27.333 -321 82s-121 126.334 -121 215.001c0 50.667 15.5 92.334 46.5 125.001s70.833 49 119.5 49c50 0 91.167 -15.333 123.5 -46s48.5 -69.334 48.5 -116.001
c0 -19.333 -4.16699 -37.5 -12.5 -54.5s-21.166 -33.5 -38.499 -49.5zM757.999 339.998c38 0 69.999 12.167 95.999 36.5s39 53.833 39 88.5c0 27.333 -8.5 51 -25.5 71s-47.5 41.333 -91.5 64c-59.333 31.333 -115.666 56.666 -168.999 75.999s-91.666 29 -114.999 29
c-33.333 0 -62.5 -12 -87.5 -36s-37.5 -51.667 -37.5 -83c0 -29.333 9.5 -56 28.5 -80s47.5 -45.333 85.5 -64c65.333 -31.333 123.166 -56.166 173.499 -74.499s84.833 -27.5 103.5 -27.5z" />
    <glyph glyph-name="dieresis" unicode="&#xa8;" 
d="M569 1315c0 42 16 79.168 48 111.501s69.333 48.5 112 48.5c44.667 0 82.834 -15.667 114.501 -47s47.5 -69 47.5 -113c0 -46.667 -15.333 -85.334 -46 -116.001s-69.334 -46 -116.001 -46c-45.333 0 -83.333 15.5 -114 46.5s-46 69.5 -46 115.5zM131 1315
c0 42 16.3311 79.166 48.998 111.499s70.334 48.5 113.001 48.5c44.667 0 82.5 -15.5 113.5 -46.5s46.5 -68.833 46.5 -113.5c0 -47.333 -15.167 -86.166 -45.5 -116.499s-68.5 -45.5 -114.5 -45.5c-45.333 0 -83.666 15.5 -114.999 46.5s-47 69.5 -47 115.5z" />
    <glyph glyph-name="copyright" unicode="&#xa9;" horiz-adv-x="1683" 
d="M1130 1108l54.002 -0.000976562l6 -336h-57c-22.667 88 -56.334 155 -101.001 201s-98.667 69 -162 69c-68.667 0 -120.5 -30.167 -155.5 -90.5s-52.5 -149.5 -52.5 -267.5c0 -120.667 19.5 -213 58.5 -277s95.167 -96 168.5 -96c48 0 94 14.833 138 44.5
s85.333 73.5 124 131.5l55 -34c-44.667 -75.333 -97.167 -131.166 -157.5 -167.499s-129.833 -54.5 -208.5 -54.5c-128 0 -234.5 42 -319.5 126s-127.5 189 -127.5 315c0 126.667 42.5 231.667 127.5 315s192.167 125 321.5 125c58 0 111.667 -10.833 161 -32.5
s74.666 -32.5 75.999 -32.5c13.333 0 23.833 4.33301 31.5 13s14.167 24.667 19.5 48zM842.002 1313c-86 0 -168.001 -16.168 -246.001 -48.501s-146.333 -78.5 -205 -138.5c-60 -60.667 -105.667 -129.167 -137 -205.5s-47 -157.166 -47 -242.499
c0 -86 16 -167.5 48 -244.5s78 -145.167 138 -204.5c61.333 -60 130 -105.667 206 -137s157 -47 243 -47c84.667 0 164.834 15.667 240.501 47s143.5 77 203.5 137c60 61.333 106.5 131 139.5 209s49.5 158 49.5 240c0 84.667 -16.333 166.5 -49 245.5
s-78.667 147.167 -138 204.5c-59.333 58.667 -128 104.167 -206 136.5s-158 48.5 -240 48.5zM844.001 1438c98.667 0 194.501 -19.334 287.501 -58.001s174.5 -93 244.5 -163c70.667 -70 125.5 -152.167 164.5 -246.5s58.5 -191.833 58.5 -292.5
c0 -100 -19.167 -196.167 -57.5 -288.5s-93.5 -175.166 -165.5 -248.499c-70.667 -71.333 -151.834 -126 -243.501 -164s-188.5 -57 -290.5 -57c-102.667 0 -199 18.667 -289 56s-172 92.333 -246 165c-72 71.333 -127.167 153 -165.5 245s-57.5 189.333 -57.5 292
c0 100.667 19 197.167 57 289.5s92.667 174.5 164 246.5c70.667 72 152.667 127.333 246 166s191 58 293 58z" />
    <glyph glyph-name="ordfeminine" unicode="&#xaa;" horiz-adv-x="975" 
d="M496 1012l-69 -33.002c-68.667 -31.333 -103 -60.666 -103 -87.999c0 -20 7.33301 -36.333 22 -49s33.667 -19 57 -19c29.333 0 52.5 8.83301 69.5 26.5s25.5 41.834 25.5 72.501v4zM528 769.998c-25.333 -30.667 -60.8311 -54.335 -106.498 -71.002
s-98.167 -25 -157.5 -25c-76 0 -134.833 16.5 -176.5 49.5s-62.5 79.833 -62.5 140.5s18.667 106 56 136s108 53 212 69c88 14.667 143.5 30.5 166.5 47.5s34.5 42.833 34.5 77.5c0 34 -13 61.333 -39 82s-61 31 -105 31c-14.667 0 -29.334 -2 -44.001 -6
s-30 -10.333 -46 -19c26.667 -7.33301 46.667 -18.666 60 -33.999s20 -34.666 20 -57.999c0 -29.333 -12.167 -53 -36.5 -71s-56.5 -27 -96.5 -27c-48.667 0 -86.167 10.5 -112.5 31.5s-39.5 50.5 -39.5 88.5c0 58.667 32.667 104.5 98 137.5s156.333 49.5 273 49.5
c64 0 121 -4.83301 171 -14.5s88 -22.5 114 -38.5c31.333 -20 53.5 -43.333 66.5 -70s19.5 -68.334 19.5 -125.001v-262c0 -18.667 2 -30.5 6 -35.5s12 -7.5 24 -7.5c11.333 0 19.333 2.66699 24 8s7 17 7 35v82h103v-88c0 -74.667 -18 -128.167 -54 -160.5
s-95.333 -48.5 -178 -48.5c-44.667 0 -83.334 7.83301 -116.001 23.5s-61 39.834 -85 72.501z" />
    <glyph glyph-name="guillemotleft" unicode="&#xab;" horiz-adv-x="1036" 
d="M737 137c-90.667 124 -148.834 207.499 -174.501 250.499s-38.5 74.833 -38.5 95.5c0 24 16.5 63.333 49.5 118s87.5 133 163.5 235l205 -1l-3 -7c-77.333 -182.667 -116 -297.667 -116 -345c0 -22.667 8.83301 -57.167 26.5 -103.5s53.834 -127.166 108.501 -242.499
h-221zM293 136.999c-91.333 124 -149.668 207.499 -175.001 250.499s-38 74.833 -38 95.5c0 24 16.5 63.333 49.5 118s87.5 133 163.5 235h204l-3 -9c-76.667 -182 -115 -296.667 -115 -344c0 -22.667 8.83301 -57.167 26.5 -103.5s53.834 -127.166 108.501 -242.499h-221z
" />
    <glyph glyph-name="logicalnot" unicode="&#xac;" horiz-adv-x="1706" 
d="M254 868h1198v-501h-272v235h-926v266z" />
    <glyph glyph-name="sfthyphen" unicode="&#xad;" horiz-adv-x="735" 
d="M63 317v326h599v-326h-599z" />
    <glyph glyph-name="registered" unicode="&#xae;" horiz-adv-x="1683" 
d="M787 729c4 -0.666992 8.33203 -1.16699 12.999 -1.5s11 -0.5 19 -0.5c48 0 84.333 14.333 109 43s37 71 37 127c0 42.667 -10.667 77.167 -32 103.5s-49.666 39.5 -84.999 39.5c-21.333 0 -37 -4.66699 -47 -14s-15 -24.333 -15 -45zM460.999 1102l409.001 -0.000976562
c99.333 0 179.166 -18.833 239.499 -56.5s90.5 -86.5 90.5 -146.5c0 -59.333 -21.5 -105.666 -64.5 -138.999s-112.167 -57.333 -207.5 -72c74.667 -11.333 131.5 -37.5 170.5 -78.5s58.5 -94.5 58.5 -160.5v-48c0 -19.333 3 -34 9 -44s14.667 -15 26 -15
c16.667 0 29.334 10.167 38.001 30.5s13 49.833 13 88.5v12h62v-33c0 -59.333 -16.333 -104.5 -49 -135.5s-80.667 -46.5 -144 -46.5c-115.333 0 -177.666 73 -186.999 219c-0.666992 8.66699 -1 15 -1 19c-4.66699 60.667 -16.834 104.5 -36.501 131.5
s-49.834 40.5 -90.501 40.5h-11v-242c0 -29.333 5.16699 -49.833 15.5 -61.5s29.833 -20.5 58.5 -26.5v-59h-399v59c33.333 3.33301 56.333 11.333 69 24s19 34 19 64v528c0 30 -5.83301 50.833 -17.5 62.5s-35.167 19.5 -70.5 23.5v62zM842 1313
c-86 0 -167.999 -16.168 -245.999 -48.501s-146.333 -78.5 -205 -138.5c-60 -60.667 -105.667 -129.167 -137 -205.5s-47 -157.166 -47 -242.499c0 -86 16 -167.5 48 -244.5s78 -145.167 138 -204.5c62 -60.667 130.667 -106.5 206 -137.5s155.666 -46.5 240.999 -46.5
s166 15.833 242 47.5s144 77.167 204 136.5c60 61.333 106.5 131 139.5 209s49.5 158 49.5 240c0 84.667 -16.333 166.5 -49 245.5s-78.667 147.167 -138 204.5c-59.333 58.667 -128 104.167 -206 136.5s-158 48.5 -240 48.5zM842.001 1438
c103.333 0 203.169 -20.833 299.502 -62.5s180.166 -100.167 251.499 -175.5c65.333 -69.333 116 -149.666 152 -240.999s54 -185 54 -281c0 -79.333 -12.333 -156.833 -37 -232.5s-60.667 -146.5 -108 -212.5c-72 -99.333 -161.5 -176.333 -268.5 -231
s-222.167 -82 -345.5 -82c-74.667 0 -147.334 10.667 -218.001 32s-136.667 52.333 -198 93c-108 71.333 -191.667 162.166 -251 272.499s-89 230.5 -89 360.5c0 100.667 19 197.167 57 289.5s92.667 174.5 164 246.5c70.667 72 152.5 127.333 245.5 166
s190.167 58 291.5 58z" />
    <glyph glyph-name="macron" unicode="&#xaf;" 
d="M186 1206v180h652v-180h-652z" />
    <glyph glyph-name="degree" unicode="&#xb0;" horiz-adv-x="674" 
d="M336 1303c-41.333 0 -76.667 -14.833 -106 -44.5s-44 -65.5 -44 -107.5c0 -42.667 14.667 -79 44 -109s65.333 -45 108 -45c41.333 0 76.833 15.333 106.5 46s44.5 66.667 44.5 108s-15 77 -45 107s-66 45 -108 45zM337.999 1473
c89.333 0 165.166 -31.499 227.499 -94.499s93.5 -139.5 93.5 -229.5c0 -88 -31.5 -163.667 -94.5 -227s-139.167 -95 -228.5 -95s-165.333 31.167 -228 93.5s-94 138.5 -94 228.5c0 89.333 31.833 165.666 95.5 228.999s139.834 95 228.501 95z" />
    <glyph glyph-name="plusminus" unicode="&#xb1;" horiz-adv-x="1706" 
d="M254 231h1198v-272h-1198v272zM713 1262h280v-310h459v-272h-459v-309h-280v309h-459v272h459v310z" />
    <glyph glyph-name="twosuperior" unicode="&#xb2;" horiz-adv-x="877" 
d="M61 498l-0.00292969 27.999c0 56 12.5 105.167 37.5 147.5s65.833 84.166 122.5 125.499c24 16.667 61 38.667 111 66s86 48.333 108 63c17.333 12 31 27.333 41 46s15 38 15 58c0 32.667 -12.5 58.334 -37.5 77.001s-59.833 28 -104.5 28
c-27.333 0 -52.166 -4.16699 -74.499 -12.5s-41.833 -20.833 -58.5 -37.5h6c32.667 0 57.667 -7.5 75 -22.5s26 -36.833 26 -65.5c0 -35.333 -12 -63.166 -36 -83.499s-56.333 -30.5 -97 -30.5c-42 0 -75.5 11.833 -100.5 35.5s-37.5 55.5 -37.5 95.5
c0 73.333 34.167 134 102.5 182s155.833 72 262.5 72c107.333 0 194.5 -23.667 261.5 -71s100.5 -108.333 100.5 -183c0 -61.333 -22.167 -111 -66.5 -149s-121.166 -71.667 -230.499 -101c-12 -3.33301 -29.667 -8 -53 -14c-110 -28 -172 -60.333 -186 -97
c32.667 14.667 63.334 25.5 92.001 32.5s56.667 10.5 84 10.5c29.333 0 66 -5 110 -15s73 -15 87 -15c18.667 0 32.834 7 42.501 21s14.5 35 14.5 63v10h137c0.666992 -4.66699 1.16699 -10 1.5 -16s0.5 -15 0.5 -27c0 -83.333 -18.833 -144.5 -56.5 -183.5
s-97.167 -58.5 -178.5 -58.5c-48.667 0 -107.834 9.66699 -177.501 29s-114.5 29 -134.5 29c-18 0 -32.333 -3.16699 -43 -9.5s-18 -15.5 -22 -27.5h-144z" />
    <glyph glyph-name="threesuperior" unicode="&#xb3;" horiz-adv-x="877" 
d="M367 836l-0.000976562 104c48 2 83.5 10.667 106.5 26s34.5 38 34.5 68c0 36 -13.5 64.833 -40.5 86.5s-63.5 32.5 -109.5 32.5c-27.333 0 -50.333 -3.5 -69 -10.5s-34.334 -17.833 -47.001 -32.5c25.333 0 46 -7.33301 62 -22s24 -34 24 -58
c0 -31.333 -10.833 -55.5 -32.5 -72.5s-52.5 -25.5 -92.5 -25.5c-38.667 0 -70.167 10.667 -94.5 32s-36.5 49 -36.5 83c0 68 34 122.167 102 162.5s160.333 60.5 277 60.5c102.667 0 182.834 -18.333 240.501 -55s86.5 -87.334 86.5 -152.001
c0 -40 -12.333 -73.333 -37 -100s-62 -47.334 -112 -62.001c60.667 -17.333 105.834 -42.166 135.501 -74.499s44.5 -72.166 44.5 -119.499c0 -71.333 -32.5 -127.166 -97.5 -167.499s-154.833 -60.5 -269.5 -60.5c-128 0 -225.5 17.333 -292.5 52s-100.5 85 -100.5 151
c0 39.333 14.333 71.666 43 96.999s65 38 109 38c38.667 0 69.834 -9.5 93.501 -28.5s35.5 -44.167 35.5 -75.5c0 -29.333 -8.83301 -51.333 -26.5 -66s-44.834 -23.667 -81.501 -27c16.667 -9.33301 36 -16.333 58 -21s46.667 -7 74 -7c52.667 0 93.167 11 121.5 33
s42.5 53.333 42.5 94c0 38 -12.833 67 -38.5 87s-63.167 30 -112.5 30z" />
    <glyph glyph-name="acute" unicode="&#xb4;" 
d="M287 1102l294.999 313c36 38.667 66 65.167 90 79.5s49.333 21.5 76 21.5c32.667 0 59.834 -11 81.501 -33s32.5 -49.333 32.5 -82c0 -25.333 -8.5 -48 -25.5 -68s-44.5 -39.667 -82.5 -59l-346 -172h-121z" />
    <glyph glyph-name="mu" unicode="&#xb5;" horiz-adv-x="1270" 
d="M268 165c-11.333 -75.333 -21.667 -159.495 -31 -252.495s-15.333 -147.833 -18 -164.5c-10 -68 -26 -114.333 -48 -139s-57 -37 -105 -37c-42 0 -75.5 12.833 -100.5 38.5s-37.5 60.5 -37.5 104.5c0 32 23.167 121.667 69.5 269s81.833 279 106.5 395l107 506h336
l-117 -543c-4.66699 -20.667 -8.16699 -40.334 -10.5 -59.001s-3.5 -36 -3.5 -52c0 -31.333 7.83301 -55.833 23.5 -73.5s37.834 -26.5 66.501 -26.5c37.333 0 67.5 17.167 90.5 51.5s43.833 94.166 62.5 179.499l115 523h334l-111 -514
c-2.66699 -12.667 -4.66699 -25.334 -6 -38.001s-2 -24.667 -2 -36c0 -28.667 6.83301 -50.834 20.5 -66.501s32.834 -23.5 57.501 -23.5c36 0 70.667 28 104 84l2 3c14.667 24.667 26.167 40.167 34.5 46.5s18.166 9.5 29.499 9.5c10 0 18.333 -3.83301 25 -11.5
s10 -17.5 10 -29.5c0 -14.667 -5 -37.834 -15 -69.501s-22.667 -61.5 -38 -89.5c-32 -58 -69.167 -101.333 -111.5 -130s-89.833 -43 -142.5 -43c-59.333 0 -105.333 16.5 -138 49.5s-51 81.5 -55 145.5c-27.333 -64 -63.833 -111.667 -109.5 -143s-101.167 -47 -166.5 -47
c-66 0 -118.833 16 -158.5 48s-62.834 77 -69.501 135z" />
    <glyph glyph-name="paragraph" unicode="&#xb6;" 
d="M1014 1479v-141.999h-101v-1337h-202v1337h-140v-1337h-202v784c-108.667 5.33301 -195.667 39.666 -261 102.999s-98 144.333 -98 243c0 104.667 35.5 189 106.5 253s165.167 96 282.5 96h615z" />
    <glyph glyph-name="periodcentered" unicode="&#xb7;" horiz-adv-x="664" 
d="M141 627c0 53.333 18.5 98.333 55.5 135s82.167 55 135.5 55s98.333 -18.333 135 -55s55 -81.667 55 -135c0 -54 -18.333 -99.333 -55 -136s-81.667 -55 -135 -55s-98.5 18.5 -135.5 55.5s-55.5 82.167 -55.5 135.5z" />
    <glyph glyph-name="cedilla" unicode="&#xb8;" 
d="M190 -387l52.0029 108.001c46 -26.667 90.5 -46.834 133.5 -60.501s83.833 -20.5 122.5 -20.5c26 0 46.833 7.16699 62.5 21.5s23.5 33.5 23.5 57.5c0 28.667 -8.33301 50.167 -25 64.5s-41.334 21.5 -74.001 21.5c-10 0 -27.333 -2 -52 -6
c-4.66699 -0.666992 -8.33398 -1.33398 -11.001 -2.00098v203h92v-109c12 3.33301 24 5.66602 36 6.99902s24.667 2 38 2c60.667 0 108.167 -16.167 142.5 -48.5s51.5 -77.166 51.5 -134.499c0 -61.333 -21.5 -110 -64.5 -146s-101.167 -54 -174.5 -54
c-43.333 0 -92.333 7.33301 -147 22s-123.334 39.334 -206.001 74.001z" />
    <glyph glyph-name="onesuperior" unicode="&#xb9;" horiz-adv-x="877" 
d="M178 1042l1.00195 111c53.333 3.33301 96.166 12.833 128.499 28.5s54.166 37.5 65.499 65.5h215v-590c0 -20 5.5 -33.167 16.5 -39.5s36.833 -9.5 77.5 -9.5h33v-108h-537v108h35c42.667 0 70.667 3.33301 84 10s20 26.667 20 60v4v360h-139z" />
    <glyph glyph-name="ordmasculine" unicode="&#xba;" horiz-adv-x="948" 
d="M471 1401c137.333 0 245.334 -32.667 324.001 -98s118 -154.333 118 -267c0 -112 -39.167 -200.333 -117.5 -265s-185.833 -97 -322.5 -97s-243.834 32.167 -321.501 96.5s-116.5 152.833 -116.5 265.5c0 114 38.667 203.333 116 268s184 97 320 97zM588.001 1036
c0 86.667 -8.83105 147 -26.498 181s-47.834 51 -90.501 51c-40.667 0 -69.334 -16.833 -86.001 -50.5s-25 -94.167 -25 -181.5c0 -86.667 8.66699 -146.5 26 -179.5s47 -49.5 89 -49.5c41.333 0 70.5 16.5 87.5 49.5s25.5 92.833 25.5 179.5z" />
    <glyph glyph-name="guillemotright" unicode="&#xbb;" horiz-adv-x="1036" 
d="M299 137h-219.001c51.333 108 86.333 186.667 105 236s28 86 28 110c0 28 -7.16699 64.667 -21.5 110s-46.166 126.333 -95.499 243h205c76 -102 130.5 -180.333 163.5 -235s49.5 -94 49.5 -118c0 -35.333 -70.667 -149.333 -212 -342zM743.999 138l-220 -0.998047
c55.333 115.333 91.666 196.166 108.999 242.499s26 80.833 26 103.5c0 47.333 -38.333 162.333 -115 345c-1.33301 3.33301 -2.33301 5.66602 -3 6.99902l204 1c76.667 -102 131.334 -180.333 164.001 -235s49 -94 49 -118c0 -35.333 -70.333 -149 -211 -341z" />
    <glyph glyph-name="onequarter" unicode="&#xbc;" horiz-adv-x="2015" 
d="M1849 199l0.000976562 -52c0 -18.667 6 -31.167 18 -37.5s37 -9.5 75 -9.5h30v-100h-499v100h34c39.333 0 65.666 3.33301 78.999 10s20 26 20 58v4v27h-387v123l389 376h241v-401h123v-98h-123zM1358 297h248l2 244zM494.001 -35l831 1317h195l-832 -1317h-194z
M170.001 1057l-0.00195312 100.001c52 4 93.333 13.5 124 28.5s51.334 35.5 62.001 61.5h205v-551c0 -18.667 5.83301 -31.167 17.5 -37.5s35.834 -9.5 72.501 -9.5h31v-100h-512v100h35c40 0 66.333 3.16699 79 9.5s19 25.166 19 56.499v4v338h-133z" />
    <glyph glyph-name="onehalf" unicode="&#xbd;" horiz-adv-x="2015" 
d="M1237 -2c0 3.33301 -0.332031 8.00293 -0.999023 14.0029s-1 10.333 -1 13c0 52.667 11.833 98.667 35.5 138s63.167 78 118.5 116c23.333 16.667 59 37.834 107 63.501s81.667 44.5 101 56.5c17.333 12 30.666 26.667 39.999 44s14 35.666 14 54.999
c0 30 -12 53.5 -36 70.5s-57 25.5 -99 25.5c-27.333 0 -51.666 -3.83301 -72.999 -11.5s-39.333 -18.834 -54 -33.501h6c30 0 53.5 -7.16699 70.5 -21.5s25.5 -34.5 25.5 -60.5c0 -33.333 -11.333 -59.833 -34 -79.5s-53.667 -29.5 -93 -29.5
c-40 0 -71.833 11.167 -95.5 33.5s-35.5 52.166 -35.5 89.499c0 68.667 32.667 125.5 98 170.5s148.666 67.5 249.999 67.5c102.667 0 186 -22.167 250 -66.5s96 -101.5 96 -171.5c0 -56.667 -21 -102.5 -63 -137.5s-115.667 -66.833 -221 -95.5c-14 -4 -33 -9 -57 -15
c-101.333 -25.333 -158.333 -54.666 -171 -87.999c30 13.333 58.5 23.166 85.5 29.499s53.833 9.5 80.5 9.5c28.667 0 64 -4.33301 106 -13s69.333 -13 82 -13c19.333 0 33.5 6.33301 42.5 19s13.5 32.334 13.5 59.001v10l131 -1
c0.666992 -4.66699 1.16699 -9.83398 1.5 -15.501s0.5 -13.834 0.5 -24.501c0 -78 -17.833 -135 -53.5 -171s-92.167 -54 -169.5 -54c-47.333 0 -104.5 8.83301 -171.5 26.5s-109.5 26.5 -127.5 26.5c-17.333 0 -31 -2.83301 -41 -8.5s-17.667 -14.5 -23 -26.5h-135z
M494.001 -34.9971l831 1317h195l-832 -1317h-194zM170.001 1057l-0.00195312 100.001c52 4 93.333 13.5 124 28.5s51.334 35.5 62.001 61.5h205v-551c0 -18.667 5.83301 -31.167 17.5 -37.5s35.834 -9.5 72.501 -9.5h31v-100h-512v100h35c40 0 66.333 3.16699 79 9.5
s19 25.166 19 56.499v4v338h-133z" />
    <glyph glyph-name="threequarters" unicode="&#xbe;" horiz-adv-x="2013" 
d="M1849 199l0.000976562 -52c0 -18.667 6 -31.167 18 -37.5s37 -9.5 75 -9.5h30v-100h-499v100h34c39.333 0 65.666 3.33301 78.999 10s20 26 20 58v4v27h-387v123l389 376h241v-401h123v-98h-123zM1358 297h248l2 244zM494.001 -35l831 1317h195l-832 -1317h-194z
M350.001 862v95.9961c46 2.66699 79.667 11.334 101 26.001s32 36.334 32 65.001c0 33.333 -12.667 60 -38 80s-59.666 30 -102.999 30c-26 0 -47.833 -3.33301 -65.5 -10s-32.834 -17 -45.501 -31c24 0 43.333 -6.66699 58 -20s22 -31.333 22 -54
c0 -29.333 -10 -52 -30 -68s-48.667 -24 -86 -24c-38 0 -68.667 9.83301 -92 29.5s-35 45.5 -35 77.5c0 63.333 32.5 114 97.5 152s153.167 57 264.5 57c98.667 0 175.5 -17.167 230.5 -51.5s82.5 -81.5 82.5 -141.5c0 -37.333 -11.833 -68.666 -35.5 -93.999
s-59.5 -44.333 -107.5 -57c58 -16.667 101.167 -40 129.5 -70s42.5 -67.667 42.5 -113c0 -66 -31 -118 -93 -156s-147 -57 -255 -57c-123.333 0 -217 16.167 -281 48.5s-96 79.833 -96 142.5c0 36.667 13.833 67 41.5 91s62.5 36 104.5 36c36.667 0 66.167 -9 88.5 -27
s33.5 -41.667 33.5 -71c0 -26.667 -8.5 -47 -25.5 -61s-43.167 -22.667 -78.5 -26c17.333 -8.66699 36.333 -15.167 57 -19.5s44 -6.5 70 -6.5c50.667 0 89.667 10.167 117 30.5s41 49.833 41 88.5c0 34.667 -12.5 61.334 -37.5 80.001s-61.167 28 -108.5 28z" />
    <glyph glyph-name="questiondown" unicode="&#xbf;" horiz-adv-x="1223" 
d="M774 948c0 -1.33301 0.333008 -3.33105 1 -5.99805c2 -20 3 -35 3 -45c0 -30 -4.16699 -59 -12.5 -87s-21.166 -55 -38.499 -81l-37 -58c-94 -146.667 -141 -251.667 -141 -315c0 -54.667 17.667 -99 53 -133s81.666 -51 138.999 -51c50 0 91.333 13 124 39
s53.667 62 63 108c-14.667 -4 -28.667 -7 -42 -9s-26 -3 -38 -3c-46.667 0 -83 13.5 -109 40.5s-39 64.833 -39 113.5c0 58 18.333 104.5 55 139.5s85.334 52.5 146.001 52.5c68.667 0 122.667 -23 162 -69s59 -109 59 -189c0 -128.667 -47.333 -232.5 -142 -311.5
s-220.667 -118.5 -378 -118.5c-145.333 0 -262.833 34.5 -352.5 103.5s-134.5 158.833 -134.5 269.5c0 53.333 9.16699 102.666 27.5 147.999s45.166 84.666 80.499 117.999c38 36.667 90.333 79 157 127l42 31l5 4c73.333 55.333 110 116 110 182h237zM850 1227
c0 -53.333 -18.167 -98.166 -54.5 -134.499s-80.833 -54.5 -133.5 -54.5c-53.333 0 -98.166 18.167 -134.499 54.5s-54.5 81.166 -54.5 134.499s18.167 98 54.5 134s81.166 54 134.499 54c52.667 0 97.167 -18 133.5 -54s54.5 -80.667 54.5 -134z" />
    <glyph glyph-name="Agrave" unicode="&#xc0;" horiz-adv-x="1446" 
d="M754 639l-125 416l-117 -416h242zM702 0l-0.000976562 194.998h62c52 0 83.833 2.83301 95.5 8.5s17.5 16.5 17.5 32.5c0 10.667 -0.833008 20.834 -2.5 30.501s-3.83398 19.167 -6.50098 28.5l-49 147h-370l-43 -131c-7.33301 -20 -12.333 -35.667 -15 -47
s-4 -21.666 -4 -30.999c0 -12 8.33301 -21.333 25 -28s40.334 -10 71.001 -10h68v-195h-614v195h51c34.667 0 63.834 11 87.501 33s44.167 58 61.5 108l361 1038h497l322 -1034c22 -68 42 -109.167 60 -123.5s47 -21.5 87 -21.5h72v-195h-834zM982.999 1514h-121.002
l-346 172c-39.333 19.333 -67.166 38.833 -83.499 58.5s-24.5 42.5 -24.5 68.5c0 32.667 10.833 60 32.5 82s48.834 33 81.501 33c26 0 51.5 -7.5 76.5 -22.5s54.833 -41.167 89.5 -78.5z" />
    <glyph glyph-name="Aacute" unicode="&#xc1;" horiz-adv-x="1446" 
d="M754 639l-125 416l-117 -416h242zM702 0l-0.000976562 194.998h62c52 0 83.833 2.83301 95.5 8.5s17.5 16.5 17.5 32.5c0 10.667 -0.833008 20.834 -2.5 30.501s-3.83398 19.167 -6.50098 28.5l-49 147h-370l-43 -131c-7.33301 -20 -12.333 -35.667 -15 -47
s-4 -21.666 -4 -30.999c0 -12 8.33301 -21.333 25 -28s40.334 -10 71.001 -10h68v-195h-614v195h51c34.667 0 63.834 11 87.501 33s44.167 58 61.5 108l361 1038h497l322 -1034c22 -68 42 -109.167 60 -123.5s47 -21.5 87 -21.5h72v-195h-834zM532.999 1514l294.999 313
c36 38.667 66 65.167 90 79.5s49.333 21.5 76 21.5c32.667 0 59.834 -11 81.501 -33s32.5 -49.333 32.5 -82c0 -25.333 -8.5 -48 -25.5 -68s-44.5 -39.667 -82.5 -59l-346 -172h-121z" />
    <glyph glyph-name="Acircumflex" unicode="&#xc2;" horiz-adv-x="1446" 
d="M754 639l-125 416l-117 -416h242zM702 0l-0.000976562 194.998h62c52 0 83.833 2.83301 95.5 8.5s17.5 16.5 17.5 32.5c0 10.667 -0.833008 20.834 -2.5 30.501s-3.83398 19.167 -6.50098 28.5l-49 147h-370l-43 -131c-7.33301 -20 -12.333 -35.667 -15 -47
s-4 -21.666 -4 -30.999c0 -12 8.33301 -21.333 25 -28s40.334 -10 71.001 -10h68v-195h-614v195h51c34.667 0 63.834 11 87.501 33s44.167 58 61.5 108l361 1038h497l322 -1034c22 -68 42 -109.167 60 -123.5s47 -21.5 87 -21.5h72v-195h-834zM417.999 1512l242 393h196
l242 -393h-107l-233 182l-233 -182h-107z" />
    <glyph glyph-name="Atilde" unicode="&#xc3;" horiz-adv-x="1446" 
d="M754 639l-125 416l-117 -416h242zM702 0l-0.000976562 194.998h62c52 0 83.833 2.83301 95.5 8.5s17.5 16.5 17.5 32.5c0 10.667 -0.833008 20.834 -2.5 30.501s-3.83398 19.167 -6.50098 28.5l-49 147h-370l-43 -131c-7.33301 -20 -12.333 -35.667 -15 -47
s-4 -21.666 -4 -30.999c0 -12 8.33301 -21.333 25 -28s40.334 -10 71.001 -10h68v-195h-614v195h51c34.667 0 63.834 11 87.501 33s44.167 58 61.5 108l361 1038h497l322 -1034c22 -68 42 -109.167 60 -123.5s47 -21.5 87 -21.5h72v-195h-834zM497.999 1545
l-88.002 0.000976562c17.333 94 46.5 164.5 87.5 211.5s93.833 70.5 158.5 70.5c12.667 0 25.834 -1 39.501 -3s28.5 -5 44.5 -9l127 -33c14.667 -3.33301 25.334 -5.5 32.001 -6.5s12.334 -1.5 17.001 -1.5c25.333 0 45.666 7.5 60.999 22.5s28.333 40.167 39 75.5h88
c-18 -92.667 -47.5 -162.834 -88.5 -210.501s-92.167 -71.5 -153.5 -71.5c-10 0 -21 0.833008 -33 2.5s-25.667 4.16699 -41 7.5l-122 35c-12 2.66699 -23.167 4.66699 -33.5 6s-19.833 2 -28.5 2c-28 0 -50.833 -8.33301 -68.5 -25s-30.167 -41 -37.5 -73z" />
    <glyph glyph-name="Adieresis" unicode="&#xc4;" horiz-adv-x="1446" 
d="M754 639l-125 416l-117 -416h242zM702 0l-0.000976562 194.998h62c52 0 83.833 2.83301 95.5 8.5s17.5 16.5 17.5 32.5c0 10.667 -0.833008 20.834 -2.5 30.501s-3.83398 19.167 -6.50098 28.5l-49 147h-370l-43 -131c-7.33301 -20 -12.333 -35.667 -15 -47
s-4 -21.666 -4 -30.999c0 -12 8.33301 -21.333 25 -28s40.334 -10 71.001 -10h68v-195h-614v195h51c34.667 0 63.834 11 87.501 33s44.167 58 61.5 108l361 1038h497l322 -1034c22 -68 42 -109.167 60 -123.5s47 -21.5 87 -21.5h72v-195h-834zM814.999 1727
c0 42 16 79.168 48 111.501s69.333 48.5 112 48.5c44.667 0 82.834 -15.667 114.501 -47s47.5 -69 47.5 -113c0 -46.667 -15.333 -85.334 -46 -116.001s-69.334 -46 -116.001 -46c-45.333 0 -83.333 15.5 -114 46.5s-46 69.5 -46 115.5zM376.999 1727
c0 42 16.3311 79.166 48.998 111.499s70.334 48.5 113.001 48.5c44.667 0 82.5 -15.5 113.5 -46.5s46.5 -68.833 46.5 -113.5c0 -47.333 -15.167 -86.166 -45.5 -116.499s-68.5 -45.5 -114.5 -45.5c-45.333 0 -83.666 15.5 -114.999 46.5s-47 69.5 -47 115.5z" />
    <glyph glyph-name="Aring" unicode="&#xc5;" horiz-adv-x="1446" 
d="M631 1694c0 -32.667 11.168 -60 33.501 -82s50.166 -33 83.499 -33c31.333 0 58.5 11.167 81.5 33.5s34.5 49.5 34.5 81.5c0 31.333 -11.667 58.5 -35 81.5s-50.333 34.5 -81 34.5c-32 0 -59.5 -11.5 -82.5 -34.5s-34.5 -50.167 -34.5 -81.5zM467.001 1694
c0 77.333 27.333 143 82 197s121 81 199 81c77.333 0 142.666 -26.833 195.999 -80.5s80 -119.5 80 -197.5s-26.667 -144 -80 -198s-118.666 -81 -195.999 -81c-78 0 -144.333 27 -199 81s-82 120 -82 198zM754.001 639l-125 416l-117 -416h242zM702.001 0
l0.00195312 194.997h62c52 0 83.833 2.83301 95.5 8.5s17.5 16.5 17.5 32.5c0 10.667 -0.833008 20.834 -2.5 30.501s-3.83398 19.167 -6.50098 28.5l-49 147h-370l-43 -131c-7.33301 -20 -12.333 -35.667 -15 -47s-4 -21.666 -4 -30.999c0 -12 8.33301 -21.333 25 -28
s40.334 -10 71.001 -10h68v-195h-614v195h51c35.333 0 64.666 10.833 87.999 32.5s43.666 57.834 60.999 108.501l361 1014h497l322 -1010c0 -0.666992 0.333008 -2 1 -4c30 -94 78.667 -141 146 -141h72v-195h-834z" />
    <glyph glyph-name="AE" unicode="&#xc6;" horiz-adv-x="2277" 
d="M913 639v541h-41l-264 -541h305zM913 442l-402.996 0.000976562l-70 -133c-7.33301 -15.333 -12.833 -29.166 -16.5 -41.499s-5.5 -23.833 -5.5 -34.5c0 -12.667 8 -22.167 24 -28.5s39.333 -9.5 70 -9.5h66v-195h-662v195h51c39.333 0 74.5 10.833 105.5 32.5
s58.833 55.167 83.5 100.5l407 745c6 11.333 10.333 21.5 13 30.5s4 17.167 4 24.5c0 20 -5.83301 33.667 -17.5 41s-43.5 11 -95.5 11h-74v194h1757v-512h-213c-14.667 70 -29.5 123 -44.5 159s-33.5 65 -55.5 87c-25.333 26 -56.333 44.5 -93 55.5
s-96.334 16.5 -179.001 16.5h-39h-183v-377h62c60.667 0 103.167 14.833 127.5 44.5s36.5 83.167 36.5 160.5v12h170v-627h-170c-2.66699 96.667 -15 159.167 -37 187.5s-63.667 42.5 -125 42.5h-64v-428h250c91.333 0 154.166 5.5 188.499 16.5s61.166 30.5 80.499 58.5
c21.333 31.333 37.666 70.166 48.999 116.499s19.666 106.5 24.999 180.5h221v-567h-1428v195h76c44.667 0 73.834 5.16699 87.501 15.5s20.5 41.166 20.5 92.499v10v129z" />
    <glyph glyph-name="Ccedilla" unicode="&#xc7;" horiz-adv-x="1518" 
d="M1450 532c-5.33301 -184 -63.499 -325.499 -174.499 -424.499s-267.833 -148.5 -470.5 -148.5c-237.333 0 -419.833 62.833 -547.5 188.5s-191.5 305.167 -191.5 538.5c0 220.667 66.167 397.334 198.5 530.001s309.166 199 530.499 199
c74 0 143.167 -7.83301 207.5 -23.5s125.5 -39.834 183.5 -72.501l35 76h223v-566h-246c-24 132 -60.667 227.833 -110 287.5s-115.666 89.5 -198.999 89.5c-96.667 0 -167 -40.833 -211 -122.5s-66 -212.834 -66 -393.501c0 -186.667 22.667 -321 68 -403
s119 -123 221 -123c92.667 0 168.667 33.167 228 99.5s92.666 155.833 99.999 268.5h221zM446.001 -386.999l52.0029 108.001c46 -26.667 90.5 -46.834 133.5 -60.501s83.833 -20.5 122.5 -20.5c26 0 46.833 7.16699 62.5 21.5s23.5 33.5 23.5 57.5
c0 28.667 -8.33301 50.167 -25 64.5s-41.334 21.5 -74.001 21.5c-10 0 -27.333 -2 -52 -6c-4.66699 -0.666992 -8.33398 -1.33398 -11.001 -2.00098v203h92v-109c12 3.33301 24 5.66602 36 6.99902s24.667 2 38 2c60.667 0 108.167 -16.167 142.5 -48.5
s51.5 -77.166 51.5 -134.499c0 -61.333 -21.5 -110 -64.5 -146s-101.167 -54 -174.5 -54c-43.333 0 -92.333 7.33301 -147 22s-123.334 39.334 -206.001 74.001z" />
    <glyph glyph-name="Egrave" unicode="&#xc8;" horiz-adv-x="1595" 
d="M1475 1374l0.000976562 -511.999h-218c-14 66.667 -28.833 118.667 -44.5 156s-34.834 67.333 -57.501 90c-26 26 -57.667 44.5 -95 55.5s-97.666 16.5 -180.999 16.5h-41h-176v-377h53c62 0 105.5 15 130.5 45s37.5 83.333 37.5 160v12h172v-627h-172
c-2.66699 96 -15.167 158.333 -37.5 187s-65.166 43 -128.499 43h-55v-428h243c94 0 158.833 5.66699 194.5 17s63.167 30.666 82.5 57.999c21.333 32.667 38.166 72.5 50.499 119.5s20.5 106.167 24.5 177.5h226v-567h-1450v195h69c45.333 0 75.166 5.33301 89.499 16
s21.5 41.334 21.5 92.001v10v750c0 53.333 -6.66699 86.166 -20 98.499s-44.333 18.5 -93 18.5h-67v194h1442zM1024 1514h-121.002l-346 172c-39.333 19.333 -67.166 38.833 -83.499 58.5s-24.5 42.5 -24.5 68.5c0 32.667 10.833 60 32.5 82s48.834 33 81.501 33
c26 0 51.5 -7.5 76.5 -22.5s54.833 -41.167 89.5 -78.5z" />
    <glyph glyph-name="Eacute" unicode="&#xc9;" horiz-adv-x="1595" 
d="M1475 1374l0.000976562 -511.999h-218c-14 66.667 -28.833 118.667 -44.5 156s-34.834 67.333 -57.501 90c-26 26 -57.667 44.5 -95 55.5s-97.666 16.5 -180.999 16.5h-41h-176v-377h53c62 0 105.5 15 130.5 45s37.5 83.333 37.5 160v12h172v-627h-172
c-2.66699 96 -15.167 158.333 -37.5 187s-65.166 43 -128.499 43h-55v-428h243c94 0 158.833 5.66699 194.5 17s63.167 30.666 82.5 57.999c21.333 32.667 38.166 72.5 50.499 119.5s20.5 106.167 24.5 177.5h226v-567h-1450v195h69c45.333 0 75.166 5.33301 89.499 16
s21.5 41.334 21.5 92.001v10v750c0 53.333 -6.66699 86.166 -20 98.499s-44.333 18.5 -93 18.5h-67v194h1442zM574.001 1514l294.999 313c36 38.667 66 65.167 90 79.5s49.333 21.5 76 21.5c32.667 0 59.834 -11 81.501 -33s32.5 -49.333 32.5 -82
c0 -25.333 -8.5 -48 -25.5 -68s-44.5 -39.667 -82.5 -59l-346 -172h-121z" />
    <glyph glyph-name="Ecircumflex" unicode="&#xca;" horiz-adv-x="1595" 
d="M1475 1374l0.000976562 -511.999h-218c-14 66.667 -28.833 118.667 -44.5 156s-34.834 67.333 -57.501 90c-26 26 -57.667 44.5 -95 55.5s-97.666 16.5 -180.999 16.5h-41h-176v-377h53c62 0 105.5 15 130.5 45s37.5 83.333 37.5 160v12h172v-627h-172
c-2.66699 96 -15.167 158.333 -37.5 187s-65.166 43 -128.499 43h-55v-428h243c94 0 158.833 5.66699 194.5 17s63.167 30.666 82.5 57.999c21.333 32.667 38.166 72.5 50.499 119.5s20.5 106.167 24.5 177.5h226v-567h-1450v195h69c45.333 0 75.166 5.33301 89.499 16
s21.5 41.334 21.5 92.001v10v750c0 53.333 -6.66699 86.166 -20 98.499s-44.333 18.5 -93 18.5h-67v194h1442zM459.001 1512l242 393h196l242 -393h-107l-233 182l-233 -182h-107z" />
    <glyph glyph-name="Edieresis" unicode="&#xcb;" horiz-adv-x="1595" 
d="M1475 1374l0.000976562 -511.999h-218c-14 66.667 -28.833 118.667 -44.5 156s-34.834 67.333 -57.501 90c-26 26 -57.667 44.5 -95 55.5s-97.666 16.5 -180.999 16.5h-41h-176v-377h53c62 0 105.5 15 130.5 45s37.5 83.333 37.5 160v12h172v-627h-172
c-2.66699 96 -15.167 158.333 -37.5 187s-65.166 43 -128.499 43h-55v-428h243c94 0 158.833 5.66699 194.5 17s63.167 30.666 82.5 57.999c21.333 32.667 38.166 72.5 50.499 119.5s20.5 106.167 24.5 177.5h226v-567h-1450v195h69c45.333 0 75.166 5.33301 89.499 16
s21.5 41.334 21.5 92.001v10v750c0 53.333 -6.66699 86.166 -20 98.499s-44.333 18.5 -93 18.5h-67v194h1442zM856.001 1727c0 42 16 79.168 48 111.501s69.333 48.5 112 48.5c44.667 0 82.834 -15.667 114.501 -47s47.5 -69 47.5 -113
c0 -46.667 -15.333 -85.334 -46 -116.001s-69.334 -46 -116.001 -46c-45.333 0 -83.333 15.5 -114 46.5s-46 69.5 -46 115.5zM418.001 1727c0 42 16.3311 79.166 48.998 111.499s70.334 48.5 113.001 48.5c44.667 0 82.5 -15.5 113.5 -46.5s46.5 -68.833 46.5 -113.5
c0 -47.333 -15.167 -86.166 -45.5 -116.499s-68.5 -45.5 -114.5 -45.5c-45.333 0 -83.666 15.5 -114.999 46.5s-47 69.5 -47 115.5z" />
    <glyph glyph-name="Igrave" unicode="&#xcc;" horiz-adv-x="899" 
d="M858 1374l0.000976562 -194h-67c-49.333 0 -80.833 -6.5 -94.5 -19.5s-20.5 -45.5 -20.5 -97.5v-750c0 -52.667 7 -85.5 21 -98.5s45.333 -19.5 94 -19.5h67v-195h-817v195h68c48 0 79 6.5 93 19.5s21 45.833 21 98.5v750c0 52 -6.83301 84.5 -20.5 97.5
s-44.834 19.5 -93.501 19.5h-68v194h817zM676.001 1514h-121.002l-346 172c-39.333 19.333 -67.166 38.833 -83.499 58.5s-24.5 42.5 -24.5 68.5c0 32.667 10.833 60 32.5 82s48.834 33 81.501 33c26 0 51.5 -7.5 76.5 -22.5s54.833 -41.167 89.5 -78.5z" />
    <glyph glyph-name="Iacute" unicode="&#xcd;" horiz-adv-x="899" 
d="M858 1374l0.000976562 -194h-67c-49.333 0 -80.833 -6.5 -94.5 -19.5s-20.5 -45.5 -20.5 -97.5v-750c0 -52.667 7 -85.5 21 -98.5s45.333 -19.5 94 -19.5h67v-195h-817v195h68c48 0 79 6.5 93 19.5s21 45.833 21 98.5v750c0 52 -6.83301 84.5 -20.5 97.5
s-44.834 19.5 -93.501 19.5h-68v194h817zM226.001 1514l294.999 313c36 38.667 66 65.167 90 79.5s49.333 21.5 76 21.5c32.667 0 59.834 -11 81.501 -33s32.5 -49.333 32.5 -82c0 -25.333 -8.5 -48 -25.5 -68s-44.5 -39.667 -82.5 -59l-346 -172h-121z" />
    <glyph glyph-name="Icircumflex" unicode="&#xce;" horiz-adv-x="899" 
d="M858 1374l0.000976562 -194h-67c-49.333 0 -80.833 -6.5 -94.5 -19.5s-20.5 -45.5 -20.5 -97.5v-750c0 -52.667 7 -85.5 21 -98.5s45.333 -19.5 94 -19.5h67v-195h-817v195h68c48 0 79 6.5 93 19.5s21 45.833 21 98.5v750c0 52 -6.83301 84.5 -20.5 97.5
s-44.834 19.5 -93.501 19.5h-68v194h817zM111.001 1512l242 393h196l242 -393h-107l-233 182l-233 -182h-107z" />
    <glyph glyph-name="Idieresis" unicode="&#xcf;" horiz-adv-x="899" 
d="M858 1374l0.000976562 -194h-67c-49.333 0 -80.833 -6.5 -94.5 -19.5s-20.5 -45.5 -20.5 -97.5v-750c0 -52.667 7 -85.5 21 -98.5s45.333 -19.5 94 -19.5h67v-195h-817v195h68c48 0 79 6.5 93 19.5s21 45.833 21 98.5v750c0 52 -6.83301 84.5 -20.5 97.5
s-44.834 19.5 -93.501 19.5h-68v194h817zM508.001 1727c0 42 16 79.168 48 111.501s69.333 48.5 112 48.5c44.667 0 82.834 -15.667 114.501 -47s47.5 -69 47.5 -113c0 -46.667 -15.333 -85.334 -46 -116.001s-69.334 -46 -116.001 -46c-45.333 0 -83.333 15.5 -114 46.5
s-46 69.5 -46 115.5zM70.001 1727c0 42 16.3311 79.166 48.998 111.499s70.334 48.5 113.001 48.5c44.667 0 82.5 -15.5 113.5 -46.5s46.5 -68.833 46.5 -113.5c0 -47.333 -15.167 -86.166 -45.5 -116.499s-68.5 -45.5 -114.5 -45.5c-45.333 0 -83.666 15.5 -114.999 46.5
s-47 69.5 -47 115.5z" />
    <glyph glyph-name="Eth" unicode="&#xd0;" horiz-adv-x="1667" 
d="M672 201h125c99.333 0 170.833 37.667 214.5 113s65.5 200 65.5 374c0 174.667 -21.833 299.667 -65.5 375s-115.167 113 -214.5 113h-125v-369h215v-176h-215v-430zM791 1374c274 0 477.168 -56.333 609.501 -169s198.5 -285 198.5 -517
c0 -232.667 -66.333 -405.5 -199 -518.5s-335.667 -169.5 -609 -169.5h-748v195h68c45.333 0 75.333 5.5 90 16.5s22 44.833 22 101.5v318h-209v176h209v256c0 52 -6.83301 84.5 -20.5 97.5s-44.834 19.5 -93.501 19.5h-66v194h748z" />
    <glyph glyph-name="Ntilde" unicode="&#xd1;" horiz-adv-x="1667" 
d="M713 1374l506 -925v614c0 55.333 -7.16699 88.666 -21.5 99.999s-44.833 17 -91.5 17h-78v194h604v-194h-49c-48 0 -78.833 -6.16699 -92.5 -18.5s-20.5 -45.166 -20.5 -98.499v-1063h-471l-534 985v-672c0 -53.333 6.83301 -86.333 20.5 -99s44.5 -19 92.5 -19h61v-195
h-606v195h67c48.667 0 80 6.5 94 19.5s21 45.833 21 98.5v750c0 52 -6.83301 84.5 -20.5 97.5s-45.167 19.5 -94.5 19.5h-67v194h680zM594 1545l-88.002 0.000976562c17.333 94 46.5 164.5 87.5 211.5s93.833 70.5 158.5 70.5c12.667 0 25.834 -1 39.501 -3s28.5 -5 44.5 -9
l127 -33c14.667 -3.33301 25.334 -5.5 32.001 -6.5s12.334 -1.5 17.001 -1.5c25.333 0 45.666 7.5 60.999 22.5s28.333 40.167 39 75.5h88c-18 -92.667 -47.5 -162.834 -88.5 -210.501s-92.167 -71.5 -153.5 -71.5c-10 0 -21 0.833008 -33 2.5s-25.667 4.16699 -41 7.5
l-122 35c-12 2.66699 -23.167 4.66699 -33.5 6s-19.833 2 -28.5 2c-28 0 -50.833 -8.33301 -68.5 -25s-30.167 -41 -37.5 -73z" />
    <glyph glyph-name="Ograve" unicode="&#xd2;" horiz-adv-x="1726" 
d="M864 1206c-92.667 0 -160.167 -40.832 -202.5 -122.499s-63.5 -212.834 -63.5 -393.501c0 -184 21 -317 63 -399s109 -123 201 -123c93.333 0 161 40.667 203 122s63 212.666 63 393.999c0 182.667 -21 315.334 -63 398.001s-109 124 -201 124zM66 686.001
c0 227.333 70.668 405.666 212.001 534.999s336.666 194 585.999 194c248 0 442.5 -64.667 583.5 -194s211.5 -307.666 211.5 -534.999s-70.667 -405.333 -212 -534s-337 -193 -587 -193c-247.333 0 -441.5 64.667 -582.5 194s-211.5 307 -211.5 533zM1089 1514h-121.002
l-346 172c-39.333 19.333 -67.166 38.833 -83.499 58.5s-24.5 42.5 -24.5 68.5c0 32.667 10.833 60 32.5 82s48.834 33 81.501 33c26 0 51.5 -7.5 76.5 -22.5s54.833 -41.167 89.5 -78.5z" />
    <glyph glyph-name="Oacute" unicode="&#xd3;" horiz-adv-x="1726" 
d="M864 1206c-92.667 0 -160.167 -40.832 -202.5 -122.499s-63.5 -212.834 -63.5 -393.501c0 -184 21 -317 63 -399s109 -123 201 -123c93.333 0 161 40.667 203 122s63 212.666 63 393.999c0 182.667 -21 315.334 -63 398.001s-109 124 -201 124zM66 686.001
c0 227.333 70.668 405.666 212.001 534.999s336.666 194 585.999 194c248 0 442.5 -64.667 583.5 -194s211.5 -307.666 211.5 -534.999s-70.667 -405.333 -212 -534s-337 -193 -587 -193c-247.333 0 -441.5 64.667 -582.5 194s-211.5 307 -211.5 533zM639.001 1514
l294.999 313c36 38.667 66 65.167 90 79.5s49.333 21.5 76 21.5c32.667 0 59.834 -11 81.501 -33s32.5 -49.333 32.5 -82c0 -25.333 -8.5 -48 -25.5 -68s-44.5 -39.667 -82.5 -59l-346 -172h-121z" />
    <glyph glyph-name="Ocircumflex" unicode="&#xd4;" horiz-adv-x="1726" 
d="M864 1206c-92.667 0 -160.167 -40.832 -202.5 -122.499s-63.5 -212.834 -63.5 -393.501c0 -184 21 -317 63 -399s109 -123 201 -123c93.333 0 161 40.667 203 122s63 212.666 63 393.999c0 182.667 -21 315.334 -63 398.001s-109 124 -201 124zM66 686.001
c0 227.333 70.668 405.666 212.001 534.999s336.666 194 585.999 194c248 0 442.5 -64.667 583.5 -194s211.5 -307.666 211.5 -534.999s-70.667 -405.333 -212 -534s-337 -193 -587 -193c-247.333 0 -441.5 64.667 -582.5 194s-211.5 307 -211.5 533zM524.001 1512l242 393
h196l242 -393h-107l-233 182l-233 -182h-107z" />
    <glyph glyph-name="Otilde" unicode="&#xd5;" horiz-adv-x="1726" 
d="M864 1206c-92.667 0 -160.167 -40.832 -202.5 -122.499s-63.5 -212.834 -63.5 -393.501c0 -184 21 -317 63 -399s109 -123 201 -123c93.333 0 161 40.667 203 122s63 212.666 63 393.999c0 182.667 -21 315.334 -63 398.001s-109 124 -201 124zM66 686.001
c0 227.333 70.668 405.666 212.001 534.999s336.666 194 585.999 194c248 0 442.5 -64.667 583.5 -194s211.5 -307.666 211.5 -534.999s-70.667 -405.333 -212 -534s-337 -193 -587 -193c-247.333 0 -441.5 64.667 -582.5 194s-211.5 307 -211.5 533zM604.001 1545
l-88.002 0.000976562c17.333 94 46.5 164.5 87.5 211.5s93.833 70.5 158.5 70.5c12.667 0 25.834 -1 39.501 -3s28.5 -5 44.5 -9l127 -33c14.667 -3.33301 25.334 -5.5 32.001 -6.5s12.334 -1.5 17.001 -1.5c25.333 0 45.666 7.5 60.999 22.5s28.333 40.167 39 75.5h88
c-18 -92.667 -47.5 -162.834 -88.5 -210.501s-92.167 -71.5 -153.5 -71.5c-10 0 -21 0.833008 -33 2.5s-25.667 4.16699 -41 7.5l-122 35c-12 2.66699 -23.167 4.66699 -33.5 6s-19.833 2 -28.5 2c-28 0 -50.833 -8.33301 -68.5 -25s-30.167 -41 -37.5 -73z" />
    <glyph glyph-name="Odieresis" unicode="&#xd6;" horiz-adv-x="1726" 
d="M864 1206c-92.667 0 -160.167 -40.832 -202.5 -122.499s-63.5 -212.834 -63.5 -393.501c0 -184 21 -317 63 -399s109 -123 201 -123c93.333 0 161 40.667 203 122s63 212.666 63 393.999c0 182.667 -21 315.334 -63 398.001s-109 124 -201 124zM66 686.001
c0 227.333 70.668 405.666 212.001 534.999s336.666 194 585.999 194c248 0 442.5 -64.667 583.5 -194s211.5 -307.666 211.5 -534.999s-70.667 -405.333 -212 -534s-337 -193 -587 -193c-247.333 0 -441.5 64.667 -582.5 194s-211.5 307 -211.5 533zM921.001 1727
c0 42 16 79.168 48 111.501s69.333 48.5 112 48.5c44.667 0 82.834 -15.667 114.501 -47s47.5 -69 47.5 -113c0 -46.667 -15.333 -85.334 -46 -116.001s-69.334 -46 -116.001 -46c-45.333 0 -83.333 15.5 -114 46.5s-46 69.5 -46 115.5zM483.001 1727
c0 42 16.3311 79.166 48.998 111.499s70.334 48.5 113.001 48.5c44.667 0 82.5 -15.5 113.5 -46.5s46.5 -68.833 46.5 -113.5c0 -47.333 -15.167 -86.166 -45.5 -116.499s-68.5 -45.5 -114.5 -45.5c-45.333 0 -83.666 15.5 -114.999 46.5s-47 69.5 -47 115.5z" />
    <glyph glyph-name="multiply" unicode="&#xd7;" horiz-adv-x="1706" 
d="M446 1231l428 -428l429 428l192 -193l-428 -428l428 -428l-192 -190l-429 428l-428 -428l-190 190l428 428l-428 428z" />
    <glyph glyph-name="Oslash" unicode="&#xd8;" horiz-adv-x="1726" 
d="M1481 1184c60 -67.333 104.668 -140.668 134.001 -220.001s44 -166.666 44 -261.999c0 -235.333 -69.667 -418 -209 -548s-336 -195 -590 -195c-106 0 -197 9.83301 -273 29.5s-145.333 50.834 -208 93.501l-174 -178l-125 137l156 158
c-58.667 70 -101.667 144.5 -129 223.5s-41 166.833 -41 263.5c0 227.333 70.667 405.666 212 534.999s336.666 194 585.999 194c94 0 179.833 -9.16699 257.5 -27.5s149.5 -46.5 215.5 -84.5l156 155l127 -135zM602.001 567.998l483 481c-28 55.333 -59.5 95.333 -94.5 120
s-77.167 37 -126.5 37c-90.667 0 -158 -39.667 -202 -119s-66 -200.666 -66 -363.999c0 -24.667 0.5 -49.834 1.5 -75.501s2.5 -52.167 4.5 -79.5zM1122 824.998l-484.999 -485.001c21.333 -56.667 51.166 -99.5 89.499 -128.5s83.5 -43.5 135.5 -43.5
c90.667 0 157.667 39.333 201 118s65 199.667 65 363c0 27.333 -0.5 55.833 -1.5 85.5s-2.5 59.834 -4.5 90.501z" />
    <glyph glyph-name="Ugrave" unicode="&#xd9;" horiz-adv-x="1602" 
d="M649 457c0 -106 16.5 -180.333 49.5 -223s88.833 -64 167.5 -64c93.333 0 160.333 21 201 63s61 111 61 207v623c0 54 -6.66699 87 -20 99s-44 18 -92 18h-70v194h637v-194h-63c-48 0 -78.833 -6.16699 -92.5 -18.5s-20.5 -43.166 -20.5 -92.499v-663
c0 -146.667 -53 -258.167 -159 -334.5s-261.333 -114.5 -466 -114.5c-186 0 -330 37.667 -432 113s-153 181.666 -153 318.999v674c0 52 -7 84.5 -21 97.5s-45.333 19.5 -94 19.5h-70v194h828v-194h-76c-49.333 0 -80.833 -6.5 -94.5 -19.5s-20.5 -45.5 -20.5 -97.5v-606z
M1110 1514h-121.002l-346 172c-39.333 19.333 -67.166 38.833 -83.499 58.5s-24.5 42.5 -24.5 68.5c0 32.667 10.833 60 32.5 82s48.834 33 81.501 33c26 0 51.5 -7.5 76.5 -22.5s54.833 -41.167 89.5 -78.5z" />
    <glyph glyph-name="Uacute" unicode="&#xda;" horiz-adv-x="1602" 
d="M649 457c0 -106 16.5 -180.333 49.5 -223s88.833 -64 167.5 -64c93.333 0 160.333 21 201 63s61 111 61 207v623c0 54 -6.66699 87 -20 99s-44 18 -92 18h-70v194h637v-194h-63c-48 0 -78.833 -6.16699 -92.5 -18.5s-20.5 -43.166 -20.5 -92.499v-663
c0 -146.667 -53 -258.167 -159 -334.5s-261.333 -114.5 -466 -114.5c-186 0 -330 37.667 -432 113s-153 181.666 -153 318.999v674c0 52 -7 84.5 -21 97.5s-45.333 19.5 -94 19.5h-70v194h828v-194h-76c-49.333 0 -80.833 -6.5 -94.5 -19.5s-20.5 -45.5 -20.5 -97.5v-606z
M660 1514l294.999 313c36 38.667 66 65.167 90 79.5s49.333 21.5 76 21.5c32.667 0 59.834 -11 81.501 -33s32.5 -49.333 32.5 -82c0 -25.333 -8.5 -48 -25.5 -68s-44.5 -39.667 -82.5 -59l-346 -172h-121z" />
    <glyph glyph-name="Ucircumflex" unicode="&#xdb;" horiz-adv-x="1602" 
d="M649 457c0 -106 16.5 -180.333 49.5 -223s88.833 -64 167.5 -64c93.333 0 160.333 21 201 63s61 111 61 207v623c0 54 -6.66699 87 -20 99s-44 18 -92 18h-70v194h637v-194h-63c-48 0 -78.833 -6.16699 -92.5 -18.5s-20.5 -43.166 -20.5 -92.499v-663
c0 -146.667 -53 -258.167 -159 -334.5s-261.333 -114.5 -466 -114.5c-186 0 -330 37.667 -432 113s-153 181.666 -153 318.999v674c0 52 -7 84.5 -21 97.5s-45.333 19.5 -94 19.5h-70v194h828v-194h-76c-49.333 0 -80.833 -6.5 -94.5 -19.5s-20.5 -45.5 -20.5 -97.5v-606z
M545 1512l242 393h196l242 -393h-107l-233 182l-233 -182h-107z" />
    <glyph glyph-name="Udieresis" unicode="&#xdc;" horiz-adv-x="1602" 
d="M649 457c0 -106 16.5 -180.333 49.5 -223s88.833 -64 167.5 -64c93.333 0 160.333 21 201 63s61 111 61 207v623c0 54 -6.66699 87 -20 99s-44 18 -92 18h-70v194h637v-194h-63c-48 0 -78.833 -6.16699 -92.5 -18.5s-20.5 -43.166 -20.5 -92.499v-663
c0 -146.667 -53 -258.167 -159 -334.5s-261.333 -114.5 -466 -114.5c-186 0 -330 37.667 -432 113s-153 181.666 -153 318.999v674c0 52 -7 84.5 -21 97.5s-45.333 19.5 -94 19.5h-70v194h828v-194h-76c-49.333 0 -80.833 -6.5 -94.5 -19.5s-20.5 -45.5 -20.5 -97.5v-606z
M942 1727c0 42 16 79.168 48 111.501s69.333 48.5 112 48.5c44.667 0 82.834 -15.667 114.501 -47s47.5 -69 47.5 -113c0 -46.667 -15.333 -85.334 -46 -116.001s-69.334 -46 -116.001 -46c-45.333 0 -83.333 15.5 -114 46.5s-46 69.5 -46 115.5zM504 1727
c0 42 16.3311 79.166 48.998 111.499s70.334 48.5 113.001 48.5c44.667 0 82.5 -15.5 113.5 -46.5s46.5 -68.833 46.5 -113.5c0 -47.333 -15.167 -86.166 -45.5 -116.499s-68.5 -45.5 -114.5 -45.5c-45.333 0 -83.666 15.5 -114.999 46.5s-47 69.5 -47 115.5z" />
    <glyph glyph-name="Yacute" unicode="&#xdd;" horiz-adv-x="1413" 
d="M178 1051c-26.667 44 -55.333 76.502 -86 97.502s-64.667 31.5 -102 31.5h-39v194h801v-194h-47c-32 0 -55.5 -4 -70.5 -12s-22.5 -20.667 -22.5 -38c0 -7.33301 1.5 -15 4.5 -23s8.5 -18.667 16.5 -32l162 -264l162 267c6 9.33301 10.833 20.166 14.5 32.499
s5.5 23.833 5.5 34.5s-7.5 19.167 -22.5 25.5s-35.5 9.5 -61.5 9.5h-51v194h616v-194h-43c-31.333 0 -59.5 -9.33301 -84.5 -28s-54.833 -55.334 -89.5 -110.001l-307 -491v-238c0 -52.667 7 -85.5 21 -98.5s45.333 -19.5 94 -19.5h75v-195h-835v195h78
c45.333 0 75.333 5.5 90 16.5s22 44.833 22 101.5v238zM482.001 1514l294.999 313c36 38.667 66 65.167 90 79.5s49.333 21.5 76 21.5c32.667 0 59.834 -11 81.501 -33s32.5 -49.333 32.5 -82c0 -25.333 -8.5 -48 -25.5 -68s-44.5 -39.667 -82.5 -59l-346 -172h-121z" />
    <glyph glyph-name="Thorn" unicode="&#xde;" horiz-adv-x="1538" 
d="M672 877l0.000976562 -396h90c95.333 0 162.5 15.5 201.5 46.5s58.5 83.167 58.5 156.5c0 69.333 -18.833 118.833 -56.5 148.5s-102.834 44.5 -195.501 44.5h-98zM215.001 1063c0 53.333 -6.66602 86.166 -19.999 98.499s-44.333 18.5 -93 18.5h-69v194h819v-194h-68
c-46 0 -76.167 -5.83301 -90.5 -17.5s-21.5 -33.834 -21.5 -66.501v-17h262c194 0 335.667 -31.5 425 -94.5s134 -162.5 134 -298.5c0 -56.667 -11.667 -109 -35 -157s-56.666 -89 -99.999 -123c-42.667 -33.333 -95.834 -57.166 -159.501 -71.499
s-151.834 -21.5 -264.501 -21.5h-264v-26c0 -36.667 7.16699 -61.167 21.5 -73.5s44.5 -18.5 90.5 -18.5h78v-195h-827v195h69c48 0 78.833 6.33301 92.5 19s20.5 46.334 20.5 101.001v748z" />
    <glyph glyph-name="germandbls" unicode="&#xdf;" horiz-adv-x="1360" 
d="M39 180l34.9971 0.000976562c38.667 0 64.334 6 77.001 18s19 38 19 78v648c0 105.333 8.33301 182.333 25 231s45.334 91.667 86.001 129c46.667 42.667 107.167 75.167 181.5 97.5s159.833 33.5 256.5 33.5c166.667 0 293.334 -25 380.001 -75s130 -123.333 130 -220
c0 -70.667 -22.167 -128.834 -66.5 -174.501s-110.166 -78.167 -197.499 -97.5c116 -24.667 203 -71.167 261 -139.5s87 -159.166 87 -272.499c0 -138 -35.5 -249.667 -106.5 -335s-163.833 -128 -278.5 -128c-87.333 0 -154 22.167 -200 66.5s-69 108.166 -69 191.499v127
h146v-120c0 -30.667 3.16699 -51.667 9.5 -63s17.5 -17 33.5 -17c22 0 37 10.333 45 31s12 71.667 12 153v27c0 161.333 -15.333 264 -46 308s-88.334 66 -173.001 66h-12v183h4c50.667 0 89.667 14.667 117 44s41 72 41 128c0 45.333 -11.333 80.833 -34 106.5
s-53.667 38.5 -93 38.5c-49.333 0 -84.333 -17 -105 -51s-31 -94.667 -31 -182v-1010h-534v180z" />
    <glyph glyph-name="agrave" unicode="&#xe0;" horiz-adv-x="1300" 
d="M662 449c-24 -13.333 -56 -29.667 -96 -49c-90.667 -44 -136 -86 -136 -126c0 -28 10 -51 30 -69s45.667 -27 77 -27c38.667 0 69.5 12.5 92.5 37.5s34.5 58.833 34.5 101.5v7zM705 101.999c-35.333 -44 -83.332 -77.832 -143.999 -101.499
s-130.334 -35.5 -209.001 -35.5c-102 0 -180.667 23.667 -236 71s-83 114.666 -83 201.999c0 85.333 24.667 149.333 74 192s144 76 284 100c116.667 20 190.167 42 220.5 66s45.5 61 45.5 111c0 49.333 -17 88.5 -51 117.5s-80.333 43.5 -139 43.5
c-19.333 0 -39 -2.83301 -59 -8.5s-40.667 -14.167 -62 -25.5c36 -10.667 62.833 -26.834 80.5 -48.501s26.5 -49.5 26.5 -83.5c0 -42 -16.333 -76 -49 -102s-76 -39 -130 -39c-64 0 -113.333 15 -148 45s-52 72.333 -52 127c0 84 43.333 149.667 130 197s207.667 71 363 71
c85.333 0 161.5 -6.66699 228.5 -20s117.833 -31.666 152.5 -54.999c42 -28 71.333 -61.167 88 -99.5s25 -98.833 25 -181.5v-373c0 -25.333 2.83301 -41.833 8.5 -49.5s16.5 -11.5 32.5 -11.5s27.167 4 33.5 12s9.5 24.333 9.5 49v117h135v-127c0 -106 -24 -182 -72 -228
s-126.333 -69 -235 -69c-61.333 0 -113.833 11.167 -157.5 33.5s-80.5 56.833 -110.5 103.5zM833.001 1102h-121.002l-346 172c-39.333 19.333 -67.166 38.833 -83.499 58.5s-24.5 42.5 -24.5 68.5c0 32.667 10.833 60 32.5 82s48.834 33 81.501 33
c26 0 51.5 -7.5 76.5 -22.5s54.833 -41.167 89.5 -78.5z" />
    <glyph glyph-name="aacute" unicode="&#xe1;" horiz-adv-x="1300" 
d="M662 449c-24 -13.333 -56 -29.667 -96 -49c-90.667 -44 -136 -86 -136 -126c0 -28 10 -51 30 -69s45.667 -27 77 -27c38.667 0 69.5 12.5 92.5 37.5s34.5 58.833 34.5 101.5v7zM705 101.999c-35.333 -44 -83.332 -77.832 -143.999 -101.499
s-130.334 -35.5 -209.001 -35.5c-102 0 -180.667 23.667 -236 71s-83 114.666 -83 201.999c0 85.333 24.667 149.333 74 192s144 76 284 100c116.667 20 190.167 42 220.5 66s45.5 61 45.5 111c0 49.333 -17 88.5 -51 117.5s-80.333 43.5 -139 43.5
c-19.333 0 -39 -2.83301 -59 -8.5s-40.667 -14.167 -62 -25.5c36 -10.667 62.833 -26.834 80.5 -48.501s26.5 -49.5 26.5 -83.5c0 -42 -16.333 -76 -49 -102s-76 -39 -130 -39c-64 0 -113.333 15 -148 45s-52 72.333 -52 127c0 84 43.333 149.667 130 197s207.667 71 363 71
c85.333 0 161.5 -6.66699 228.5 -20s117.833 -31.666 152.5 -54.999c42 -28 71.333 -61.167 88 -99.5s25 -98.833 25 -181.5v-373c0 -25.333 2.83301 -41.833 8.5 -49.5s16.5 -11.5 32.5 -11.5s27.167 4 33.5 12s9.5 24.333 9.5 49v117h135v-127c0 -106 -24 -182 -72 -228
s-126.333 -69 -235 -69c-61.333 0 -113.833 11.167 -157.5 33.5s-80.5 56.833 -110.5 103.5zM383.001 1102l294.999 313c36 38.667 66 65.167 90 79.5s49.333 21.5 76 21.5c32.667 0 59.834 -11 81.501 -33s32.5 -49.333 32.5 -82c0 -25.333 -8.5 -48 -25.5 -68
s-44.5 -39.667 -82.5 -59l-346 -172h-121z" />
    <glyph glyph-name="acircumflex" unicode="&#xe2;" horiz-adv-x="1300" 
d="M662 449c-24 -13.333 -56 -29.667 -96 -49c-90.667 -44 -136 -86 -136 -126c0 -28 10 -51 30 -69s45.667 -27 77 -27c38.667 0 69.5 12.5 92.5 37.5s34.5 58.833 34.5 101.5v7zM705 101.999c-35.333 -44 -83.332 -77.832 -143.999 -101.499
s-130.334 -35.5 -209.001 -35.5c-102 0 -180.667 23.667 -236 71s-83 114.666 -83 201.999c0 85.333 24.667 149.333 74 192s144 76 284 100c116.667 20 190.167 42 220.5 66s45.5 61 45.5 111c0 49.333 -17 88.5 -51 117.5s-80.333 43.5 -139 43.5
c-19.333 0 -39 -2.83301 -59 -8.5s-40.667 -14.167 -62 -25.5c36 -10.667 62.833 -26.834 80.5 -48.501s26.5 -49.5 26.5 -83.5c0 -42 -16.333 -76 -49 -102s-76 -39 -130 -39c-64 0 -113.333 15 -148 45s-52 72.333 -52 127c0 84 43.333 149.667 130 197s207.667 71 363 71
c85.333 0 161.5 -6.66699 228.5 -20s117.833 -31.666 152.5 -54.999c42 -28 71.333 -61.167 88 -99.5s25 -98.833 25 -181.5v-373c0 -25.333 2.83301 -41.833 8.5 -49.5s16.5 -11.5 32.5 -11.5s27.167 4 33.5 12s9.5 24.333 9.5 49v117h135v-127c0 -106 -24 -182 -72 -228
s-126.333 -69 -235 -69c-61.333 0 -113.833 11.167 -157.5 33.5s-80.5 56.833 -110.5 103.5zM268.001 1100l242 393h196l242 -393h-107l-233 182l-233 -182h-107z" />
    <glyph glyph-name="atilde" unicode="&#xe3;" horiz-adv-x="1300" 
d="M662 449c-24 -13.333 -56 -29.667 -96 -49c-90.667 -44 -136 -86 -136 -126c0 -28 10 -51 30 -69s45.667 -27 77 -27c38.667 0 69.5 12.5 92.5 37.5s34.5 58.833 34.5 101.5v7zM705 101.999c-35.333 -44 -83.332 -77.832 -143.999 -101.499
s-130.334 -35.5 -209.001 -35.5c-102 0 -180.667 23.667 -236 71s-83 114.666 -83 201.999c0 85.333 24.667 149.333 74 192s144 76 284 100c116.667 20 190.167 42 220.5 66s45.5 61 45.5 111c0 49.333 -17 88.5 -51 117.5s-80.333 43.5 -139 43.5
c-19.333 0 -39 -2.83301 -59 -8.5s-40.667 -14.167 -62 -25.5c36 -10.667 62.833 -26.834 80.5 -48.501s26.5 -49.5 26.5 -83.5c0 -42 -16.333 -76 -49 -102s-76 -39 -130 -39c-64 0 -113.333 15 -148 45s-52 72.333 -52 127c0 84 43.333 149.667 130 197s207.667 71 363 71
c85.333 0 161.5 -6.66699 228.5 -20s117.833 -31.666 152.5 -54.999c42 -28 71.333 -61.167 88 -99.5s25 -98.833 25 -181.5v-373c0 -25.333 2.83301 -41.833 8.5 -49.5s16.5 -11.5 32.5 -11.5s27.167 4 33.5 12s9.5 24.333 9.5 49v117h135v-127c0 -106 -24 -182 -72 -228
s-126.333 -69 -235 -69c-61.333 0 -113.833 11.167 -157.5 33.5s-80.5 56.833 -110.5 103.5zM348.001 1133l-88.002 0.000976562c17.333 94 46.5 164.5 87.5 211.5s93.833 70.5 158.5 70.5c12.667 0 25.834 -1 39.501 -3s28.5 -5 44.5 -9l127 -33
c14.667 -3.33301 25.334 -5.5 32.001 -6.5s12.334 -1.5 17.001 -1.5c25.333 0 45.666 7.5 60.999 22.5s28.333 40.167 39 75.5h88c-18 -92.667 -47.5 -162.834 -88.5 -210.501s-92.167 -71.5 -153.5 -71.5c-10 0 -21 0.833008 -33 2.5s-25.667 4.16699 -41 7.5l-122 35
c-12 2.66699 -23.167 4.66699 -33.5 6s-19.833 2 -28.5 2c-28 0 -50.833 -8.33301 -68.5 -25s-30.167 -41 -37.5 -73z" />
    <glyph glyph-name="adieresis" unicode="&#xe4;" horiz-adv-x="1300" 
d="M662 449c-24 -13.333 -56 -29.667 -96 -49c-90.667 -44 -136 -86 -136 -126c0 -28 10 -51 30 -69s45.667 -27 77 -27c38.667 0 69.5 12.5 92.5 37.5s34.5 58.833 34.5 101.5v7zM705 101.999c-35.333 -44 -83.332 -77.832 -143.999 -101.499
s-130.334 -35.5 -209.001 -35.5c-102 0 -180.667 23.667 -236 71s-83 114.666 -83 201.999c0 85.333 24.667 149.333 74 192s144 76 284 100c116.667 20 190.167 42 220.5 66s45.5 61 45.5 111c0 49.333 -17 88.5 -51 117.5s-80.333 43.5 -139 43.5
c-19.333 0 -39 -2.83301 -59 -8.5s-40.667 -14.167 -62 -25.5c36 -10.667 62.833 -26.834 80.5 -48.501s26.5 -49.5 26.5 -83.5c0 -42 -16.333 -76 -49 -102s-76 -39 -130 -39c-64 0 -113.333 15 -148 45s-52 72.333 -52 127c0 84 43.333 149.667 130 197s207.667 71 363 71
c85.333 0 161.5 -6.66699 228.5 -20s117.833 -31.666 152.5 -54.999c42 -28 71.333 -61.167 88 -99.5s25 -98.833 25 -181.5v-373c0 -25.333 2.83301 -41.833 8.5 -49.5s16.5 -11.5 32.5 -11.5s27.167 4 33.5 12s9.5 24.333 9.5 49v117h135v-127c0 -106 -24 -182 -72 -228
s-126.333 -69 -235 -69c-61.333 0 -113.833 11.167 -157.5 33.5s-80.5 56.833 -110.5 103.5zM665.001 1315c0 42 16 79.168 48 111.501s69.333 48.5 112 48.5c44.667 0 82.834 -15.667 114.501 -47s47.5 -69 47.5 -113c0 -46.667 -15.333 -85.334 -46 -116.001
s-69.334 -46 -116.001 -46c-45.333 0 -83.333 15.5 -114 46.5s-46 69.5 -46 115.5zM227.001 1315c0 42 16.3311 79.166 48.998 111.499s70.334 48.5 113.001 48.5c44.667 0 82.5 -15.5 113.5 -46.5s46.5 -68.833 46.5 -113.5c0 -47.333 -15.167 -86.166 -45.5 -116.499
s-68.5 -45.5 -114.5 -45.5c-45.333 0 -83.666 15.5 -114.999 46.5s-47 69.5 -47 115.5z" />
    <glyph glyph-name="aring" unicode="&#xe5;" horiz-adv-x="1300" 
d="M485 1350c0 -32.667 11.3311 -60 33.998 -82s50.334 -33 83.001 -33c32 0 59.5 11.167 82.5 33.5s34.5 49.5 34.5 81.5c0 31.333 -11.667 58.5 -35 81.5s-50.666 34.5 -81.999 34.5c-32 0 -59.5 -11.5 -82.5 -34.5s-34.5 -50.167 -34.5 -81.5zM323.998 1350
c0 77.333 26.833 143 80.5 197s119.5 81 197.5 81s144 -27 198 -81s81 -119.667 81 -197c0 -78 -27 -144 -81 -198s-120 -81 -198 -81s-143.833 27 -197.5 81s-80.5 120 -80.5 198zM704.998 102c-35.333 -44 -83.332 -77.832 -143.999 -101.499
s-130.334 -35.5 -209.001 -35.5c-102 0 -180.667 23.667 -236 71s-83 114.666 -83 201.999c0 85.333 24.667 149.333 74 192s144 76 284 100c116.667 20 190.167 42 220.5 66s45.5 61 45.5 111c0 49.333 -17 88.5 -51 117.5s-80.333 43.5 -139 43.5
c-19.333 0 -39 -2.83301 -59 -8.5s-40.667 -14.167 -62 -25.5c36 -10.667 62.833 -26.834 80.5 -48.501s26.5 -49.5 26.5 -83.5c0 -42 -16.333 -76 -49 -102s-76 -39 -130 -39c-64 0 -113.333 15 -148 45s-52 72.333 -52 127c0 84 43.333 149.667 130 197s207.667 71 363 71
c85.333 0 161.5 -6.66699 228.5 -20s117.833 -31.666 152.5 -54.999c42 -28 71.333 -61.167 88 -99.5s25 -98.833 25 -181.5v-373c0 -25.333 2.83301 -41.833 8.5 -49.5s16.5 -11.5 32.5 -11.5s27.167 4 33.5 12s9.5 24.333 9.5 49v117h135v-127c0 -106 -24 -182 -72 -228
s-126.333 -69 -235 -69c-61.333 0 -113.833 11.167 -157.5 33.5s-80.5 56.833 -110.5 103.5zM661.999 449.001c-24 -13.333 -56 -29.667 -96 -49c-90.667 -44 -136 -86 -136 -126c0 -28 10 -51 30 -69s45.667 -27 77 -27c38.667 0 69.5 12.5 92.5 37.5
s34.5 58.833 34.5 101.5v7z" />
    <glyph glyph-name="ae" unicode="&#xe6;" horiz-adv-x="1743" 
d="M885 913c46.667 30.667 94.501 53.5029 143.501 68.5029s100.833 22.5 155.5 22.5c154 0 272.667 -46.833 356 -140.5s125 -227.167 125 -400.5v-37h-623v-20c0 -82 16.5 -144.5 49.5 -187.5s80.167 -64.5 141.5 -64.5c50.667 0 92.667 15.667 126 47
s55.333 76.333 66 135h244c-22.667 -123.333 -74 -216.333 -154 -279s-187.667 -94 -323 -94c-86 0 -162.333 14.667 -229 44s-126.334 74 -179.001 134c-44.667 -58.667 -100.667 -102.667 -168 -132s-146.333 -44 -237 -44c-112.667 0 -198.5 23.167 -257.5 69.5
s-88.5 114.166 -88.5 203.499c0 86 24.833 150.333 74.5 193s144.167 75.667 283.5 99c114.667 20 187.667 42 219 66s47 61 47 111c0 49.333 -16.167 88.166 -48.5 116.499s-77.5 42.5 -135.5 42.5c-24.667 0 -47.5 -2.66699 -68.5 -8s-40.5 -13.333 -58.5 -24
c36 -10.667 62.833 -26.834 80.5 -48.501s26.5 -49.5 26.5 -83.5c0 -42 -16.333 -76 -49 -102s-76 -39 -130 -39c-64 0 -113.333 15 -148 45s-52 72.333 -52 127c0 80.667 42.333 146 127 196s196.667 75 336 75c62.667 0 122.5 -7.5 179.5 -22.5
s113.167 -37.833 168.5 -68.5zM662.001 449.003c-24 -13.333 -56 -29.667 -96 -49c-90.667 -44 -136 -86 -136 -126c0 -28 10 -51 30 -69s45.667 -27 77 -27c38.667 0 69.5 12.5 92.5 37.5s34.5 58.833 34.5 101.5v7zM1042 606.002h287v15c0 64 -12.5 113.333 -37.5 148
s-60.833 52 -107.5 52c-45.333 0 -80.333 -18.5 -105 -55.5s-37 -90.167 -37 -159.5z" />
    <glyph glyph-name="ccedilla" unicode="&#xe7;" horiz-adv-x="1087" 
d="M1034 336c-4 -121.333 -44.3291 -214.166 -120.996 -278.499s-185 -96.5 -325 -96.5c-166 0 -298 47.333 -396 142s-147 221.334 -147 380.001c0 160.667 49.667 287.667 149 381s234.666 140 405.999 140c132.667 0 238.5 -30.333 317.5 -91
s118.5 -140.334 118.5 -239.001c0 -66 -19 -117 -57 -153s-92 -54 -162 -54c-56.667 0 -101.5 14.333 -134.5 43s-49.5 67.667 -49.5 117c0 41.333 11.5 74.666 34.5 99.999s54.5 39 94.5 41c-10.667 17.333 -23.834 29.833 -39.501 37.5s-35.834 11.5 -60.501 11.5
c-65.333 0 -111.5 -24.333 -138.5 -73s-40.5 -135.667 -40.5 -261c0 -118.667 12.5 -203.167 37.5 -253.5s65.833 -75.5 122.5 -75.5c44 0 78.667 16 104 48s38.666 76.667 39.999 134h247zM223.004 -387l52.0029 108.001c46 -26.667 90.5 -46.834 133.5 -60.501
s83.833 -20.5 122.5 -20.5c26 0 46.833 7.16699 62.5 21.5s23.5 33.5 23.5 57.5c0 28.667 -8.33301 50.167 -25 64.5s-41.334 21.5 -74.001 21.5c-10 0 -27.333 -2 -52 -6c-4.66699 -0.666992 -8.33398 -1.33398 -11.001 -2.00098v203h92v-109
c12 3.33301 24 5.66602 36 6.99902s24.667 2 38 2c60.667 0 108.167 -16.167 142.5 -48.5s51.5 -77.166 51.5 -134.499c0 -61.333 -21.5 -110 -64.5 -146s-101.167 -54 -174.5 -54c-43.333 0 -92.333 7.33301 -147 22s-123.334 39.334 -206.001 74.001z" />
    <glyph glyph-name="egrave" unicode="&#xe8;" horiz-adv-x="1163" 
d="M1108 336c-23.333 -125.333 -77.332 -218.833 -161.999 -280.5s-201.334 -92.5 -350.001 -92.5c-170 0 -304.333 46.667 -403 140s-148 220 -148 380c0 158.667 49.5 285.167 148.5 379.5s231.833 141.5 398.5 141.5c164.667 0 291.167 -46.833 379.5 -140.5
s132.5 -227.834 132.5 -402.501v-35h-643v-20c0 -81.333 17 -143.666 51 -186.999s82.333 -65 145 -65c53.333 0 97 15.667 131 47s56.667 76.333 68 135h252zM461.001 606h297.001v15c0 64 -13 113.333 -39 148s-63 52 -111 52c-46.667 0 -82.834 -18.667 -108.501 -56
s-38.5 -90.333 -38.5 -159zM807.002 1102h-121.002l-346 172c-39.333 19.333 -67.166 38.833 -83.499 58.5s-24.5 42.5 -24.5 68.5c0 32.667 10.833 60 32.5 82s48.834 33 81.501 33c26 0 51.5 -7.5 76.5 -22.5s54.833 -41.167 89.5 -78.5z" />
    <glyph glyph-name="eacute" unicode="&#xe9;" horiz-adv-x="1163" 
d="M1108 336c-23.333 -125.333 -77.332 -218.833 -161.999 -280.5s-201.334 -92.5 -350.001 -92.5c-170 0 -304.333 46.667 -403 140s-148 220 -148 380c0 158.667 49.5 285.167 148.5 379.5s231.833 141.5 398.5 141.5c164.667 0 291.167 -46.833 379.5 -140.5
s132.5 -227.834 132.5 -402.501v-35h-643v-20c0 -81.333 17 -143.666 51 -186.999s82.333 -65 145 -65c53.333 0 97 15.667 131 47s56.667 76.333 68 135h252zM461.001 606h297.001v15c0 64 -13 113.333 -39 148s-63 52 -111 52c-46.667 0 -82.834 -18.667 -108.501 -56
s-38.5 -90.333 -38.5 -159zM357.002 1102l294.999 313c36 38.667 66 65.167 90 79.5s49.333 21.5 76 21.5c32.667 0 59.834 -11 81.501 -33s32.5 -49.333 32.5 -82c0 -25.333 -8.5 -48 -25.5 -68s-44.5 -39.667 -82.5 -59l-346 -172h-121z" />
    <glyph glyph-name="ecircumflex" unicode="&#xea;" horiz-adv-x="1163" 
d="M1108 336c-23.333 -125.333 -77.332 -218.833 -161.999 -280.5s-201.334 -92.5 -350.001 -92.5c-170 0 -304.333 46.667 -403 140s-148 220 -148 380c0 158.667 49.5 285.167 148.5 379.5s231.833 141.5 398.5 141.5c164.667 0 291.167 -46.833 379.5 -140.5
s132.5 -227.834 132.5 -402.501v-35h-643v-20c0 -81.333 17 -143.666 51 -186.999s82.333 -65 145 -65c53.333 0 97 15.667 131 47s56.667 76.333 68 135h252zM461.001 606h297.001v15c0 64 -13 113.333 -39 148s-63 52 -111 52c-46.667 0 -82.834 -18.667 -108.501 -56
s-38.5 -90.333 -38.5 -159zM242.002 1100l242 393h196l242 -393h-107l-233 182l-233 -182h-107z" />
    <glyph glyph-name="edieresis" unicode="&#xeb;" horiz-adv-x="1163" 
d="M1108 336c-23.333 -125.333 -77.332 -218.833 -161.999 -280.5s-201.334 -92.5 -350.001 -92.5c-170 0 -304.333 46.667 -403 140s-148 220 -148 380c0 158.667 49.5 285.167 148.5 379.5s231.833 141.5 398.5 141.5c164.667 0 291.167 -46.833 379.5 -140.5
s132.5 -227.834 132.5 -402.501v-35h-643v-20c0 -81.333 17 -143.666 51 -186.999s82.333 -65 145 -65c53.333 0 97 15.667 131 47s56.667 76.333 68 135h252zM461.001 606h297.001v15c0 64 -13 113.333 -39 148s-63 52 -111 52c-46.667 0 -82.834 -18.667 -108.501 -56
s-38.5 -90.333 -38.5 -159zM639.002 1315c0 42 16 79.168 48 111.501s69.333 48.5 112 48.5c44.667 0 82.834 -15.667 114.501 -47s47.5 -69 47.5 -113c0 -46.667 -15.333 -85.334 -46 -116.001s-69.334 -46 -116.001 -46c-45.333 0 -83.333 15.5 -114 46.5
s-46 69.5 -46 115.5zM201.002 1315c0 42 16.3311 79.166 48.998 111.499s70.334 48.5 113.001 48.5c44.667 0 82.5 -15.5 113.5 -46.5s46.5 -68.833 46.5 -113.5c0 -47.333 -15.167 -86.166 -45.5 -116.499s-68.5 -45.5 -114.5 -45.5c-45.333 0 -83.666 15.5 -114.999 46.5
s-47 69.5 -47 115.5z" />
    <glyph glyph-name="igrave" unicode="&#xec;" horiz-adv-x="750" 
d="M586 276c0 -39.333 6.16797 -65.166 18.501 -77.499s38.166 -18.5 77.499 -18.5h35v-180h-672v180h41c39.333 0 65.166 6.16699 77.499 18.5s18.5 38.166 18.5 77.499v414c0 40 -6.16699 66 -18.5 78s-38.166 18 -77.499 18h-41v181h541v-691zM594.001 1102h-121.002
l-346 172c-39.333 19.333 -67.166 38.833 -83.499 58.5s-24.5 42.5 -24.5 68.5c0 32.667 10.833 60 32.5 82s48.834 33 81.501 33c26 0 51.5 -7.5 76.5 -22.5s54.833 -41.167 89.5 -78.5z" />
    <glyph glyph-name="iacute" unicode="&#xed;" horiz-adv-x="750" 
d="M586 276c0 -39.333 6.16797 -65.166 18.501 -77.499s38.166 -18.5 77.499 -18.5h35v-180h-672v180h41c39.333 0 65.166 6.16699 77.499 18.5s18.5 38.166 18.5 77.499v414c0 40 -6.16699 66 -18.5 78s-38.166 18 -77.499 18h-41v181h541v-691zM144.001 1102l294.999 313
c36 38.667 66 65.167 90 79.5s49.333 21.5 76 21.5c32.667 0 59.834 -11 81.501 -33s32.5 -49.333 32.5 -82c0 -25.333 -8.5 -48 -25.5 -68s-44.5 -39.667 -82.5 -59l-346 -172h-121z" />
    <glyph glyph-name="icircumflex" unicode="&#xee;" horiz-adv-x="750" 
d="M586 276c0 -39.333 6.16797 -65.166 18.501 -77.499s38.166 -18.5 77.499 -18.5h35v-180h-672v180h41c39.333 0 65.166 6.16699 77.499 18.5s18.5 38.166 18.5 77.499v414c0 40 -6.16699 66 -18.5 78s-38.166 18 -77.499 18h-41v181h541v-691zM29.001 1100l242 393h196
l242 -393h-107l-233 182l-233 -182h-107z" />
    <glyph glyph-name="idieresis" unicode="&#xef;" horiz-adv-x="750" 
d="M586 276c0 -39.333 6.16797 -65.166 18.501 -77.499s38.166 -18.5 77.499 -18.5h35v-180h-672v180h41c39.333 0 65.166 6.16699 77.499 18.5s18.5 38.166 18.5 77.499v414c0 40 -6.16699 66 -18.5 78s-38.166 18 -77.499 18h-41v181h541v-691zM426.001 1315
c0 42 16 79.168 48 111.501s69.333 48.5 112 48.5c44.667 0 82.834 -15.667 114.501 -47s47.5 -69 47.5 -113c0 -46.667 -15.333 -85.334 -46 -116.001s-69.334 -46 -116.001 -46c-45.333 0 -83.333 15.5 -114 46.5s-46 69.5 -46 115.5zM-11.999 1315
c0 42 16.3311 79.166 48.998 111.499s70.334 48.5 113.001 48.5c44.667 0 82.5 -15.5 113.5 -46.5s46.5 -68.833 46.5 -113.5c0 -47.333 -15.167 -86.166 -45.5 -116.499s-68.5 -45.5 -114.5 -45.5c-45.333 0 -83.666 15.5 -114.999 46.5s-47 69.5 -47 115.5z" />
    <glyph glyph-name="eth" unicode="&#xf0;" horiz-adv-x="1264" 
d="M735 922c-23.333 40 -45.1709 74.834 -65.5039 104.501s-40.833 56.167 -61.5 79.5l-319 -139l-53 114l282 127c-25.333 26.667 -49 50.5 -71 71.5s-40.667 37.5 -56 49.5l133 111l123 -80.5c34.667 -23.667 61.334 -43.5 80.001 -59.5l309 142l66 -117l-264 -119
c130.667 -116 226.834 -231.833 288.501 -347.5s92.5 -238.834 92.5 -369.501c0 -168.667 -50.667 -298.167 -152 -388.5s-246.666 -135.5 -435.999 -135.5c-184 0 -327.667 43.333 -431 130s-155 206.667 -155 360c0 150 50.333 268.667 151 356s237.334 131 410.001 131
c16.667 0 35.167 -1.66699 55.5 -5s44.833 -8.33301 73.5 -15zM632.995 143.001c54.667 0 93.168 22.668 115.501 68.001s33.5 126.666 33.5 243.999c0 118 -11.5 199.333 -34.5 244s-62.5 67 -118.5 67c-54.667 0 -93.334 -22.667 -116.001 -68s-34 -126.333 -34 -243
c0 -118 11.5 -199.5 34.5 -244.5s62.833 -67.5 119.5 -67.5z" />
    <glyph glyph-name="ntilde" unicode="&#xf1;" horiz-adv-x="1413" 
d="M1262 276c0 -40 6 -65.9971 18 -77.9971s37.333 -18 76 -18h41v-180h-647v180h22c34.667 0 57.667 6.16699 69 18.5s17 38.166 17 77.499v349c0 55.333 -11 96.833 -33 124.5s-55.333 41.5 -100 41.5c-46.667 0 -83.667 -17.667 -111 -53s-41 -83.333 -41 -144v-318
c0 -38.667 6 -64.334 18 -77.001s35.667 -19 71 -19h20v-180h-657v180h49c39.333 0 65.166 6.16699 77.499 18.5s18.5 38.166 18.5 77.499v414c0 40 -6.16699 66 -18.5 78s-38.166 18 -77.499 18h-49v181h538v-150c44 58 96.167 101.833 156.5 131.5
s127.833 44.5 202.5 44.5c123.333 0 210.833 -26.667 262.5 -80s77.5 -146 77.5 -278v-359zM447 1133l-88.002 0.000976562c17.333 94 46.5 164.5 87.5 211.5s93.833 70.5 158.5 70.5c12.667 0 25.834 -1 39.501 -3s28.5 -5 44.5 -9l127 -33
c14.667 -3.33301 25.334 -5.5 32.001 -6.5s12.334 -1.5 17.001 -1.5c25.333 0 45.666 7.5 60.999 22.5s28.333 40.167 39 75.5h88c-18 -92.667 -47.5 -162.834 -88.5 -210.501s-92.167 -71.5 -153.5 -71.5c-10 0 -21 0.833008 -33 2.5s-25.667 4.16699 -41 7.5l-122 35
c-12 2.66699 -23.167 4.66699 -33.5 6s-19.833 2 -28.5 2c-28 0 -50.833 -8.33301 -68.5 -25s-30.167 -41 -37.5 -73z" />
    <glyph glyph-name="ograve" unicode="&#xf2;" horiz-adv-x="1264" 
d="M629 1004c182 0 325.833 -46.667 431.5 -140s158.5 -220.333 158.5 -381c0 -160 -52.5 -286.333 -157.5 -379s-248.5 -139 -430.5 -139c-183.333 0 -326.833 46 -430.5 138s-155.5 218.667 -155.5 380c0 162 51.833 289.333 155.5 382s246.5 139 428.5 139zM782 483
c0 124.667 -11.499 210.834 -34.499 258.501s-62.5 71.5 -118.5 71.5c-54.667 0 -93.334 -23.833 -116.001 -71.5s-34 -133.834 -34 -258.501s11.5 -210.667 34.5 -258s62.833 -71 119.5 -71c54.667 0 93.167 23.5 115.5 70.5s33.5 133.167 33.5 258.5zM858.001 1102
h-121.002l-346 172c-39.333 19.333 -67.166 38.833 -83.499 58.5s-24.5 42.5 -24.5 68.5c0 32.667 10.833 60 32.5 82s48.834 33 81.501 33c26 0 51.5 -7.5 76.5 -22.5s54.833 -41.167 89.5 -78.5z" />
    <glyph glyph-name="oacute" unicode="&#xf3;" horiz-adv-x="1264" 
d="M629 1004c182 0 325.833 -46.667 431.5 -140s158.5 -220.333 158.5 -381c0 -160 -52.5 -286.333 -157.5 -379s-248.5 -139 -430.5 -139c-183.333 0 -326.833 46 -430.5 138s-155.5 218.667 -155.5 380c0 162 51.833 289.333 155.5 382s246.5 139 428.5 139zM782 483
c0 124.667 -11.499 210.834 -34.499 258.501s-62.5 71.5 -118.5 71.5c-54.667 0 -93.334 -23.833 -116.001 -71.5s-34 -133.834 -34 -258.501s11.5 -210.667 34.5 -258s62.833 -71 119.5 -71c54.667 0 93.167 23.5 115.5 70.5s33.5 133.167 33.5 258.5zM408.001 1102
l294.999 313c36 38.667 66 65.167 90 79.5s49.333 21.5 76 21.5c32.667 0 59.834 -11 81.501 -33s32.5 -49.333 32.5 -82c0 -25.333 -8.5 -48 -25.5 -68s-44.5 -39.667 -82.5 -59l-346 -172h-121z" />
    <glyph glyph-name="ocircumflex" unicode="&#xf4;" horiz-adv-x="1264" 
d="M629 1004c182 0 325.833 -46.667 431.5 -140s158.5 -220.333 158.5 -381c0 -160 -52.5 -286.333 -157.5 -379s-248.5 -139 -430.5 -139c-183.333 0 -326.833 46 -430.5 138s-155.5 218.667 -155.5 380c0 162 51.833 289.333 155.5 382s246.5 139 428.5 139zM782 483
c0 124.667 -11.499 210.834 -34.499 258.501s-62.5 71.5 -118.5 71.5c-54.667 0 -93.334 -23.833 -116.001 -71.5s-34 -133.834 -34 -258.501s11.5 -210.667 34.5 -258s62.833 -71 119.5 -71c54.667 0 93.167 23.5 115.5 70.5s33.5 133.167 33.5 258.5zM293.001 1100
l242 393h196l242 -393h-107l-233 182l-233 -182h-107z" />
    <glyph glyph-name="otilde" unicode="&#xf5;" horiz-adv-x="1264" 
d="M629 1004c182 0 325.833 -46.667 431.5 -140s158.5 -220.333 158.5 -381c0 -160 -52.5 -286.333 -157.5 -379s-248.5 -139 -430.5 -139c-183.333 0 -326.833 46 -430.5 138s-155.5 218.667 -155.5 380c0 162 51.833 289.333 155.5 382s246.5 139 428.5 139zM782 483
c0 124.667 -11.499 210.834 -34.499 258.501s-62.5 71.5 -118.5 71.5c-54.667 0 -93.334 -23.833 -116.001 -71.5s-34 -133.834 -34 -258.501s11.5 -210.667 34.5 -258s62.833 -71 119.5 -71c54.667 0 93.167 23.5 115.5 70.5s33.5 133.167 33.5 258.5zM373.001 1133
l-88.002 0.000976562c17.333 94 46.5 164.5 87.5 211.5s93.833 70.5 158.5 70.5c12.667 0 25.834 -1 39.501 -3s28.5 -5 44.5 -9l127 -33c14.667 -3.33301 25.334 -5.5 32.001 -6.5s12.334 -1.5 17.001 -1.5c25.333 0 45.666 7.5 60.999 22.5s28.333 40.167 39 75.5h88
c-18 -92.667 -47.5 -162.834 -88.5 -210.501s-92.167 -71.5 -153.5 -71.5c-10 0 -21 0.833008 -33 2.5s-25.667 4.16699 -41 7.5l-122 35c-12 2.66699 -23.167 4.66699 -33.5 6s-19.833 2 -28.5 2c-28 0 -50.833 -8.33301 -68.5 -25s-30.167 -41 -37.5 -73z" />
    <glyph glyph-name="odieresis" unicode="&#xf6;" horiz-adv-x="1264" 
d="M629 1004c182 0 325.833 -46.667 431.5 -140s158.5 -220.333 158.5 -381c0 -160 -52.5 -286.333 -157.5 -379s-248.5 -139 -430.5 -139c-183.333 0 -326.833 46 -430.5 138s-155.5 218.667 -155.5 380c0 162 51.833 289.333 155.5 382s246.5 139 428.5 139zM782 483
c0 124.667 -11.499 210.834 -34.499 258.501s-62.5 71.5 -118.5 71.5c-54.667 0 -93.334 -23.833 -116.001 -71.5s-34 -133.834 -34 -258.501s11.5 -210.667 34.5 -258s62.833 -71 119.5 -71c54.667 0 93.167 23.5 115.5 70.5s33.5 133.167 33.5 258.5zM690.001 1315
c0 42 16 79.168 48 111.501s69.333 48.5 112 48.5c44.667 0 82.834 -15.667 114.501 -47s47.5 -69 47.5 -113c0 -46.667 -15.333 -85.334 -46 -116.001s-69.334 -46 -116.001 -46c-45.333 0 -83.333 15.5 -114 46.5s-46 69.5 -46 115.5zM252.001 1315
c0 42 16.3311 79.166 48.998 111.499s70.334 48.5 113.001 48.5c44.667 0 82.5 -15.5 113.5 -46.5s46.5 -68.833 46.5 -113.5c0 -47.333 -15.167 -86.166 -45.5 -116.499s-68.5 -45.5 -114.5 -45.5c-45.333 0 -83.666 15.5 -114.999 46.5s-47 69.5 -47 115.5z" />
    <glyph glyph-name="divide" unicode="&#xf7;" horiz-adv-x="1706" 
d="M854 371c49.333 0 92 -17.999 128 -53.999s54 -79 54 -129c0 -49.333 -18 -92 -54 -128s-79.333 -54 -130 -54s-93.667 17.667 -129 53s-53 78.333 -53 129c0 51.333 17.833 94.666 53.5 129.999s79.167 53 130.5 53zM254 748.001h1198v-273h-1198v273zM854 1217
c49.333 0 92 -18.333 128 -55s54 -80 54 -130c0 -49.333 -18 -92 -54 -128s-79.333 -54 -130 -54s-93.667 17.667 -129 53s-53 78.333 -53 129c0 51.333 18 95 54 131s79.333 54 130 54z" />
    <glyph glyph-name="oslash" unicode="&#xf8;" horiz-adv-x="1264" 
d="M164 -102l-117.001 113.998l119 123c-42 48.667 -72.667 101 -92 157s-29 119.667 -29 191c0 162 51.833 289.333 155.5 382s246.5 139 428.5 139c62 0 118.5 -5.5 169.5 -16.5s98.833 -27.5 143.5 -49.5l123 129l121 -113l-105 -110
c46.667 -54.667 81.334 -111.667 104.001 -171s34 -122.666 34 -189.999c0 -160 -52.333 -286.333 -157 -379s-247.667 -139 -429 -139c-66 0 -126.167 5.83301 -180.5 17.5s-104.833 29.834 -151.5 54.501zM497.999 253.998c10.667 -36.667 27.166 -63.668 49.499 -81.001
s51.5 -26 87.5 -26c54.667 0 93.834 23.833 117.501 71.5s35.5 127.834 35.5 240.501v59.5c0 13.667 -0.666992 27.167 -2 40.5zM476.998 440.997l281 288.001c-12.667 31.333 -29.167 54.166 -49.5 68.499s-46.833 21.5 -79.5 21.5c-54.667 0 -94 -23.5 -118 -70.5
s-36 -124.5 -36 -232.5c0 -19.333 0.166992 -34.333 0.5 -45s0.833008 -20.667 1.5 -30z" />
    <glyph glyph-name="ugrave" unicode="&#xf9;" horiz-adv-x="1413" 
d="M850 141c-44 -58 -96.334 -102.169 -157.001 -132.502s-127.667 -45.5 -201 -45.5c-123.333 0 -210.5 26.667 -261.5 80s-76.5 146.333 -76.5 279v368c0 40 -6.33301 66 -19 78s-38.667 18 -78 18h-32v181h532v-625c0 -56 10.833 -97.667 32.5 -125s54.5 -41 98.5 -41
c46.667 0 83.667 17.667 111 53s41 83.333 41 144v317c0 40.667 -6.16699 66.834 -18.5 78.501s-37.833 17.5 -76.5 17.5h-40v181h538v-691c0 -39.333 6.33301 -65.166 19 -77.499s38.334 -18.5 77.001 -18.5h43v-180h-532v141zM881.999 1102h-121.002l-346 172
c-39.333 19.333 -67.166 38.833 -83.499 58.5s-24.5 42.5 -24.5 68.5c0 32.667 10.833 60 32.5 82s48.834 33 81.501 33c26 0 51.5 -7.5 76.5 -22.5s54.833 -41.167 89.5 -78.5z" />
    <glyph glyph-name="uacute" unicode="&#xfa;" horiz-adv-x="1413" 
d="M850 141c-44 -58 -96.334 -102.169 -157.001 -132.502s-127.667 -45.5 -201 -45.5c-123.333 0 -210.5 26.667 -261.5 80s-76.5 146.333 -76.5 279v368c0 40 -6.33301 66 -19 78s-38.667 18 -78 18h-32v181h532v-625c0 -56 10.833 -97.667 32.5 -125s54.5 -41 98.5 -41
c46.667 0 83.667 17.667 111 53s41 83.333 41 144v317c0 40.667 -6.16699 66.834 -18.5 78.501s-37.833 17.5 -76.5 17.5h-40v181h538v-691c0 -39.333 6.33301 -65.166 19 -77.499s38.334 -18.5 77.001 -18.5h43v-180h-532v141zM431.999 1102l294.999 313
c36 38.667 66 65.167 90 79.5s49.333 21.5 76 21.5c32.667 0 59.834 -11 81.501 -33s32.5 -49.333 32.5 -82c0 -25.333 -8.5 -48 -25.5 -68s-44.5 -39.667 -82.5 -59l-346 -172h-121z" />
    <glyph glyph-name="ucircumflex" unicode="&#xfb;" horiz-adv-x="1413" 
d="M850 141c-44 -58 -96.334 -102.169 -157.001 -132.502s-127.667 -45.5 -201 -45.5c-123.333 0 -210.5 26.667 -261.5 80s-76.5 146.333 -76.5 279v368c0 40 -6.33301 66 -19 78s-38.667 18 -78 18h-32v181h532v-625c0 -56 10.833 -97.667 32.5 -125s54.5 -41 98.5 -41
c46.667 0 83.667 17.667 111 53s41 83.333 41 144v317c0 40.667 -6.16699 66.834 -18.5 78.501s-37.833 17.5 -76.5 17.5h-40v181h538v-691c0 -39.333 6.33301 -65.166 19 -77.499s38.334 -18.5 77.001 -18.5h43v-180h-532v141zM316.999 1100l242 393h196l242 -393h-107
l-233 182l-233 -182h-107z" />
    <glyph glyph-name="udieresis" unicode="&#xfc;" horiz-adv-x="1413" 
d="M850 141c-44 -58 -96.334 -102.169 -157.001 -132.502s-127.667 -45.5 -201 -45.5c-123.333 0 -210.5 26.667 -261.5 80s-76.5 146.333 -76.5 279v368c0 40 -6.33301 66 -19 78s-38.667 18 -78 18h-32v181h532v-625c0 -56 10.833 -97.667 32.5 -125s54.5 -41 98.5 -41
c46.667 0 83.667 17.667 111 53s41 83.333 41 144v317c0 40.667 -6.16699 66.834 -18.5 78.501s-37.833 17.5 -76.5 17.5h-40v181h538v-691c0 -39.333 6.33301 -65.166 19 -77.499s38.334 -18.5 77.001 -18.5h43v-180h-532v141zM713.999 1315c0 42 16 79.168 48 111.501
s69.333 48.5 112 48.5c44.667 0 82.834 -15.667 114.501 -47s47.5 -69 47.5 -113c0 -46.667 -15.333 -85.334 -46 -116.001s-69.334 -46 -116.001 -46c-45.333 0 -83.333 15.5 -114 46.5s-46 69.5 -46 115.5zM275.999 1315c0 42 16.3311 79.166 48.998 111.499
s70.334 48.5 113.001 48.5c44.667 0 82.5 -15.5 113.5 -46.5s46.5 -68.833 46.5 -113.5c0 -47.333 -15.167 -86.166 -45.5 -116.499s-68.5 -45.5 -114.5 -45.5c-45.333 0 -83.666 15.5 -114.999 46.5s-47 69.5 -47 115.5z" />
    <glyph glyph-name="yacute" unicode="&#xfd;" horiz-adv-x="1186" 
d="M821 696c1.33301 4 3.33691 9.67188 6.00391 17.0049c4.66699 11.333 7 18.666 7 21.999c0 18 -8.5 30.667 -25.5 38s-50.167 12 -99.5 14v180h493v-181c-42 0 -74.167 -6.83301 -96.5 -20.5s-42.833 -42.834 -61.5 -87.501l-309 -760
c-48.667 -120.667 -110.334 -210.5 -185.001 -269.5s-163 -88.5 -265 -88.5c-100 0 -179.667 24.5 -239 73.5s-89 114.5 -89 196.5c0 57.333 18.5 104.166 55.5 140.499s84.833 54.5 143.5 54.5c51.333 0 93.166 -13.833 125.499 -41.5s48.5 -63.167 48.5 -106.5
c0 -38.667 -10.833 -70.334 -32.5 -95.001s-53.834 -41.334 -96.501 -50.001c10 -12 21.167 -20.833 33.5 -26.5s26.166 -8.5 41.499 -8.5c40 0 78.833 17.167 116.5 51.5s71.5 83.5 101.5 147.5l-322 735c-1.33301 2.66699 -3.33301 7 -6 13
c-42 94.667 -86.333 142 -133 142h-37v181h631v-181c-40 -0.666992 -64.667 -3.66699 -74 -9s-14 -15 -14 -29c0 -10 3 -22.667 9 -38l5 -12l139 -340zM369.004 1102l294.999 313c36 38.667 66 65.167 90 79.5s49.333 21.5 76 21.5c32.667 0 59.834 -11 81.501 -33
s32.5 -49.333 32.5 -82c0 -25.333 -8.5 -48 -25.5 -68s-44.5 -39.667 -82.5 -59l-346 -172h-121z" />
    <glyph glyph-name="thorn" unicode="&#xfe;" horiz-adv-x="1323" 
d="M172 1098c0 38.667 -6.33398 64.332 -19.001 76.999s-38.334 19 -77.001 19h-43v180h540v-512c40.667 46.667 85.334 81.167 134.001 103.5s102.334 33.5 161.001 33.5c134 0 235.833 -43.5 305.5 -130.5s104.5 -214.167 104.5 -381.5
c0 -159.333 -36 -286.166 -108 -380.499s-168.333 -141.5 -289 -141.5c-63.333 0 -120.5 11.833 -171.5 35.5s-96.5 59.834 -136.5 108.501v-273c0 -38 7.16699 -63.5 21.5 -76.5s42.833 -19.5 85.5 -19.5h29v-180h-676v180h47c37.333 0 62 6.16699 74 18.5
s18 38.166 18 77.499v1262zM716.999 792.998c-48 0 -83.667 -25 -107 -75s-35 -127 -35 -231c0 -106 11 -183.667 33 -233s56.333 -74 103 -74c45.333 0 78.833 25 100.5 75s32.5 127.333 32.5 232c0 100 -10.833 176 -32.5 228s-53.167 78 -94.5 78z" />
    <glyph glyph-name="ydieresis" unicode="&#xff;" horiz-adv-x="1186" 
d="M821 696c1.33301 4 3.33691 9.67188 6.00391 17.0049c4.66699 11.333 7 18.666 7 21.999c0 18 -8.5 30.667 -25.5 38s-50.167 12 -99.5 14v180h493v-181c-42 0 -74.167 -6.83301 -96.5 -20.5s-42.833 -42.834 -61.5 -87.501l-309 -760
c-48.667 -120.667 -110.334 -210.5 -185.001 -269.5s-163 -88.5 -265 -88.5c-100 0 -179.667 24.5 -239 73.5s-89 114.5 -89 196.5c0 57.333 18.5 104.166 55.5 140.499s84.833 54.5 143.5 54.5c51.333 0 93.166 -13.833 125.499 -41.5s48.5 -63.167 48.5 -106.5
c0 -38.667 -10.833 -70.334 -32.5 -95.001s-53.834 -41.334 -96.501 -50.001c10 -12 21.167 -20.833 33.5 -26.5s26.166 -8.5 41.499 -8.5c40 0 78.833 17.167 116.5 51.5s71.5 83.5 101.5 147.5l-322 735c-1.33301 2.66699 -3.33301 7 -6 13
c-42 94.667 -86.333 142 -133 142h-37v181h631v-181c-40 -0.666992 -64.667 -3.66699 -74 -9s-14 -15 -14 -29c0 -10 3 -22.667 9 -38l5 -12l139 -340zM651.004 1315c0 42 16 79.168 48 111.501s69.333 48.5 112 48.5c44.667 0 82.834 -15.667 114.501 -47
s47.5 -69 47.5 -113c0 -46.667 -15.333 -85.334 -46 -116.001s-69.334 -46 -116.001 -46c-45.333 0 -83.333 15.5 -114 46.5s-46 69.5 -46 115.5zM213.004 1315.01c0 42 16.3311 79.166 48.998 111.499s70.334 48.5 113.001 48.5c44.667 0 82.5 -15.5 113.5 -46.5
s46.5 -68.833 46.5 -113.5c0 -47.333 -15.167 -86.166 -45.5 -116.499s-68.5 -45.5 -114.5 -45.5c-45.333 0 -83.666 15.5 -114.999 46.5s-47 69.5 -47 115.5z" />
    <glyph glyph-name="Cacute" unicode="&#x106;" horiz-adv-x="1518" 
d="M1450 532c-5.33301 -184 -63.499 -325.499 -174.499 -424.499s-267.833 -148.5 -470.5 -148.5c-237.333 0 -419.833 62.833 -547.5 188.5s-191.5 305.167 -191.5 538.5c0 220.667 66.167 397.334 198.5 530.001s309.166 199 530.499 199
c74 0 143.167 -7.83301 207.5 -23.5s125.5 -39.834 183.5 -72.501l35 76h223v-566h-246c-24 132 -60.667 227.833 -110 287.5s-115.666 89.5 -198.999 89.5c-96.667 0 -167 -40.833 -211 -122.5s-66 -212.834 -66 -393.501c0 -186.667 22.667 -321 68 -403
s119 -123 221 -123c92.667 0 168.667 33.167 228 99.5s92.666 155.833 99.999 268.5h221zM563.001 1514l294.999 313c36 38.667 66 65.167 90 79.5s49.333 21.5 76 21.5c32.667 0 59.834 -11 81.501 -33s32.5 -49.333 32.5 -82c0 -25.333 -8.5 -48 -25.5 -68
s-44.5 -39.667 -82.5 -59l-346 -172h-121z" />
    <glyph glyph-name="cacute" unicode="&#x107;" horiz-adv-x="1087" 
d="M1034 336c-4 -121.333 -44.3291 -214.166 -120.996 -278.499s-185 -96.5 -325 -96.5c-166 0 -298 47.333 -396 142s-147 221.334 -147 380.001c0 160.667 49.667 287.667 149 381s234.666 140 405.999 140c132.667 0 238.5 -30.333 317.5 -91
s118.5 -140.334 118.5 -239.001c0 -66 -19 -117 -57 -153s-92 -54 -162 -54c-56.667 0 -101.5 14.333 -134.5 43s-49.5 67.667 -49.5 117c0 41.333 11.5 74.666 34.5 99.999s54.5 39 94.5 41c-10.667 17.333 -23.834 29.833 -39.501 37.5s-35.834 11.5 -60.501 11.5
c-65.333 0 -111.5 -24.333 -138.5 -73s-40.5 -135.667 -40.5 -261c0 -118.667 12.5 -203.167 37.5 -253.5s65.833 -75.5 122.5 -75.5c44 0 78.667 16 104 48s38.666 76.667 39.999 134h247zM359.004 1102l294.999 313c36 38.667 66 65.167 90 79.5s49.333 21.5 76 21.5
c32.667 0 59.834 -11 81.501 -33s32.5 -49.333 32.5 -82c0 -25.333 -8.5 -48 -25.5 -68s-44.5 -39.667 -82.5 -59l-346 -172h-121z" />
    <glyph glyph-name="Ccaron" unicode="&#x10c;" horiz-adv-x="1518" 
d="M1450 532c-5.33301 -184 -63.499 -325.499 -174.499 -424.499s-267.833 -148.5 -470.5 -148.5c-237.333 0 -419.833 62.833 -547.5 188.5s-191.5 305.167 -191.5 538.5c0 220.667 66.167 397.334 198.5 530.001s309.166 199 530.499 199
c74 0 143.167 -7.83301 207.5 -23.5s125.5 -39.834 183.5 -72.501l35 76h223v-566h-246c-24 132 -60.667 227.833 -110 287.5s-115.666 89.5 -198.999 89.5c-96.667 0 -167 -40.833 -211 -122.5s-66 -212.834 -66 -393.501c0 -186.667 22.667 -321 68 -403
s119 -123 221 -123c92.667 0 168.667 33.167 228 99.5s92.666 155.833 99.999 268.5h221zM448.001 1905h107l233 -180l233 180h107l-242 -393h-196z" />
    <glyph glyph-name="ccaron" unicode="&#x10d;" horiz-adv-x="1087" 
d="M1034 336c-4 -121.333 -44.3291 -214.166 -120.996 -278.499s-185 -96.5 -325 -96.5c-166 0 -298 47.333 -396 142s-147 221.334 -147 380.001c0 160.667 49.667 287.667 149 381s234.666 140 405.999 140c132.667 0 238.5 -30.333 317.5 -91
s118.5 -140.334 118.5 -239.001c0 -66 -19 -117 -57 -153s-92 -54 -162 -54c-56.667 0 -101.5 14.333 -134.5 43s-49.5 67.667 -49.5 117c0 41.333 11.5 74.666 34.5 99.999s54.5 39 94.5 41c-10.667 17.333 -23.834 29.833 -39.501 37.5s-35.834 11.5 -60.501 11.5
c-65.333 0 -111.5 -24.333 -138.5 -73s-40.5 -135.667 -40.5 -261c0 -118.667 12.5 -203.167 37.5 -253.5s65.833 -75.5 122.5 -75.5c44 0 78.667 16 104 48s38.666 76.667 39.999 134h247zM244.004 1493h107l233 -180l233 180h107l-242 -393h-196z" />
    <glyph glyph-name="dcroat" unicode="&#x111;" horiz-adv-x="1329" 
d="M774 133c-52.667 -60 -103.333 -102.668 -152 -128.001s-103.667 -38 -165 -38c-132.667 0 -234.5 42.167 -305.5 126.5s-106.5 205.5 -106.5 363.5c0 144.667 37 262.334 111 353.001s168.667 136 284 136c64 0 121.167 -11.667 171.5 -35s95.833 -59.333 136.5 -108
v213h-287v131h287v8c0 26 -9 44.833 -27 56.5s-47.333 17.5 -88 17.5c-3.33301 0 -9 -0.333008 -17 -1s-14 -1 -18 -1v147h553v-227h201v-131h-201v-744c0 -40.667 6 -67.167 18 -79.5s36 -18.5 72 -18.5h49v-174h-516v133zM479.001 452.999
c0 -90.667 11.168 -159.831 33.501 -207.498s54.833 -71.5 97.5 -71.5c43.333 0 76.666 24.167 99.999 72.5s35 117.166 35 206.499c0 95.333 -11 166.166 -33 212.499s-56 69.5 -102 69.5c-43.333 0 -76 -23.5 -98 -70.5s-33 -117.5 -33 -211.5z" />
    <glyph glyph-name="Gbreve" unicode="&#x11e;" horiz-adv-x="1686" 
d="M856 537v194h760v-194h-49c-47.333 0 -78 -5.66699 -92 -17s-21 -44.666 -21 -99.999v-434h-250l-45 84c-68 -38.667 -136 -67.5 -204 -86.5s-135.667 -28.5 -203 -28.5c-212.667 0 -380.167 65 -502.5 195s-183.5 308.667 -183.5 536c0 219.333 65.667 396 197 530
s305 201 521 201c74.667 0 142.167 -8 202.5 -24s115.833 -40.667 166.5 -74l33 76h219v-566h-240c-22.667 132 -58 227.833 -106 287.5s-113 89.5 -195 89.5c-93.333 0 -161 -40.5 -203 -121.5s-63 -212.5 -63 -394.5c0 -184 21 -317 63 -399s109 -123 201 -123
c60 0 100.667 9.16699 122 27.5s32 58.166 32 119.499v105c0 52 -6.83301 84.5 -20.5 97.5s-45.167 19.5 -94.5 19.5h-45zM498 1872h97.998c14.667 -46.667 40.834 -80.167 78.501 -100.5s94.167 -30.5 169.5 -30.5c74.667 0 131.334 10.333 170.001 31s64 54 76 100h98
c-14 -105.333 -50.833 -186.166 -110.5 -242.499s-137.5 -84.5 -233.5 -84.5s-173.833 28.167 -233.5 84.5s-97.167 137.166 -112.5 242.499z" />
    <glyph glyph-name="gbreve" unicode="&#x11f;" horiz-adv-x="1270" 
d="M305 -215c0 -26.667 23.001 -45.998 69.001 -57.998s120 -18 222 -18c99.333 0 170.5 6.16699 213.5 18.5s64.5 32.166 64.5 59.499c0 25.333 -19.833 43.333 -59.5 54s-111.834 16 -216.501 16c-113.333 0 -190.5 -5.33301 -231.5 -16s-61.5 -29.334 -61.5 -56.001z
M535.001 356.002c30.667 0 53 20 67 60s21 106 21 198c0 87.333 -6.83301 149.833 -20.5 187.5s-35.5 56.5 -65.5 56.5c-36 0 -61.5 -19.333 -76.5 -58s-22.5 -106 -22.5 -202c0 -85.333 7.66699 -147 23 -185s40 -57 74 -57zM176.001 344.002
c-38.667 32.667 -67.8301 71.3301 -87.4971 115.997s-29.5 94.667 -29.5 150c0 123.333 43.167 219 129.5 287s207.833 102 364.5 102c50.667 0 100 -5.66699 148 -17s100.333 -30 157 -56c34 25.333 68.5 43.833 103.5 55.5s72.833 17.5 113.5 17.5
c75.333 0 136.5 -18.333 183.5 -55s70.5 -85 70.5 -145c0 -44 -13 -79.667 -39 -107s-60 -41 -102 -41c-45.333 0 -82.666 10.833 -111.999 32.5s-44 49.167 -44 82.5c0 20 5 39 15 57s25.667 35 47 51c-11.333 9.33301 -21.333 15.833 -30 19.5s-17.334 5.5 -26.001 5.5
c-16 0 -33.667 -4.33301 -53 -13s-40.333 -22 -63 -40c27.333 -30.667 47.833 -66.167 61.5 -106.5s20.5 -86.833 20.5 -139.5c0 -115.333 -45.167 -208.666 -135.5 -279.999s-209.166 -107 -356.499 -107c-30.667 0 -61.834 2.5 -93.501 7.5s-63.834 12.833 -96.501 23.5
c-12 -6 -21.5 -13.5 -28.5 -22.5s-10.5 -17.833 -10.5 -26.5c0 -20.667 7.66699 -34.834 23 -42.501s52.666 -11.5 111.999 -11.5c50.667 0 117.167 1 199.5 3s139.166 3 170.499 3c131.333 0 226.666 -21 285.999 -63s89 -109 89 -201
c0 -108 -49.167 -188.833 -147.5 -242.5s-247.166 -80.5 -446.499 -80.5c-197.333 0 -342.5 18.333 -435.5 55s-139.5 94 -139.5 172c0 34.667 11.333 65.834 34 93.501s54.334 49.167 95.001 64.5c-36.667 26.667 -64.334 55.834 -83.001 87.501s-28 65.834 -28 102.501
c0 46.667 14.167 88.167 42.5 124.5s68.833 64.5 121.5 84.5zM289.005 1460h97.998c14.667 -46.667 40.834 -80.167 78.501 -100.5s94.167 -30.5 169.5 -30.5c74.667 0 131.334 10.333 170.001 31s64 54 76 100h98c-14 -105.333 -50.833 -186.166 -110.5 -242.499
s-137.5 -84.5 -233.5 -84.5s-173.833 28.167 -233.5 84.5s-97.167 137.166 -112.5 242.499z" />
    <glyph glyph-name="Idotaccent" unicode="&#x130;" horiz-adv-x="899" 
d="M858 1374l0.000976562 -194h-67c-49.333 0 -80.833 -6.5 -94.5 -19.5s-20.5 -45.5 -20.5 -97.5v-750c0 -52.667 7 -85.5 21 -98.5s45.333 -19.5 94 -19.5h67v-195h-817v195h68c48 0 79 6.5 93 19.5s21 45.833 21 98.5v750c0 52 -6.83301 84.5 -20.5 97.5
s-44.834 19.5 -93.501 19.5h-68v194h817zM293.001 1710c0 42.667 15.833 80 47.5 112s68.5 48 110.5 48c44.667 0 82.5 -15.5 113.5 -46.5s46.5 -68.833 46.5 -113.5c0 -45.333 -15.167 -82.833 -45.5 -112.5s-68.5 -44.5 -114.5 -44.5c-43.333 0 -80.5 15.5 -111.5 46.5
s-46.5 67.833 -46.5 110.5z" />
    <glyph glyph-name="dotlessi" unicode="&#x131;" horiz-adv-x="750" 
d="M586 276c0 -39.333 6.16797 -65.166 18.501 -77.499s38.166 -18.5 77.499 -18.5h35v-180h-672v180h41c39.333 0 65.166 6.16699 77.499 18.5s18.5 38.166 18.5 77.499v414c0 40 -6.16699 66 -18.5 78s-38.166 18 -77.499 18h-41v181h541v-691z" />
    <glyph glyph-name="Lslash" unicode="&#x141;" horiz-adv-x="1421" 
d="M870 1374l0.000976562 -194h-77c-46.667 0 -77.167 -5.5 -91.5 -16.5s-21.5 -44.5 -21.5 -100.5v-215l301 194v-196l-301 -195v-452h94c85.333 0 145.5 4.5 180.5 13.5s62.833 24.833 83.5 47.5c25.333 27.333 44.5 64.5 57.5 111.5s21.833 114.167 26.5 201.5h215v-573
h-1294v195h68c48 0 79 6.5 93 19.5s21 45.833 21 98.5v146l-221 -144v199l221 143v406c0 52 -6.83301 84.5 -20.5 97.5s-44.834 19.5 -93.501 19.5h-68v194h827z" />
    <glyph glyph-name="lslash" unicode="&#x142;" horiz-adv-x="756" 
d="M180 543l-179.999 -116.999v160l180 116v396c0 39.333 -6.16699 65.166 -18.5 77.499s-38.166 18.5 -77.499 18.5h-45v180h543v-516l180 117v-160l-180 -117v-422c0 -39.333 6.16699 -65.166 18.5 -77.499s38.166 -18.5 77.499 -18.5h33v-180h-672v180h45
c39.333 0 65.166 6.16699 77.499 18.5s18.5 38.166 18.5 77.499v267z" />
    <glyph glyph-name="OE" unicode="&#x152;" horiz-adv-x="2468" 
d="M1124 518l-0.000976562 338c0 139.333 -17.167 232.5 -51.5 279.5s-96.166 70.5 -185.499 70.5c-100.667 0 -174 -41 -220 -123s-69 -214.333 -69 -397c0 -182 22.667 -313.833 68 -395.5s118.333 -122.5 219 -122.5c89.333 0 151.5 23.833 186.5 71.5
s52.5 140.5 52.5 278.5zM1473 0c-72 0 -176 -6.82812 -312 -20.4951s-236.333 -20.5 -301 -20.5c-247.333 0 -441.5 64.667 -582.5 194s-211.5 307 -211.5 533c0 221.333 69.333 398.166 208 530.499s324.334 198.5 557.001 198.5c47.333 0 132.5 -6.83301 255.5 -20.5
s222.167 -20.5 297.5 -20.5h969v-512h-211c-12 63.333 -26 114.666 -42 153.999s-35.333 70.666 -58 93.999c-24.667 25.333 -55 43.333 -91 54s-94.333 16 -175 16h-41h-170v-377h51c60.667 0 103.167 14.833 127.5 44.5s36.5 83.167 36.5 160.5v12h166v-627h-166
c-2.66699 95.333 -14.834 157.5 -36.501 186.5s-63.5 43.5 -125.5 43.5h-53v-428h237c90 0 152.167 5.66699 186.5 17s60.833 30.666 79.499 57.999c21.333 31.333 37.833 70.166 49.5 116.499s19.834 106.5 24.501 180.5h219v-567h-888z" />
    <glyph glyph-name="oe" unicode="&#x153;" horiz-adv-x="1917" 
d="M995 76c-64 -37.333 -128.165 -65.501 -192.498 -84.501s-128.5 -28.5 -192.5 -28.5c-172 0 -309.167 47.167 -411.5 141.5s-153.5 220.5 -153.5 378.5c0 162 51.833 289.333 155.5 382s246.5 139 428.5 139c64 0 125.833 -9 185.5 -27s117.167 -44.667 172.5 -80
c57.333 36.667 113.666 64 168.999 82s112.333 27 171 27c163.333 0 289.166 -46.833 377.499 -140.5s132.5 -227.167 132.5 -400.5v-39h-641v-20c0 -81.333 17 -143.666 51 -186.999s82.667 -65 146 -65c52.667 0 96.167 15.667 130.5 47s56.833 76.333 67.5 135h250
c-22.667 -122 -75.167 -214.667 -157.5 -278s-191.5 -95 -327.5 -95c-75.333 0 -143.5 9.66699 -204.5 29s-113.167 47.333 -156.5 84zM1196 605.999h295v15c0 64 -13 113.333 -39 148s-63 52 -111 52c-46 0 -81.667 -18.5 -107 -55.5s-38 -90.167 -38 -159.5z
M782.002 482.999c0 126 -11.166 212.501 -33.499 259.501s-61.5 70.5 -117.5 70.5c-54.667 0 -93.334 -23.833 -116.001 -71.5s-34 -133.834 -34 -258.501c0 -126 11.333 -212.333 34 -259s62 -70 118 -70c54.667 0 93.167 23.5 115.5 70.5s33.5 133.167 33.5 258.5z" />
    <glyph glyph-name="Scedilla" unicode="&#x15e;" horiz-adv-x="1442" 
d="M109 506l197.998 0.00195312c32.667 -106 86.834 -188.833 162.501 -248.5s164.834 -89.5 267.501 -89.5c62 0 111.667 13.167 149 39.5s56 60.833 56 103.5c0 66 -81 121.333 -243 166c-52.667 14 -94 25.667 -124 35c-97.333 29.333 -172.333 54.333 -225 75
s-90.667 40 -114 58c-55.333 41.333 -96.166 87.166 -122.499 137.499s-39.5 107.5 -39.5 171.5c0 138 51.167 249.333 153.5 334s237.5 127 405.5 127c85.333 0 165 -8.33301 239 -25s145.667 -42.334 215 -77.001l37 69h197v-477h-231
c-22.667 97.333 -65.334 169.833 -128.001 217.5s-146.334 71.5 -251.001 71.5c-61.333 0 -111.833 -14 -151.5 -42s-59.5 -62.333 -59.5 -103c0 -61.333 76 -107.666 228 -138.999l87 -19c212 -48.667 360.667 -109.167 446 -181.5s128 -170.833 128 -295.5
c0 -138.667 -52.5 -249.167 -157.5 -331.5s-246.5 -123.5 -424.5 -123.5c-81.333 0 -159.666 9.16699 -234.999 27.5s-150 46.166 -224 83.499l-51 -76h-188v512zM398.998 -386.998l52.0029 108.001c46 -26.667 90.5 -46.834 133.5 -60.501s83.833 -20.5 122.5 -20.5
c26 0 46.833 7.16699 62.5 21.5s23.5 33.5 23.5 57.5c0 28.667 -8.33301 50.167 -25 64.5s-41.334 21.5 -74.001 21.5c-10 0 -27.333 -2 -52 -6c-4.66699 -0.666992 -8.33398 -1.33398 -11.001 -2.00098v203h92v-109c12 3.33301 24 5.66602 36 6.99902s24.667 2 38 2
c60.667 0 108.167 -16.167 142.5 -48.5s51.5 -77.166 51.5 -134.499c0 -61.333 -21.5 -110 -64.5 -146s-101.167 -54 -174.5 -54c-43.333 0 -92.333 7.33301 -147 22s-123.334 39.334 -206.001 74.001z" />
    <glyph glyph-name="scedilla" unicode="&#x15f;" horiz-adv-x="1163" 
d="M203 -14l-143.995 0.000976562v354h181c21.333 -62.667 55.166 -109.667 101.499 -141s105.166 -47 176.499 -47c47.333 0 81.666 6.5 102.999 19.5s32 33.5 32 61.5c0 37.333 -53.333 71.666 -160 102.999c-36 10.667 -64.333 19.334 -85 26.001
c-154.667 49.333 -254.834 95.666 -300.501 138.999s-68.5 102.333 -68.5 177c0 99.333 41.167 178.5 123.5 237.5s194.166 88.5 335.499 88.5c63.333 0 124 -6.33301 182 -19s114.667 -31.667 170 -57l29 57h151v-305h-160c-28 48 -65.667 84.833 -113 110.5
s-100.333 38.5 -159 38.5c-40.667 0 -72.667 -6.5 -96 -19.5s-35 -30.833 -35 -53.5c0 -41.333 51 -77.333 153 -108l61 -19l53 -16c110 -34 189 -67 237 -99c34 -22.667 60.167 -53 78.5 -91s27.5 -80.667 27.5 -128c0 -102.667 -40 -183.334 -120 -242.001
s-190 -88 -330 -88c-74.667 0 -145.167 8.33301 -211.5 25s-124.833 40.334 -175.5 71.001zM260.005 -386.999l52.0029 108.001c46 -26.667 90.5 -46.834 133.5 -60.501s83.833 -20.5 122.5 -20.5c26 0 46.833 7.16699 62.5 21.5s23.5 33.5 23.5 57.5
c0 28.667 -8.33301 50.167 -25 64.5s-41.334 21.5 -74.001 21.5c-10 0 -27.333 -2 -52 -6c-4.66699 -0.666992 -8.33398 -1.33398 -11.001 -2.00098v203h92v-109c12 3.33301 24 5.66602 36 6.99902s24.667 2 38 2c60.667 0 108.167 -16.167 142.5 -48.5
s51.5 -77.166 51.5 -134.499c0 -61.333 -21.5 -110 -64.5 -146s-101.167 -54 -174.5 -54c-43.333 0 -92.333 7.33301 -147 22s-123.334 39.334 -206.001 74.001z" />
    <glyph glyph-name="Scaron" unicode="&#x160;" horiz-adv-x="1442" 
d="M109 506l197.998 0.00195312c32.667 -106 86.834 -188.833 162.501 -248.5s164.834 -89.5 267.501 -89.5c62 0 111.667 13.167 149 39.5s56 60.833 56 103.5c0 66 -81 121.333 -243 166c-52.667 14 -94 25.667 -124 35c-97.333 29.333 -172.333 54.333 -225 75
s-90.667 40 -114 58c-55.333 41.333 -96.166 87.166 -122.499 137.499s-39.5 107.5 -39.5 171.5c0 138 51.167 249.333 153.5 334s237.5 127 405.5 127c85.333 0 165 -8.33301 239 -25s145.667 -42.334 215 -77.001l37 69h197v-477h-231
c-22.667 97.333 -65.334 169.833 -128.001 217.5s-146.334 71.5 -251.001 71.5c-61.333 0 -111.833 -14 -151.5 -42s-59.5 -62.333 -59.5 -103c0 -61.333 76 -107.666 228 -138.999l87 -19c212 -48.667 360.667 -109.167 446 -181.5s128 -170.833 128 -295.5
c0 -138.667 -52.5 -249.167 -157.5 -331.5s-246.5 -123.5 -424.5 -123.5c-81.333 0 -159.666 9.16699 -234.999 27.5s-150 46.166 -224 83.499l-51 -76h-188v512zM380.998 1905h107l233 -180l233 180h107l-242 -393h-196z" />
    <glyph glyph-name="scaron" unicode="&#x161;" horiz-adv-x="1163" 
d="M203 -14l-143.995 0.000976562v354h181c21.333 -62.667 55.166 -109.667 101.499 -141s105.166 -47 176.499 -47c47.333 0 81.666 6.5 102.999 19.5s32 33.5 32 61.5c0 37.333 -53.333 71.666 -160 102.999c-36 10.667 -64.333 19.334 -85 26.001
c-154.667 49.333 -254.834 95.666 -300.501 138.999s-68.5 102.333 -68.5 177c0 99.333 41.167 178.5 123.5 237.5s194.166 88.5 335.499 88.5c63.333 0 124 -6.33301 182 -19s114.667 -31.667 170 -57l29 57h151v-305h-160c-28 48 -65.667 84.833 -113 110.5
s-100.333 38.5 -159 38.5c-40.667 0 -72.667 -6.5 -96 -19.5s-35 -30.833 -35 -53.5c0 -41.333 51 -77.333 153 -108l61 -19l53 -16c110 -34 189 -67 237 -99c34 -22.667 60.167 -53 78.5 -91s27.5 -80.667 27.5 -128c0 -102.667 -40 -183.334 -120 -242.001
s-190 -88 -330 -88c-74.667 0 -145.167 8.33301 -211.5 25s-124.833 40.334 -175.5 71.001zM242.005 1493h107l233 -180l233 180h107l-242 -393h-196z" />
    <glyph glyph-name="Ydieresis" unicode="&#x178;" horiz-adv-x="1413" 
d="M178 1051c-26.667 44 -55.333 76.502 -86 97.502s-64.667 31.5 -102 31.5h-39v194h801v-194h-47c-32 0 -55.5 -4 -70.5 -12s-22.5 -20.667 -22.5 -38c0 -7.33301 1.5 -15 4.5 -23s8.5 -18.667 16.5 -32l162 -264l162 267c6 9.33301 10.833 20.166 14.5 32.499
s5.5 23.833 5.5 34.5s-7.5 19.167 -22.5 25.5s-35.5 9.5 -61.5 9.5h-51v194h616v-194h-43c-31.333 0 -59.5 -9.33301 -84.5 -28s-54.833 -55.334 -89.5 -110.001l-307 -491v-238c0 -52.667 7 -85.5 21 -98.5s45.333 -19.5 94 -19.5h75v-195h-835v195h78
c45.333 0 75.333 5.5 90 16.5s22 44.833 22 101.5v238zM764.001 1727c0 42 16 79.168 48 111.501s69.333 48.5 112 48.5c44.667 0 82.834 -15.667 114.501 -47s47.5 -69 47.5 -113c0 -46.667 -15.333 -85.334 -46 -116.001s-69.334 -46 -116.001 -46
c-45.333 0 -83.333 15.5 -114 46.5s-46 69.5 -46 115.5zM326.001 1727c0 42 16.3311 79.166 48.998 111.499s70.334 48.5 113.001 48.5c44.667 0 82.5 -15.5 113.5 -46.5s46.5 -68.833 46.5 -113.5c0 -47.333 -15.167 -86.166 -45.5 -116.499s-68.5 -45.5 -114.5 -45.5
c-45.333 0 -83.666 15.5 -114.999 46.5s-47 69.5 -47 115.5z" />
    <glyph glyph-name="Zcaron" unicode="&#x17d;" horiz-adv-x="1384" 
d="M35 0l-0.000976562 195.001l762 985h-183c-110.667 0 -187.667 -22.333 -231 -67s-69.333 -128.334 -78 -251.001h-235v512h1259v-194l-758 -985h187c118.667 0 200.834 25.167 246.501 75.5s72.5 143.833 80.5 280.5h244v-551h-1294zM351.999 1905h107l233 -180l233 180
h107l-242 -393h-196z" />
    <glyph glyph-name="zcaron" unicode="&#x17e;" horiz-adv-x="1059" 
d="M29 0l-0.000976562 199l520 587h-135c-63.333 0 -106.166 -13.333 -128.499 -40s-34.833 -82.667 -37.5 -168h-185v389h930v-199l-508 -588h136c71.333 0 120.5 14.833 147.5 44.5s40.5 84.5 40.5 164.5v35h184v-424h-964zM189.999 1493h107l233 -180l233 180h107
l-242 -393h-196z" />
    <glyph glyph-name="florin" unicode="&#x192;" horiz-adv-x="1327" 
d="M436 590l-243.004 0.00390625v160h270c32.667 185.333 88.834 320.333 168.501 405s190.834 127 333.501 127c92.667 0 167 -19 223 -57s84 -88 84 -150c0 -46.667 -16 -85 -48 -115s-73.333 -45 -124 -45c-50 0 -90.167 11.667 -120.5 35s-45.5 53.333 -45.5 90
c0 20 3.33301 38.5 10 55.5s16.667 33.833 30 50.5c-4 3.33301 -8.66699 5.66602 -14 6.99902s-10.666 2 -15.999 2c-27.333 0 -49.333 -18.833 -66 -56.5s-28 -94.5 -34 -170.5l-15 -178h275v-160h-283c-22 -234 -45.167 -413.833 -69.5 -539.5
s-52.833 -216.834 -85.5 -273.501c-42.667 -74 -96.334 -128.667 -161.001 -164s-143.667 -53 -237 -53c-97.333 0 -173.833 18.667 -229.5 56s-83.5 88.333 -83.5 153c0 46 16.167 83.667 48.5 113s73.5 44 123.5 44c46.667 0 84.667 -11.5 114 -34.5s44 -53.167 44 -90.5
c0 -18.667 -3.5 -36.834 -10.5 -54.501s-17.167 -34.834 -30.5 -51.501c8.66699 -2 14.834 -3.16699 18.501 -3.5s6.83398 -0.5 9.50098 -0.5c54 0 91.333 112 112 336l11 120z" />
    <glyph glyph-name="circumflex" unicode="&#x2c6;" 
d="M172 1100l242 393h196l242 -393h-107l-233 182l-233 -182h-107z" />
    <glyph glyph-name="caron" unicode="&#x2c7;" 
d="M172 1493h107l233 -180l233 180h107l-242 -393h-196z" />
    <glyph glyph-name="breve" unicode="&#x2d8;" 
d="M166 1460h97.998c14.667 -46.667 40.834 -80.167 78.501 -100.5s94.167 -30.5 169.5 -30.5c74.667 0 131.334 10.333 170.001 31s64 54 76 100h98c-14 -105.333 -50.833 -186.166 -110.5 -242.499s-137.5 -84.5 -233.5 -84.5s-173.833 28.167 -233.5 84.5
s-97.167 137.166 -112.5 242.499z" />
    <glyph glyph-name="dotaccent" unicode="&#x2d9;" 
d="M354 1298c0 42.667 15.833 80 47.5 112s68.5 48 110.5 48c44.667 0 82.5 -15.5 113.5 -46.5s46.5 -68.833 46.5 -113.5c0 -45.333 -15.167 -82.833 -45.5 -112.5s-68.5 -44.5 -114.5 -44.5c-43.333 0 -80.5 15.5 -111.5 46.5s-46.5 67.833 -46.5 110.5z" />
    <glyph glyph-name="ring" unicode="&#x2da;" 
d="M393 1362c0 -34.667 11.334 -63.833 34.001 -87.5s51 -35.5 85 -35.5s63 12 87 36s36 53 36 87c0 32.667 -12.333 61 -37 85s-53.334 36 -86.001 36c-33.333 0 -61.5 -11.833 -84.5 -35.5s-34.5 -52.167 -34.5 -85.5zM231.001 1360c0 78.667 27.167 145.334 81.5 200.001
s120.833 82 199.5 82s145.5 -27.333 200.5 -82s82.5 -121.334 82.5 -200.001s-27.5 -145.167 -82.5 -199.5s-121.833 -81.5 -200.5 -81.5s-145.167 27.167 -199.5 81.5s-81.5 120.833 -81.5 199.5z" />
    <glyph glyph-name="ogonek" unicode="&#x2db;" 
d="M686 51c-60.667 -48.667 -105.168 -95.5 -133.501 -140.5s-42.5 -90.833 -42.5 -137.5c0 -34.667 7.83301 -61.5 23.5 -80.5s37.834 -28.5 66.501 -28.5c24 0 44.833 5.5 62.5 16.5s35.834 30.167 54.501 57.5l37 -23c-30 -64 -65.667 -111.667 -107 -143
s-89 -47 -143 -47c-56 0 -100.333 14.5 -133 43.5s-49 68.5 -49 118.5c0 61.333 24.667 121.833 74 181.5s125.666 120.5 228.999 182.5h61z" />
    <glyph glyph-name="tilde" unicode="&#x2dc;" 
d="M252 1133l-88.002 0.000976562c17.333 94 46.5 164.5 87.5 211.5s93.833 70.5 158.5 70.5c12.667 0 25.834 -1 39.501 -3s28.5 -5 44.5 -9l127 -33c14.667 -3.33301 25.334 -5.5 32.001 -6.5s12.334 -1.5 17.001 -1.5c25.333 0 45.666 7.5 60.999 22.5
s28.333 40.167 39 75.5h88c-18 -92.667 -47.5 -162.834 -88.5 -210.501s-92.167 -71.5 -153.5 -71.5c-10 0 -21 0.833008 -33 2.5s-25.667 4.16699 -41 7.5l-122 35c-12 2.66699 -23.167 4.66699 -33.5 6s-19.833 2 -28.5 2c-28 0 -50.833 -8.33301 -68.5 -25
s-30.167 -41 -37.5 -73z" />
    <glyph glyph-name="hungarumlaut" unicode="&#x2dd;" 
d="M545 1102l237 304.999l2 2c55.333 71.333 106 107 152 107c26 0 48.5 -10 67.5 -30s28.5 -43.667 28.5 -71c0 -19.333 -6.83301 -38.166 -20.5 -56.499s-35.5 -36.833 -65.5 -55.5l-305 -201h-96zM266 1102l156.002 287c28 50.667 52.333 84.834 73 102.501
s44 26.5 70 26.5c27.333 0 50.666 -9.5 69.999 -28.5s29 -41.833 29 -68.5c0 -16.667 -5.33301 -33.834 -16 -51.501s-27.334 -36.5 -50.001 -56.5l-236 -211h-96z" />
    <glyph glyph-name="Omega" unicode="&#x3a9;" horiz-adv-x="1597" 
d="M1180 346l-0.000976562 -18h272l29 96h86l-127 -424h-559c46 126.667 80.667 263.834 104 411.501s35 303.5 35 467.5c0 169.333 -18.833 298 -56.5 386s-92.5 132 -164.5 132c-74 0 -129.333 -45 -166 -135s-55 -226 -55 -408c0 -150.667 11.833 -298.5 35.5 -443.5
s58.834 -281.833 105.501 -410.5h-561l-127 424h88l28 -96h273v18c-114 24 -205.667 80.833 -275 170.5s-104 195.5 -104 317.5c0 188.667 72 346.334 216 473.001s324.667 190 542 190c215.333 0 395.833 -63.167 541.5 -189.5s218.5 -281.5 218.5 -465.5
c0 -126.667 -34.333 -234.834 -103 -324.501s-160.667 -146.834 -276 -171.501z" />
    <glyph glyph-name="pi" unicode="&#x3c0;" horiz-adv-x="1561" 
d="M1528 887l-80.001 -375.003h-370c0 -56 4.66699 -124.5 14 -205.5s14 -134.167 14 -159.5c0 -64.667 -12.833 -113.167 -38.5 -145.5s-64.167 -48.5 -115.5 -48.5c-45.333 0 -79.833 10.333 -103.5 31s-35.5 51.334 -35.5 92.001c0 48 20.333 120.167 61 216.5
s68 169.5 82 219.5h-382c0.666992 -56.667 5.5 -125.334 14.5 -206.001s13.5 -133.667 13.5 -159c0 -64.667 -12.833 -113.167 -38.5 -145.5s-63.834 -48.5 -114.501 -48.5c-46 0 -80.833 10.333 -104.5 31s-35.5 51.334 -35.5 92.001c0 48 20.333 120.167 61 216.5
s68.334 169.5 83.001 219.5h-242c-53.333 0 -87.666 -6.16699 -102.999 -18.5s-27.333 -36.166 -36 -71.499h-82c33.333 176.667 84 298.334 152 365.001s176.333 100 325 100h1061z" />
    <glyph glyph-name="endash" unicode="&#x2013;" 
d="M0 352v256h1024v-256h-1024z" />
    <glyph glyph-name="emdash" unicode="&#x2014;" horiz-adv-x="2048" 
d="M0 608h2048v-256h-2048v256z" />
    <glyph glyph-name="quoteleft" unicode="&#x2018;" horiz-adv-x="559" 
d="M285 1157c0.666992 0 2.33301 0.333984 5 1.00098c14.667 2 26 3 34 3c48.667 0 87.667 -15.333 117 -46s44 -71.334 44 -122.001c0 -55.333 -18.333 -100.833 -55 -136.5s-83 -53.5 -139 -53.5c-64.667 0 -117 21.5 -157 64.5s-60 99.167 -60 168.5
c0 96 37.333 180.167 112 252.5s169.667 114.5 285 126.5v-129c-51.333 -5.33301 -92 -18.333 -122 -39s-51.333 -50.667 -64 -90z" />
    <glyph glyph-name="quoteright" unicode="&#x2019;" horiz-adv-x="559" 
d="M274 1067c-0.666992 0 -2.33398 -0.332031 -5.00098 -0.999023c-15.333 -2 -26.333 -3 -33 -3c-48 0 -87 15.667 -117 47s-45 72.333 -45 123c0 55.333 18.333 100.833 55 136.5s83 53.5 139 53.5c64.667 0 117 -21.5 157 -64.5s60 -99.167 60 -168.5
c0 -96 -37.333 -180.167 -112 -252.5s-169.667 -114.5 -285 -126.5v129c52 5.33301 92.833 18.166 122.5 38.499s50.834 49.833 63.501 88.5z" />
    <glyph glyph-name="quotesinglbase" unicode="&#x201a;" horiz-adv-x="559" 
d="M274 -12c-0.666992 -0.666992 -2.33301 -1.00195 -5 -1.00195c-14.667 -2 -25.667 -3 -33 -3c-49.333 0 -88.666 15.333 -117.999 46s-44 71.334 -44 122.001c0 54.667 18.333 100 55 136s83 54 139 54c64.667 0 117 -21.5 157 -64.5s60 -99.167 60 -168.5
c0 -96.667 -37.333 -181.167 -112 -253.5s-169.667 -114.166 -285 -125.499v129c50 4.66699 90.167 17.5 120.5 38.5s52.166 51.167 65.499 90.5z" />
    <glyph glyph-name="quotedblleft" unicode="&#x201c;" horiz-adv-x="1042" 
d="M270 1169c1.33301 0.666992 3.00195 1.00098 5.00195 1.00098c15.333 2 26.666 3.33301 33.999 4c49.333 0 89 -15.5 119 -46.5s45 -71.5 45 -121.5c0 -55.333 -18.333 -101 -55 -137s-83 -54 -139 -54c-64.667 0 -117.167 21.5 -157.5 64.5s-60.5 99.5 -60.5 169.5
c0 96 37.167 180.167 111.5 252.5s169.166 114.166 284.499 125.499v-129c-51.333 -4.66699 -92 -17.5 -122 -38.5s-51.667 -51.167 -65 -90.5zM754.002 1169c0.666992 0.666992 2.33398 1.00195 5.00098 1.00195c14.667 2 26 3.33301 34 4c48.667 0 87.667 -15.5 117 -46.5
s44 -71.5 44 -121.5c0 -56 -18 -101.833 -54 -137.5s-82 -53.5 -138 -53.5c-64.667 0 -117.334 21.667 -158.001 65s-61 99.666 -61 168.999c0 96 37.333 180.167 112 252.5s169.667 114.166 285 125.499v-129c-51.333 -4.66699 -92 -17.5 -122 -38.5
s-51.333 -51.167 -64 -90.5z" />
    <glyph glyph-name="quotedblright" unicode="&#x201d;" horiz-adv-x="1042" 
d="M274 1067c-0.666992 0 -2.33398 -0.332031 -5.00098 -0.999023c-15.333 -2 -26.333 -3 -33 -3c-48 0 -87 15.667 -117 47s-45 72.333 -45 123c0 55.333 18.333 100.833 55 136.5s83 53.5 139 53.5c64.667 0 117 -21.5 157 -64.5s60 -99.167 60 -168.5
c0 -96 -37.333 -180.167 -112 -252.5s-169.667 -114.5 -285 -126.5v129c52 5.33301 92.833 18.166 122.5 38.499s50.834 49.833 63.501 88.5zM758 1067c-1.33301 0 -3.33496 -0.332031 -6.00195 -0.999023c-14.667 -2 -25.667 -3 -33 -3c-48.667 0 -88.167 15.667 -118.5 47
s-45.5 72.333 -45.5 123c0 55.333 18.333 100.833 55 136.5s83.334 53.5 140.001 53.5c64.667 0 117.334 -21.5 158.001 -64.5s61 -99.167 61 -168.5c0 -96 -37.5 -180.167 -112.5 -252.5s-170.167 -114.5 -285.5 -126.5v129c52 5.33301 92.833 18.166 122.5 38.499
s51.167 49.833 64.5 88.5z" />
    <glyph glyph-name="quotedblbase" unicode="&#x201e;" horiz-adv-x="1042" 
d="M758 -12c-1.33301 -0.666992 -3.33398 -1.00195 -6.00098 -1.00195c-14.667 -2 -25.667 -3 -33 -3c-49.333 0 -89 15.333 -119 46s-45 71.334 -45 122.001c0 54.667 18.333 100 55 136s83.334 54 140.001 54c64.667 0 117.334 -21.5 158.001 -64.5s61 -99.167 61 -168.5
c0 -96.667 -37.5 -181.167 -112.5 -253.5s-170.167 -114.166 -285.5 -125.499v129c50.667 4.66699 91.167 17.5 121.5 38.5s52.166 51.167 65.499 90.5zM273.999 -12.002c-0.666992 -0.666992 -2.33301 -1.00195 -5 -1.00195c-14.667 -2 -25.667 -3 -33 -3
c-49.333 0 -88.666 15.333 -117.999 46s-44 71.334 -44 122.001c0 54.667 18.333 100 55 136s83 54 139 54c64.667 0 117 -21.5 157 -64.5s60 -99.167 60 -168.5c0 -96.667 -37.333 -181.167 -112 -253.5s-169.667 -114.166 -285 -125.499v129
c50 4.66699 90.167 17.5 120.5 38.5s52.166 51.167 65.499 90.5z" />
    <glyph glyph-name="dagger" unicode="&#x2020;" horiz-adv-x="1280" 
d="M567 850c-2.66699 56 -18.999 129.498 -48.999 220.498s-45 156.833 -45 197.5c0 52 13.667 90.167 41 114.5s70.333 36.5 129 36.5c54.667 0 95.667 -12.5 123 -37.5s41 -62.833 41 -113.5c0 -39.333 -14.833 -104.5 -44.5 -195.5s-46.167 -165.167 -49.5 -222.5
c92.667 38.667 157.167 64 193.5 76s63.166 18 80.499 18c50.667 0 90.334 -13.833 119.001 -41.5s43 -66.5 43 -116.5c0 -48.667 -12.333 -87 -37 -115s-58 -42 -100 -42c-56.667 0 -148.334 31.667 -275.001 95l-26 13c0 -138 16 -311 48 -519s48 -347 48 -417
c0 -69.333 -14.167 -122.166 -42.5 -158.499s-69.5 -54.5 -123.5 -54.5c-56 0 -98.333 18.5 -127 55.5s-43 91.5 -43 163.5c0 62.667 16.333 197.334 49 404.001s49 382 49 526c-83.333 -44 -145.833 -73 -187.5 -87s-79.5 -21 -113.5 -21c-40.667 0 -73.667 14 -99 42
s-38 64.333 -38 109c0 52.667 14 93.167 42 121.5s68 42.5 120 42.5c28 0 102 -24.333 222 -73z" />
    <glyph glyph-name="daggerdbl" unicode="&#x2021;" horiz-adv-x="1280" 
d="M567 916c-3.33301 49.333 -19.8301 113.999 -49.4971 193.999s-44.5 138 -44.5 174c0 46.667 13.833 80.834 41.5 102.501s71.167 32.5 130.5 32.5c54 0 94.5 -11.167 121.5 -33.5s40.5 -56.166 40.5 -101.499c0 -35.333 -14.667 -93 -44 -173s-46 -145.333 -50 -196
l22 9c138.667 51.333 224.667 77 258 77c48.667 0 86.834 -13.167 114.501 -39.5s41.5 -62.833 41.5 -109.5c0 -41.333 -12.833 -75.166 -38.5 -101.499s-58.5 -39.5 -98.5 -39.5c-43.333 0 -97.166 12.833 -161.499 38.5s-110.833 40.5 -139.5 44.5
c0.666992 -33.333 10.167 -75 28.5 -125s44.166 -105 77.499 -165c-32 -56.667 -56.833 -108.834 -74.5 -156.501s-28.167 -91.167 -31.5 -130.5c27.333 5.33301 73.5 20.333 138.5 45s119.167 37 162.5 37c40 0 72.833 -13.167 98.5 -39.5s38.5 -60.166 38.5 -101.499
c0 -46.667 -13.833 -83.334 -41.5 -110.001s-65.834 -40 -114.501 -40c-28 0 -90 18 -186 54l-94 34c3.33301 -50 19.833 -115.5 49.5 -196.5s44.5 -138.833 44.5 -173.5c0 -46 -13.833 -80.167 -41.5 -102.5s-69.834 -33.5 -126.501 -33.5c-56 0 -97.667 11.167 -125 33.5
s-41 56.5 -41 102.5c0 35.333 14.667 93.333 44 174s46 146 50 196c-11.333 -4 -28 -10.333 -50 -19c-122.667 -46 -199.334 -69 -230.001 -69c-48.667 0 -86.834 13.333 -114.501 40s-41.5 63.334 -41.5 110.001c0 41.333 12.833 75.166 38.5 101.499s58.5 39.5 98.5 39.5
c43.333 0 97.166 -12.5 161.499 -37.5s110.833 -39.833 139.5 -44.5c-2 38.667 -12.167 82.5 -30.5 131.5s-44.166 100.833 -77.499 155.5c34 61.333 60 116 78 164s28 90 30 126c-28 -4.66699 -74.5 -19.667 -139.5 -45s-118.833 -38 -161.5 -38
c-40 0 -72.833 13.167 -98.5 39.5s-38.5 60.166 -38.5 101.499c0 46.667 13.833 83.167 41.5 109.5s65.834 39.5 114.501 39.5c29.333 0 95.666 -18.667 198.999 -56z" />
    <glyph glyph-name="bullet" unicode="&#x2022;" horiz-adv-x="1208" 
d="M307 762c0 82 28.999 151.666 86.999 208.999s128 86 210 86c81.333 0 150.833 -28.833 208.5 -86.5s86.5 -127.167 86.5 -208.5s-29.167 -151.166 -87.5 -209.499s-128.166 -87.5 -209.499 -87.5c-82 0 -151.667 29 -209 87s-86 128 -86 210z" />
    <glyph glyph-name="ellipsis" unicode="&#x2026;" horiz-adv-x="2048" 
d="M153 154c0 52.667 18.167 97.167 54.5 133.5s81.166 54.5 134.499 54.5s98 -18.167 134 -54.5s54 -80.833 54 -133.5c0 -53.333 -18 -98.166 -54 -134.499s-80.667 -54.5 -134 -54.5s-98.166 18.167 -134.499 54.5s-54.5 81.166 -54.5 134.499zM835 154
c0 52.667 18.167 97.167 54.5 133.5s81.166 54.5 134.499 54.5s98 -18.167 134 -54.5s54 -80.833 54 -133.5c0 -53.333 -18 -98.166 -54 -134.499s-80.667 -54.5 -134 -54.5s-98.166 18.167 -134.499 54.5s-54.5 81.166 -54.5 134.499zM1519 154
c0 52.667 18.167 97.167 54.5 133.5s81.166 54.5 134.499 54.5s98 -18.167 134 -54.5s54 -80.833 54 -133.5c0 -53.333 -18 -98.166 -54 -134.499s-80.667 -54.5 -134 -54.5s-98.166 18.167 -134.499 54.5s-54.5 81.166 -54.5 134.499z" />
    <glyph glyph-name="perthousand" unicode="&#x2030;" horiz-adv-x="2855" 
d="M2267 356c0 -83.333 10.333 -143.668 31 -181.001s54 -56 100 -56c47.333 0 81.333 18.333 102 55s31 97.334 31 182.001s-10.333 145.834 -31 183.501s-54 56.5 -100 56.5c-45.333 0 -78.833 -19.333 -100.5 -58s-32.5 -99.334 -32.5 -182.001zM2005 357.998
c0 118.667 36.333 213.999 109 285.999s168 108 286 108s213 -36 285 -108s108 -167.333 108 -286c0 -118 -35.833 -213 -107.5 -285s-166.834 -108 -285.5 -108c-118.667 0 -214.167 35.833 -286.5 107.5s-108.5 166.834 -108.5 285.501zM1380 355.997
c0 -83.333 10.334 -143.668 31.001 -181.001s54 -56 100 -56c47.333 0 81.5 18.333 102.5 55s31.5 97.334 31.5 182.001s-10.333 145.834 -31 183.501s-54.334 56.5 -101.001 56.5c-45.333 0 -78.833 -19.333 -100.5 -58s-32.5 -99.334 -32.5 -182.001zM1120 357.995
c0 118.667 36.001 213.999 108.001 285.999s167 108 285 108s213.167 -36 285.5 -108s108.5 -167.333 108.5 -286c0 -118 -36 -213 -108 -285s-167.333 -108 -286 -108s-213.834 35.833 -285.501 107.5s-107.5 166.834 -107.5 285.501zM324.002 888.994
c0 -83.333 10.5 -144.167 31.5 -182.5s54.833 -57.5 101.5 -57.5s80.167 18.5 100.5 55.5s30.5 98.5 30.5 184.5c0 84.667 -10.333 145.667 -31 183s-54 56 -100 56s-79.667 -19.167 -101 -57.5s-32 -98.833 -32 -181.5zM63.002 888.993
c0 118 35.999 213.001 107.999 285.001s167.333 108 286 108c118 0 213 -35.833 285 -107.5s108 -166.834 108 -285.501s-36.167 -214.167 -108.5 -286.5s-167.166 -108.5 -284.499 -108.5c-118.667 0 -214 36 -286 108s-108 167.667 -108 287zM494.001 -37.0059l784 1321
h195l-783 -1321h-196z" />
    <glyph glyph-name="guilsinglleft" unicode="&#x2039;" horiz-adv-x="592" 
d="M293 137c-91.333 124 -149.668 207.499 -175.001 250.499s-38 74.833 -38 95.5c0 24 16.5 63.333 49.5 118s87.5 133 163.5 235h204l-3 -9c-76.667 -182 -115 -296.667 -115 -344c0 -22.667 8.83301 -57.167 26.5 -103.5s53.834 -127.166 108.501 -242.499h-221z" />
    <glyph glyph-name="guilsinglright" unicode="&#x203a;" horiz-adv-x="592" 
d="M299 137h-219.001c51.333 108 86.333 186.667 105 236s28 86 28 110c0 28 -7.16699 64.667 -21.5 110s-46.166 126.333 -95.499 243h205c76 -102 130.5 -180.333 163.5 -235s49.5 -94 49.5 -118c0 -35.333 -70.667 -149.333 -212 -342z" />
    <glyph glyph-name="franc" unicode="&#x20a3;" horiz-adv-x="2531" 
d="M1430 1374l-0.000976562 -563h-223c-4 67.333 -11.167 122.5 -21.5 165.5s-25.166 79.167 -44.499 108.5c-23.333 34.667 -53.5 59.167 -90.5 73.5s-107.833 21.5 -212.5 21.5h-176v-377h53c62 0 105.5 15 130.5 45s37.5 83.333 37.5 160v12h172v-627h-172
c-2.66699 96 -15.167 158.333 -37.5 187s-65.166 43 -128.499 43h-55v-310c0 -56.667 7.16699 -90.5 21.5 -101.5s44.5 -16.5 90.5 -16.5h76v-195h-817v195h69c45.333 0 75.166 5.33301 89.499 16s21.5 41.334 21.5 92.001v10v750c0 53.333 -6.66699 86.166 -20 98.499
s-44.333 18.5 -93 18.5h-67v194h1397zM2042 872c34.667 43.333 73.001 75.666 115.001 96.999s87 32 135 32c73.333 0 132 -21.5 176 -64.5s66 -100.5 66 -172.5c0 -62 -17.5 -111.667 -52.5 -149s-81.167 -56 -138.5 -56c-45.333 0 -83.166 14.333 -113.5 43
c-30.333 28.667 -45.5 64.334 -45.5 107.001c0 29.333 7.33301 55 22 77s37 40.667 67 56c-8 2 -15.667 3.5 -23 4.5s-14.333 1.5 -21 1.5c-54.667 0 -97.834 -25.5 -129.501 -76.5s-47.5 -121.167 -47.5 -210.5v-285c0 -39.333 6.33301 -65.166 19 -77.499
s38.667 -18.5 78 -18.5h65v-180h-696v180h35c39.333 0 65.166 6.16699 77.499 18.5s18.5 38.166 18.5 77.499v414c0 40 -6.16699 66 -18.5 78s-38.166 18 -77.499 18h-35v181h524v-95z" />
    <glyph glyph-name="trademark" unicode="&#x2122;" horiz-adv-x="1683" 
d="M731 1468h236l120 -342l111 342h221v-28l-21 -9c-10.667 -3.33301 -18 -8 -22 -14s-6 -17 -6 -33v-385c0 -15.333 2 -26 6 -32s11.667 -11 23 -15l20 -8v-37h-268v37l30 8c11.333 3.33301 19 8.5 23 15.5s6 17.5 6 31.5v340l-135 -432h-53l-162 447v-355
c0 -14.667 2.33301 -25.667 7 -33s12 -12 22 -14l37 -8v-37h-195v37l34 8c11.333 2.66699 19.5 7.66699 24.5 15s7.5 18 7.5 32v377c0 14 -2.5 24.833 -7.5 32.5s-12.833 12.5 -23.5 14.5l-35 9v36zM219 1468l461 0.000976562l12 -206h-39
c-4 51.333 -15.833 89.5 -35.5 114.5s-47.167 37.833 -82.5 38.5v-416c0 -14 2 -24.833 6 -32.5s10.333 -12.5 19 -14.5l30 -8v-37h-281v37l33 8c8 2 14.167 6.83301 18.5 14.5s6.5 18.5 6.5 32.5v416c-36.667 0 -65 -12.833 -85 -38.5s-32 -63.834 -36 -114.501h-39z" />
    <glyph glyph-name="partialdiff" unicode="&#x2202;" horiz-adv-x="1139" 
d="M770 715c16.667 84.667 28.334 154.666 35.001 209.999s10 105.333 10 150c0 70 -8.83301 123 -26.5 159s-43.5 54 -77.5 54c-21.333 0 -40.333 -7 -57 -21s-34 -37.667 -52 -71c-29.333 -53.333 -59.833 -93 -91.5 -119s-65.167 -39 -100.5 -39
c-41.333 0 -75.666 12.5 -102.999 37.5s-41 56.833 -41 95.5c0 58 34.167 107.333 102.5 148s151.5 61 249.5 61c149.333 0 266.666 -54.167 351.999 -162.5s128 -258.166 128 -449.499c0 -232 -55.833 -421.833 -167.5 -569.5s-255.834 -221.5 -432.501 -221.5
c-143.333 0 -256 38.5 -338 115.5s-123 182.833 -123 317.5c0 136 42 249.5 126 340.5s186.667 136.5 308 136.5c64 0 121.333 -14.5 172 -43.5s93 -71.833 127 -128.5zM694 552.999c0 76 -11.334 133.501 -34.001 172.501s-55.667 58.5 -99 58.5
c-60 0 -110.167 -46.833 -150.5 -140.5s-60.5 -211.834 -60.5 -354.501c0 -76.667 11.333 -134.167 34 -172.5s56.334 -57.5 101.001 -57.5c60 0 109.833 46.667 149.5 140s59.5 211.333 59.5 354z" />
    <glyph glyph-name="Delta" unicode="&#x2206;" horiz-adv-x="1339" 
d="M504 1044l-324 -655h647zM631 1497h82l741 -1497h-1569z" />
    <glyph glyph-name="product" unicode="&#x220f;" horiz-adv-x="1841" 
d="M39 1473h1753v-97h-193v-1673h193v-96h-825v96h159v1673h-421v-1673h159v-96h-825v96h192v1673h-192v97z" />
    <glyph glyph-name="summation" unicode="&#x2211;" horiz-adv-x="1640" 
d="M33 1473l1327 0.000976562l174 -506h-100l-115 274c-20.667 49.333 -50.5 84.166 -89.5 104.499s-97.833 30.5 -176.5 30.5h-72h-391l491 -725v-43l-624 -614h829c3.33301 0 8.5 0.333008 15.5 1s12.167 1 15.5 1c36 0 59.667 4 71 12s20.333 24.333 27 49l70 232h100
l-207 -682h-1351v110l696 682l-690 992v82z" />
    <glyph glyph-name="minus" unicode="&#x2212;" horiz-adv-x="1706" 
d="M254 750h1198v-277h-1198v277z" />
    <glyph glyph-name="fraction" unicode="&#x2215;" horiz-adv-x="342" 
d="M-342 -35l831 1317h195l-831 -1317h-195z" />
    <glyph glyph-name="periodcentered" unicode="&#x2219;" horiz-adv-x="664" 
d="M141 627c0 53.333 18.5 98.333 55.5 135s82.167 55 135.5 55s98.333 -18.333 135 -55s55 -81.667 55 -135c0 -54 -18.333 -99.333 -55 -136s-81.667 -55 -135 -55s-98.5 18.5 -135.5 55.5s-55.5 82.167 -55.5 135.5z" />
    <glyph glyph-name="radical" unicode="&#x221a;" horiz-adv-x="1395" 
d="M1171 1737h228v-172h-86l-588 -1606h-143l-301 827l-156 -59l-41 154l395 139l209 -600z" />
    <glyph glyph-name="infinity" unicode="&#x221e;" horiz-adv-x="1706" 
d="M975 561c26.667 -38 58.333 -66.667 95 -86s78 -29 124 -29c56 0 101.667 14.333 137 43s53 65 53 109c0 43.333 -16 79.833 -48 109.5s-71 44.5 -117 44.5c-44 0 -84.833 -14.667 -122.5 -44s-78.167 -78.333 -121.5 -147zM730.999 653
c-27.333 38.667 -59.001 67.5 -95.001 86.5s-77.333 28.5 -124 28.5c-56 0 -101.333 -14.333 -136 -43s-52 -65.667 -52 -111c0 -42.667 15.833 -78.5 47.5 -107.5s70.834 -43.5 117.501 -43.5c44.667 0 85.667 14.667 123 44s77 78 119 146zM849.998 424
c-44.667 -86 -93.5 -149.833 -146.5 -191.5s-111.5 -62.5 -175.5 -62.5c-96 0 -177.667 42 -245 126s-101 188 -101 312c0 130 29.833 235.167 89.5 315.5s137.167 120.5 232.5 120.5c56.667 0 110.334 -17.667 161.001 -53s114.334 -102 191.001 -200
c46 85.333 95.667 148.833 149 190.5s111.666 62.5 174.999 62.5c95.333 0 176.833 -42 244.5 -126s101.5 -188 101.5 -312c0 -129.333 -30.167 -234.333 -90.5 -315s-138.166 -121 -233.499 -121c-58.667 0 -113.334 17.667 -164.001 53s-113.334 102.333 -188.001 201z
" />
    <glyph glyph-name="integral" unicode="&#x222b;" horiz-adv-x="1331" 
d="M379 -244c18.667 0 36.668 14 54.001 42s31.333 66 42 114c12.667 61.333 21.334 189.666 26.001 384.999c2.66699 123.333 5.66699 221 9 293c15.333 343.333 63.333 590.666 144 741.999s203.334 227 368.001 227c78.667 0 142 -19.5 190 -58.5s72 -89.167 72 -150.5
c0 -46 -15.333 -83.5 -46 -112.5s-69.334 -43.5 -116.001 -43.5c-44.667 0 -78.334 13.5 -101.001 40.5s-34 66.833 -34 119.5c0 1.33301 0.333008 4.83301 1 10.5s1 10.834 1 15.501c0 17.333 -2.83301 30 -8.5 38s-14.5 12 -26.5 12
c-68.667 0 -110.667 -220.333 -126 -661l-3 -88c-7.33301 -222.667 -19.333 -384.167 -36 -484.5s-41.334 -189.166 -74.001 -266.499c-43.333 -100 -98.833 -175.5 -166.5 -226.5s-146.834 -76.5 -237.501 -76.5c-78.667 0 -141.667 19 -189 57s-71 88.667 -71 152
c0 48 15 86 45 114s70.333 42 121 42c41.333 0 73.5 -12.5 96.5 -37.5s34.5 -59.833 34.5 -104.5c0 -8 -0.333008 -18 -1 -30s-1 -19.667 -1 -23c0 -13.333 2.83301 -23.5 8.5 -30.5s13.834 -10.5 24.501 -10.5z" />
    <glyph glyph-name="approxequal" unicode="&#x2248;" horiz-adv-x="1706" 
d="M1530 608l0.00488281 -299c-70.667 -46 -135.834 -79.667 -195.501 -101s-118.834 -32 -177.501 -32c-58 0 -151.333 21.5 -280 64.5s-234 64.5 -316 64.5c-54.667 0 -112.167 -12.333 -172.5 -37s-130.5 -65 -210.5 -121v299c76.667 49.333 147.667 85.333 213 108
s131 34 197 34c79.333 0 182.166 -21.5 308.499 -64.5s215.833 -64.5 268.5 -64.5c55.333 0 111.666 11.5 168.999 34.5s122.666 61.167 195.999 114.5zM1530 1073l0.00390625 -299c-70.667 -46.667 -135.667 -80.5 -195 -101.5s-118 -31.5 -176 -31.5
c-58.667 0 -152.334 21.5 -281.001 64.5s-234.334 64.5 -317.001 64.5c-56.667 0 -114.834 -12.167 -174.501 -36.5s-129.167 -64.833 -208.5 -121.5v299c76.667 49.333 147.667 85.333 213 108s131 34 197 34c79.333 0 182.166 -21.167 308.499 -63.5
s215.833 -63.5 268.5 -63.5c56.667 0 113.667 11.5 171 34.5s122 60.5 194 112.5z" />
    <glyph glyph-name="notequal" unicode="&#x2260;" horiz-adv-x="1706" 
d="M1188 1278l196 -162l-112 -139h180v-260h-358l-172 -211h530v-262h-704l-242 -299l-199 159l113 140h-166v262h340l170 211h-510v260h690z" />
    <glyph glyph-name="lessequal" unicode="&#x2264;" horiz-adv-x="1706" 
d="M254 236h1200v-271h-1200v271zM1452 1282v-283l-704 -208l704 -209v-281l-1198 371v237z" />
    <glyph glyph-name="greaterequal" unicode="&#x2265;" horiz-adv-x="1706" 
d="M254 236h1200v-271h-1200v271zM256 1282l1196 -373v-237l-1196 -371v281l705 209l-705 208v283z" />
    <glyph glyph-name="lozenge" unicode="&#x25ca;" horiz-adv-x="1012" 
d="M506 1409l-385 -817l385 -825l385 825zM506 1653l500 -1061l-500 -1069l-500 1069z" />
    <glyph glyph-name="apple" unicode="&#xf000;" horiz-adv-x="1618" 
d="M836 1216c-0.666992 4 -1.16699 8.66895 -1.5 14.002s-0.5 13 -0.5 23c0 82.667 31.667 159.167 95 229.5s142 114.166 236 131.499c0.666992 -6.66699 1.16699 -14.334 1.5 -23.001s0.5 -21.667 0.5 -39c0 -87.333 -34.5 -165.5 -103.5 -234.5
s-136.833 -103.5 -203.5 -103.5h-8c-2 0 -4.5 0.333008 -7.5 1s-5.83301 1 -8.5 1zM1505 403.002c-76 -164.667 -144.336 -278.834 -205.003 -342.501s-128.667 -95.5 -204 -95.5c-33.333 0 -77.166 11 -131.499 33s-95.166 33 -122.499 33c-30 0 -73.667 -11 -131 -33
s-99.666 -33 -126.999 -33c-42.667 0 -85.5 14.667 -128.5 44s-86.167 73.333 -129.5 132c-68 93.333 -120.5 191.833 -157.5 295.5s-55.5 203.834 -55.5 300.501c0 146 41.667 264.833 125 356.5s191 137.5 323 137.5c45.333 0 97 -11.333 155 -34s99.333 -34 124 -34
c22.667 0 63.167 11.667 121.5 35s109.166 35 152.499 35c73.333 0 139.333 -13.333 198 -40s112.334 -68 161.001 -124c-68 -43.333 -118.5 -91.833 -151.5 -145.5s-49.5 -114.5 -49.5 -182.5c0 -75.333 20 -142 60 -200s97.667 -104 173 -138z" />
    <glyph glyph-name="fi" unicode="&#xf001;" horiz-adv-x="1462" 
d="M188 780l-144.999 0.000976562v187h147v71c0 129.333 46.167 223.833 138.5 283.5s237.5 89.5 435.5 89.5c152 0 271.833 -21.833 359.5 -65.5s131.5 -102.5 131.5 -176.5c0 -48.667 -16.667 -87.667 -50 -117s-78.666 -44 -135.999 -44
c-59.333 0 -104.833 11.833 -136.5 35.5s-47.5 57.5 -47.5 101.5c0 20 5.83301 39.167 17.5 57.5s28.834 34.5 51.501 48.5c-20 6.66699 -41.333 11.5 -64 14.5s-48.334 4.5 -77.001 4.5c-72.667 0 -127.667 -19.333 -165 -58s-56 -96 -56 -172v-73h711v-691
c0 -39.333 6.16699 -65.166 18.5 -77.499s38.166 -18.5 77.499 -18.5h33v-180h-639v180h26c30.667 0 51.667 6.66699 63 20s17 38.666 17 75.999v408c0 40 -6 66 -18 78s-37.333 18 -76 18h-213v-501c0 -40 6 -66.833 18 -80.5s34.667 -20.5 68 -20.5
c3.33301 0 8.33301 0.333008 15 1s12 1 16 1v-180h-666v180h49c39.333 0 65.166 6.16699 77.499 18.5s18.5 38.166 18.5 77.499v504z" />
    <glyph glyph-name="fl" unicode="&#xf002;" horiz-adv-x="1462" 
d="M188 780h-145v187h147v63c0 131.333 44.667 227.666 134 288.999s229.666 92 420.999 92c48 0 97.333 -3 148 -9s102.667 -15.333 156 -28h254v-1098c0 -39.333 6.16699 -65.166 18.5 -77.499s38.166 -18.5 77.499 -18.5h33v-180h-629v180h24
c31.333 0 52.833 6.83301 64.5 20.5s17.5 38.834 17.5 75.501v791c-15.333 13.333 -26.666 27.833 -33.999 43.5s-11 33.167 -11 52.5c0 18.667 3.83301 35.667 11.5 51s18.834 29 33.501 41c-18 4 -34.667 7.16699 -50 9.5s-28.666 3.5 -39.999 3.5
c-70 0 -125.333 -17.667 -166 -53s-61 -83.333 -61 -144v-104h170v-187h-170v-501c0 -40 6 -66.833 18 -80.5s34.667 -20.5 68 -20.5c3.33301 0 8.33301 0.333008 15 1s12 1 16 1v-180h-666v180h49c39.333 0 65.166 6.16699 77.499 18.5s18.5 38.166 18.5 77.499v504z" />
    <glyph glyph-name=".null" horiz-adv-x="0" 
 />
    <glyph glyph-name="nonmarkingreturn" horiz-adv-x="664" 
 />
    </font>
</defs>
</svg>
